/* XPM */
static char *deadbeef[] = {
/* columns rows colors chars-per-pixel */
"16 16 134 2 ",
"   c #111111",
".  c gray10",
"X  c #1E1E1E",
"o  c gray13",
"O  c #222221",
"+  c gray15",
"@  c #282828",
"#  c gray16",
"$  c #2A2A2A",
"%  c #2D2D2D",
"&  c #2F2F2D",
"*  c #33392D",
"=  c #323232",
"-  c #323332",
";  c #343434",
":  c gray21",
">  c #363A33",
",  c #383836",
"<  c #393937",
"1  c gray22",
"2  c #393939",
"3  c #393A39",
"4  c #3A3A3A",
"5  c gray23",
"6  c #3B3E38",
"7  c #3D3D3B",
"8  c #3C3F3A",
"9  c #3E3E3E",
"0  c #3F3F3F",
"q  c #3E423B",
"w  c #3E413C",
"e  c #414938",
"r  c #464F3E",
"t  c #465537",
"y  c #465932",
"u  c #4B5D37",
"i  c #4A573D",
"p  c gray25",
"a  c #404140",
"s  c #414141",
"d  c gray26",
"f  c #434342",
"g  c #434343",
"h  c #454544",
"j  c gray27",
"k  c #464646",
"l  c gray28",
"z  c #474847",
"x  c #494C46",
"c  c #494949",
"v  c #494B48",
"b  c gray29",
"n  c #4B4D48",
"m  c #4B4E49",
"M  c #4E4E4E",
"N  c #4A5143",
"B  c #4C5147",
"V  c #4D5843",
"C  c #4F504E",
"Z  c #515B47",
"A  c #50534D",
"S  c #525A4A",
"D  c #53584D",
"F  c #565656",
"G  c #575A54",
"H  c #5B5B5B",
"J  c #5B5C5B",
"K  c #5F5F5F",
"L  c #536540",
"P  c #556247",
"I  c #59664C",
"U  c #5E7745",
"Y  c #5E714B",
"T  c #627350",
"R  c #677756",
"E  c gray39",
"W  c #666765",
"Q  c gray40",
"!  c #676766",
"~  c #676767",
"^  c #686868",
"/  c #6A6D68",
"(  c #6D6D6D",
")  c #697062",
"_  c #717171",
"`  c #747474",
"'  c gray46",
"]  c #757675",
"[  c #767676",
"{  c #777975",
"}  c #7A7E76",
"|  c #797979",
" . c #7A7B79",
".. c gray48",
"X. c #7B7E79",
"o. c gray49",
"O. c #6A854F",
"+. c #6D9048",
"@. c #72944F",
"#. c #749E49",
"$. c #6F8A53",
"%. c #7C9C5C",
"&. c #7FAA52",
"*. c #7D9465",
"=. c #7F817D",
"-. c #82AC56",
";. c #83B355",
":. c #89BC55",
">. c #8CBB5E",
",. c #808F71",
"<. c #89967C",
"1. c #8BA86D",
"2. c #8AB162",
"3. c #8EBC62",
"4. c #91BD65",
"5. c #94BE6A",
"6. c #90C15D",
"7. c #99CB65",
"8. c #99C86A",
"9. c #9ACC68",
"0. c #9DCD6C",
"q. c #9ED06D",
"w. c #9CC572",
"e. c #A1D171",
"r. c #A5D177",
"t. c #A6D47A",
"y. c #A8D47D",
"u. c gray52",
"i. c #ACCD8C",
"p. c #ABD580",
"a. c #ACD682",
"s. c #ADD785",
"d. c #B1D889",
"f. c None",
/* pixels */
"f.f.f.f.f.f.H ` ` H f.f.f.f.f.f.",
"f.f.f.f.f.~ u. . .u.~ f.f.f.f.f.",
"f.f.f.f.~ =.}  . .' o.~ f.f.f.f.",
"f.f.f.E { ,.i.<. .' _ ' E f.f.f.",
"f.f.F ( / *.d.s.1.) ~ ^ ( F f.f.",
"f.l ~ H G $.p.a.p.w.R G J ~ l f.",
"; K M c A O.y.t.2.8.r.%.S C K ; ",
"0 l g l m Y 5.T D I -.e.4.Z z 0 ",
"1 p 0 g h x B x m P -.q.3.V q 1 ",
"+ c 1 0 0 g f N U 6.0.@.r 7 c + ",
"f.$ h 1 1 q i #.9.>.L q 1 l $ f.",
"f.f.$ 0 < t :.7.+.e < ; 0 $ f.f.",
"f.f.f.$ w y ;.u > ; - 1 @ f.f.f.",
"f.f.f.f.o 6 * % % % 1 o f.f.f.f.",
"f.f.f.f.f.. ; $ $ ; . f.f.f.f.f.",
"f.f.f.f.f.f.  X X   f.f.f.f.f.f."
};
