/* XPM */
static char *firefox[] = {
/* columns rows colors chars-per-pixel */
"16 16 71 1 ",
"  c black",
". c #010101",
"X c #020202",
"o c gray1",
"O c #070707",
"+ c gray3",
"@ c gray4",
"# c #0B0B0B",
"$ c gray5",
"% c #101010",
"& c gray7",
"* c #131313",
"= c gray8",
"- c #181818",
"; c #1E1E1E",
": c gray12",
"> c #222222",
", c gray15",
"< c #282828",
"1 c gray17",
"2 c #313131",
"3 c #343434",
"4 c #3A3A3A",
"5 c gray23",
"6 c #3C3C3C",
"7 c #434343",
"8 c #484848",
"9 c #505050",
"0 c #5A5A5A",
"q c gray36",
"w c #606060",
"e c gray38",
"r c gray45",
"t c #747474",
"y c #777777",
"u c #7E7E7E",
"i c gray50",
"p c #808080",
"a c #979797",
"s c #9D9D9D",
"d c #A2A2A2",
"f c gray68",
"g c gray71",
"h c #BBBBBB",
"j c gray75",
"k c gray76",
"l c #CDCDCD",
"z c #D7D7D7",
"x c gainsboro",
"c c gray87",
"v c #DFDFDF",
"b c gray88",
"n c #E2E2E2",
"m c #E7E7E7",
"M c gray91",
"N c #E9E9E9",
"B c #EEEEEE",
"V c gray94",
"C c #F1F1F1",
"Z c gray95",
"A c #F4F4F4",
"S c gray96",
"D c #F6F6F6",
"F c gray97",
"G c #F9F9F9",
"H c gray98",
"J c #FBFBFB",
"K c gray99",
"L c #FDFDFD",
"P c white",
"I c None",
/* pixels */
"IIIIIIIIIIIIIIII",
"IIIIIIIIIIIIIIII",
"IPPFPPPPInFPPPII",
"IPkpPMfPIJu4lPPI",
"IPy..OsPPPJy;hPI",
"IP7...-0PIPP2wPI",
"PC....,gPIIP*1FI",
"Pc...;aPPPPC@.FI",
"Px...,cMzPPu.*PI",
"PP@.....8Cmw.8PI",
"IPw...4lPm6O.dPI",
"IPc*....,O..2JPI",
"IPPj*......1nPII",
"IIPPcq$..*rBPPII",
"IIIPPPJBBPPPIIII",
"IIIIIIIIIIIIIIII"
};
