/* XPM */
static char *flash_player_properties[] = {
/* columns rows colors chars-per-pixel */
"16 16 179 2 ",
"   c #550202",
".  c #660202",
"X  c #690303",
"o  c #6C0303",
"O  c #700303",
"+  c #730303",
"@  c #770404",
"#  c #7A0404",
"$  c #7D0404",
"%  c #800404",
"&  c #810404",
"*  c #820404",
"=  c #840505",
"-  c #850505",
";  c #860505",
":  c #870505",
">  c #880505",
",  c #890505",
"<  c #8A0505",
"1  c #8B0505",
"2  c #8C0505",
"3  c #8D0505",
"4  c #8E0505",
"5  c #8D0909",
"6  c #8F0909",
"7  c #910505",
"8  c #920606",
"9  c #930606",
"0  c #940606",
"q  c #990606",
"w  c #9B0606",
"e  c #9F0606",
"r  c #900909",
"t  c #910909",
"y  c #920909",
"u  c #900A0A",
"i  c #930A0A",
"p  c #940A0A",
"a  c #950A0A",
"s  c #960A0A",
"d  c #970A0A",
"f  c #980A0A",
"g  c #990A0A",
"h  c #9A0A0A",
"j  c #9B0A0A",
"k  c #9D0A0A",
"l  c #9E0A0A",
"z  c #9F0A0A",
"x  c #A20707",
"c  c #A30707",
"v  c #A60707",
"b  c #A80707",
"n  c #AA0707",
"m  c #AB0707",
"M  c #AD0707",
"N  c #AE0707",
"B  c #A00A0A",
"V  c #A20B0B",
"C  c #A60B0B",
"Z  c #A70B0B",
"A  c #A00C0C",
"S  c #A80B0B",
"D  c #A90B0B",
"F  c #AA0B0B",
"G  c #AE0B0B",
"H  c #AF0B0B",
"J  c #A80D0D",
"K  c #B20808",
"L  c #B30808",
"P  c #B00B0B",
"I  c #B50808",
"U  c #B20C0C",
"Y  c #B30D0D",
"T  c #B50C0C",
"R  c #B70C0C",
"E  c #B90808",
"W  c #BA0808",
"Q  c #BC0808",
"!  c #B80C0C",
"~  c #BD0C0C",
"^  c #BE0D0D",
"/  c #BF0D0D",
"(  c #B11313",
")  c #BB1616",
"_  c #B03939",
"`  c #B53939",
"'  c #C10909",
"]  c #C40909",
"[  c #C00D0D",
"{  c #C50D0D",
"}  c #C60D0D",
"|  c #C70D0D",
" . c #C90909",
".. c #CB0909",
"X. c #C80D0D",
"o. c #CD0E0E",
"O. c #CE0E0E",
"+. c #CF0E0E",
"@. c #D00A0A",
"#. c #D30A0A",
"$. c #D00E0E",
"%. c #D50E0E",
"&. c #D60E0E",
"*. c #D70E0E",
"=. c #D80A0A",
"-. c #DA0A0A",
";. c #DE0B0B",
":. c #D80F0F",
">. c #DC0F0F",
",. c #DD0F0F",
"<. c #DE0F0F",
"1. c #DF0F0F",
"2. c #C31515",
"3. c #C41515",
"4. c #C71414",
"5. c #DE1010",
"6. c #DF1010",
"7. c #E10B0B",
"8. c #E40B0B",
"9. c #E70B0B",
"0. c #E40F0F",
"q. c #E50F0F",
"w. c #E60F0F",
"e. c #E70F0F",
"r. c #E80F0F",
"t. c #E51010",
"y. c #E61010",
"u. c #E71010",
"i. c #EA1010",
"p. c #EB1111",
"a. c #EC1010",
"s. c #ED1010",
"d. c #EC1111",
"f. c #EF1010",
"g. c #EE1111",
"h. c #EF1111",
"j. c #F11111",
"k. c #F21010",
"l. c #F31111",
"z. c #F41010",
"x. c #F51111",
"c. c #F61010",
"v. c #F71010",
"b. c #C33A3A",
"n. c #C83C3C",
"m. c #9F4747",
"M. c #B94949",
"N. c #BE4E4E",
"B. c #CB4040",
"V. c #CA4242",
"C. c #CE4444",
"Z. c #D3A4A4",
"A. c #D6B2B2",
"S. c #DEB3B3",
"D. c #EBB6B6",
"F. c #EABDBD",
"G. c #F4B7B7",
"H. c LightGray",
"J. c #D7D7D7",
"K. c gray86",
"L. c #DFDFDF",
"P. c #E4C3C3",
"I. c #E6C2C2",
"U. c #EEC5C5",
"Y. c #F2C4C4",
"T. c #F3C4C4",
"R. c gray89",
"E. c #E7E7E7",
"W. c gray92",
"Q. c #EFEFEF",
"!. c #F8EFEF",
"~. c #F3F3F3",
"^. c gray97",
"/. c #F9F0F0",
"(. c #FBF1F1",
"). c #FBFBFB",
"_. c #FDFDFD",
"`. c white",
"'. c None",
/* pixels */
"C.F._.).^.~.Q.W.E.R.L.K.J.H.'.'.",
"W I g.j.x.x.x.v.z.z.f.g.r.g.9.9.",
"I N p.g.g.g.f.g.r.g.r.r.e.e.7.;.",
"N v t.t.e.e.r.r.r.e.%.T h ,.=.=.",
"v x 5.5.5.0.,.,.5.$._ S._.%.#.#.",
"e q :.:.%.%.%.%.%.` /._.G.O...] ",
"q 0 $.$.$.$.O.O.^ P._.N.4.| ] ' ",
"8 4 X.X.X.| | | M._./.I.b.^ Q W ",
"< : [ [ [ ^ ^ U Z._.Y.Y.n.T K K ",
": * ! T ! ! r m._.U.4.2.U G n n ",
"$ # K H H H A._.(.B.J D C C x x ",
"@ + C C J J _.D.C.J V V k k e q ",
"o o V k k k ) ( A h h d d d 8 8 ",
"X . d h d d d r d r r 6 6 6 < : ",
"'.  4 4 4 < < < : : < : * : * * ",
"'.'.'.'.'.'.'.'.'.'.'.'.'.'.'.'."
};
