/* XPM */
static char *google_chrome[] = {
/* columns rows colors chars-per-pixel */
"16 16 154 2 ",
"   c #277930",
".  c #247C32",
"X  c #287C31",
"o  c #5B7631",
"O  c #656526",
"+  c #B42B22",
"@  c #D50005",
"#  c #CF071A",
"$  c #D0151C",
"%  c #D61F1F",
"&  c #E60316",
"*  c #E2131C",
"=  c #E31D1A",
"-  c #CF2815",
";  c #DF3E17",
":  c #E91825",
">  c #D32523",
",  c #D72D26",
"<  c #D52F29",
"1  c #DF3D22",
"2  c #DF3B25",
"3  c #DE3D26",
"4  c #D7372F",
"5  c #DB3D32",
"6  c #E12626",
"7  c #E3282A",
"8  c #E32E31",
"9  c #E43536",
"0  c #E43935",
"q  c #E63E37",
"w  c #E63B38",
"e  c #E53E38",
"r  c #DC4337",
"t  c #DA4436",
"y  c #DC4B3D",
"u  c #E64038",
"i  c #E5423A",
"p  c #E93F42",
"a  c #A15F4D",
"s  c #DD5142",
"d  c #DE5847",
"f  c #DF5B49",
"g  c #EA5247",
"h  c #EB5347",
"j  c #EB5749",
"k  c #EB574A",
"l  c #E15D4A",
"z  c #EC5A4B",
"x  c #EE5E59",
"c  c #2C8132",
"v  c #318734",
"b  c #348F36",
"n  c #359136",
"m  c #369136",
"M  c #379837",
"N  c #3B9839",
"B  c #399E38",
"V  c #3BA339",
"C  c #3AA439",
"Z  c #39A73A",
"A  c #3DA53B",
"S  c #30B53E",
"D  c #3FB438",
"F  c #3EB538",
"G  c #5E8729",
"H  c #52AC3A",
"J  c #37AA4B",
"K  c #48AD48",
"L  c #47B642",
"P  c #42B746",
"I  c #40BE46",
"U  c #4AB847",
"Y  c #4BB847",
"T  c #48BB46",
"R  c #4BB048",
"E  c #4CB348",
"W  c #4BB649",
"Q  c #4BB848",
"!  c #4CB849",
"~  c #4DB949",
"^  c #4CBB49",
"/  c #73AD64",
"(  c #48C14B",
")  c #69C561",
"_  c #6CC377",
"`  c #7CCF75",
"'  c #84A715",
"]  c #C99017",
"[  c #CC9316",
"{  c #CC9517",
"}  c #D19D14",
"|  c #DF9A11",
" . c #DEAD0A",
".. c #DFAE0A",
"X. c #D5A111",
"o. c #D3BF1C",
"O. c #E0AE08",
"+. c #E4B603",
"@. c #E9BD00",
"#. c #E3B10C",
"$. c #EBC000",
"%. c #EBC100",
"&. c #ECC001",
"*. c #EBCA00",
"=. c #EBCB00",
"-. c #EBC50B",
";. c #F9CE0D",
":. c #FFD000",
">. c #FED100",
",. c #FFD200",
"<. c #FCD102",
"1. c #FFD203",
"2. c #FFD400",
"3. c #FCD206",
"4. c #FCD207",
"5. c #FDD405",
"6. c #F1D10F",
"7. c #FCD208",
"8. c #FDD308",
"9. c #FFD10A",
"0. c #F8CA11",
"q. c #FDC813",
"w. c #F3D52D",
"e. c #EECC34",
"r. c #FFE140",
"t. c #1562AA",
"y. c #1265AB",
"u. c #1365AB",
"i. c #1063AF",
"p. c #2674BE",
"a. c #2675BF",
"s. c #3B82C5",
"d. c #3C82C5",
"f. c #3E83C7",
"g. c #4083C8",
"h. c #5793CD",
"j. c #5793CE",
"k. c #529AD7",
"l. c #63A1D7",
"z. c #65A2D8",
"x. c #72A9E1",
"c. c #A7BCE3",
"v. c #A4BDE4",
"b. c #A2C8FC",
"n. c #ABCDFF",
"m. c #B3D0F6",
"M. c #B5DBFC",
"N. c #C8EEFF",
"B. c #CAF0FF",
"V. c #F5FCFF",
"C. c #FFFEFD",
"Z. c #FFFFFE",
"A. c white",
"S. c None",
/* pixels */
"S.S.S.S.S.S.S.S.S.S.S.S.S.S.S.S.",
"S.S.S.S.S.y d l f s t S.S.S.S.S.",
"S.S.S., 4 r j z j g 5 < > S.S.S.",
"S.S.& % 0 q i q e w 9 8 $ # S.S.",
"S.S.O : 7 , = x h ; 1 3 2 - S.S.",
"S.Z S + * p A.N.B.A.e.-.6.*.*.S.",
"S.Z ^ o @ A.k.l.l.x.A.<.5.7.%.S.",
"S.V ^ I a M.g.h.h.g.n.r.<.7.%.S.",
"S.B ^ Y / m.p.s.d.a.b.r.<.4.@.S.",
"S.M ^ Y F C.t.t.u.i.A.<.4.4.+.S.",
"S.b Z Y H ) V.b.v.V.w.<.7.%.O.S.",
"S.S.M P I H H ` _ ' 2.4.;.O.S.S.",
"S.S.c n R W Y P H 4.7.0...} S.S.",
"S.S.S.X v N K J o.q.#.X.{ S.S.S.",
"S.S.S.S.S.  . G | [ ] S.S.S.S.S.",
"S.S.S.S.S.S.S.S.S.S.S.S.S.S.S.S."
};
