/* XPM */
static char *help_browser[] = {
/* columns rows colors chars-per-pixel */
"16 16 163 2 ",
"   c #AB1717",
".  c #AB1818",
"X  c #AE1A19",
"o  c #B71A1A",
"O  c #B81A1A",
"+  c #9E3E3B",
"@  c #9E3F3E",
"#  c #A82524",
"$  c #A12E2D",
"%  c #AB2B2A",
"&  c #AD2D2C",
"*  c #AE2F2E",
"=  c #A3302F",
"-  c #A63232",
";  c #A43432",
":  c #C13332",
">  c #C23635",
",  c #C33838",
"<  c #F13C3C",
"1  c #F13E3E",
"2  c #F03F3F",
"3  c #9F413E",
"4  c #A7423F",
"5  c #AA413F",
"6  c #994342",
"7  c #9B4542",
"8  c #A24241",
"9  c #AB4442",
"0  c #AB4544",
"q  c #AC4744",
"w  c #A34B48",
"e  c #B14946",
"r  c #A85352",
"t  c #AF5B58",
"y  c #B95C5B",
"u  c #BB5F5E",
"i  c #B3625D",
"p  c #B76560",
"a  c #F14141",
"s  c #F14545",
"d  c #F14646",
"f  c #F14949",
"g  c #F14B4B",
"h  c #F24B4B",
"j  c #F15B5B",
"k  c #C16A68",
"l  c #C26D6B",
"z  c #CE7372",
"x  c #CF7472",
"c  c #CD7676",
"v  c #F26060",
"b  c #F26767",
"n  c #F26B6A",
"m  c #F06F6E",
"M  c #F37171",
"N  c #F57070",
"B  c #F47272",
"V  c #F47F7E",
"C  c #8A8C86",
"Z  c #8B8D88",
"A  c #8D908B",
"S  c #90928D",
"D  c #92958F",
"F  c #989A94",
"G  c #9E9F9C",
"H  c #9EA19A",
"J  c #9EA09C",
"K  c #A1A39D",
"L  c #BFA09E",
"P  c #A3A5A0",
"I  c #A6A8A2",
"U  c #A7A9A3",
"Y  c #ADAFA8",
"T  c #AEB1AB",
"R  c #B0B3AD",
"E  c #B2B4B0",
"W  c #B4B8B1",
"Q  c #B7BAB4",
"!  c #B9BCB5",
"~  c #BABDB7",
"^  c #C09C9A",
"/  c #F58383",
"(  c #F38585",
")  c #F28686",
"_  c #F48484",
"`  c #F08886",
"'  c #F38888",
"]  c #F68A8A",
"[  c #F48E8E",
"{  c #EC9E9B",
"}  c #F59797",
"|  c #F79696",
" . c #F59D9D",
".. c #C1A09D",
"X. c #EDA19F",
"o. c #C3A7A5",
"O. c #C6AAA6",
"+. c #C7ABA7",
"@. c #D2B9B6",
"#. c #F0A3A2",
"$. c #F1A9A8",
"%. c #BEC2BA",
"&. c #C4C5C0",
"*. c #C6C9C2",
"=. c #C7CAC3",
"-. c #C9CCC5",
";. c #CBCFC7",
":. c #D0C5C1",
">. c #CDD1C9",
",. c #D2D4CF",
"<. c #DED2CF",
"1. c #D3D5D0",
"2. c #D5D7D3",
"3. c #DBDED8",
"4. c #DBDFD8",
"5. c #F5C5C4",
"6. c #F9C5C5",
"7. c #F8C8C7",
"8. c #F6CDCD",
"9. c #F4CFCE",
"0. c #FACFCF",
"q. c #FBCFCF",
"w. c #E4D9D6",
"e. c #E9DEDC",
"r. c #F8D8D7",
"t. c #F7DADA",
"y. c #FBDCDC",
"u. c #DFE1DC",
"i. c #E0E1DE",
"p. c #E2E4E0",
"a. c #E8EAE6",
"s. c #E9EAE7",
"d. c #ECEDEA",
"f. c #F7E3E2",
"g. c #FAE4E4",
"h. c #FCE6E6",
"j. c #F2E8E7",
"k. c #F3E9E7",
"l. c #F9E9E8",
"z. c #F9EFEE",
"x. c #EFF0ED",
"c. c #EFF1EE",
"v. c #F0F1EE",
"b. c #F1F2F0",
"n. c #F2F2F0",
"m. c #F2F2F1",
"M. c #F3F4F3",
"N. c #F7F5F4",
"B. c #F6F6F5",
"V. c #F7F7F6",
"C. c #F9F1F0",
"Z. c #F8F8F7",
"A. c #F9F8F7",
"S. c #FAFAF9",
"D. c #FBFBFA",
"F. c #FBFBFB",
"G. c #FDF9F9",
"H. c gray99",
"J. c #FCFDFC",
"K. c #FDFDFD",
"L. c #FEFCFC",
"P. c #FEFEFE",
"I. c None",
/* pixels */
"I.I.I.I.I.>.>.-.*.*.&.I.I.I.I.I.",
"I.I.I.p & e.B.P.P.b.w.% t I.I.I.",
"I.I.e l g.q.S.A.Z.S.q.r.y 9 I.I.",
"I.i k h.B < k.v.b.k.2 _ y.y r I.",
"I.& t.m a j x ~ Q x b g _ 9.# I.",
"%.<.6.1 v O 0 I.I.9 o M s 7.:.K ",
"~ s.P.z.x 0 I.I.I.I.5 c C.P.i.H ",
"W b.P.S.E I.I.I.I.I.I.I D.P.d.F ",
"T x.Z.D.T I.I.I.I.I.I.P P.A.a.D ",
"T e.v.D.^ 8 I.I.I.I.@ L D.v.2.A ",
"I @.$.n 5.- 4 I.I.+ ; f.) #.+.C ",
"I.. | g V 9...J G o.l. .s ' . I.",
"I.w , | g m N.D.H.S.` s ] : 7 I.",
"I.I.; > [ X.4.4.3.3.{ ) : $ I.I.",
"I.I.I.7 . O.1.p.i.1.O.  6 I.I.I.",
"I.I.I.I.I.C A Z Z A Z I.I.I.I.I."
};
