/* XPM */
static char *help_about[] = {
/* columns rows colors chars-per-pixel */
"16 16 89 1 ",
"  c #C3A001",
". c #C4A001",
"X c #C4A101",
"o c #C5A301",
"O c #C6A200",
"+ c #C6A201",
"@ c #C4A102",
"# c #C6A102",
"$ c #C4A303",
"% c #C6A302",
"& c #C6A203",
"* c #C6A303",
"= c #C7A303",
"- c #C7A403",
"; c #C5A204",
": c #C6A304",
"> c #C7A305",
", c #C7A404",
"< c #C6A406",
"1 c #C8A304",
"2 c #C8A305",
"3 c #C6A408",
"4 c #C8A60A",
"5 c #C8A70B",
"6 c #C9A70B",
"7 c #C8A70C",
"8 c #C8A90C",
"9 c #CBA90E",
"0 c #CCAC16",
"q c #CCAE19",
"w c #CBAC1C",
"e c #D0B017",
"r c #CCAD21",
"t c #CFB225",
"y c #D0B227",
"u c #D7C026",
"i c #D9C029",
"p c #E2D03C",
"a c #E4D13D",
"s c #D6BD46",
"d c #DCC544",
"f c #DEC842",
"g c #DFCA55",
"h c #E7D544",
"j c #E9D84F",
"k c #E2CF57",
"l c #E8D753",
"z c #E2D059",
"x c #EBDB58",
"c c #E3D260",
"v c #E8D963",
"b c #ECDD62",
"n c #E9DA69",
"m c #EADB6A",
"M c #EADC6F",
"N c #ECDF6F",
"B c #E9DB72",
"V c #E7D578",
"C c #E7D57B",
"Z c #EFE16F",
"A c #EFE273",
"S c #EDE076",
"D c #EFE277",
"F c #ECE07C",
"G c #F1E477",
"H c #F1E478",
"J c #E9DD8B",
"K c #E9DC8C",
"L c #EFE380",
"P c #F2E78F",
"I c #F4E988",
"U c #F6EA8D",
"Y c #F6EB8E",
"T c #F0E692",
"R c #F0E596",
"E c #F1E796",
"W c #F4EB9E",
"Q c #F4EBAC",
"! c #F5EDAC",
"~ c #FAF1A2",
"^ c #FBF2AB",
"/ c #F9F2C0",
"( c #FAF4C7",
") c #FCF8D6",
"_ c #FAF6D8",
"` c #FBF7DC",
"' c #FAF7DF",
"] c #FDFCF0",
"[ c None",
/* pixels */
"[[[[[[[@[[[[[[[[",
"[[[[[[@s@[[[[[[[",
"[[[[[[r'w[[[[[[[",
"[[[[[@J]J1[[[[[[",
"[[[[[4'Q`:[[[[[[",
"[[[@@V^Y)C@@[[[[",
"[@8dR!I~^(Qk4@[[",
"@ymMlxGYYHGTBy@[",
"[,wfFSbZGPEke-[[",
"[[[-4zNjLz9-[[[[",
"[[[[[<vaM-[[[[[[",
"[[[[[@ipy-[[[[[[",
"[[[[[[9h8[[[[[[[",
"[[[[[[2e,[[[[[[[",
"[[[[[[[@[[[[[[[[",
"[[[[[[[[[[[[[[[["
};
