/* XPM */
static char *HelpViewer[] = {
/* columns rows colors chars-per-pixel */
"16 16 31 1 ",
"  c black",
". c #704400",
"X c #4A514A",
"o c #636163",
"O c #AD6900",
"+ c #E78A00",
"@ c #FF9600",
"# c #F79E00",
"$ c #FF9A00",
"% c #FF9E08",
"& c #FF8A10",
"* c #F7A600",
"= c #FFA200",
"- c #FFAE00",
"; c #FFB200",
": c #FFB600",
"> c #E7A618",
", c #FFB618",
"< c #F7AE21",
"1 c #FFC731",
"2 c #FFC752",
"3 c #FFC75A",
"4 c #FFD36B",
"5 c #848A84",
"6 c #949694",
"7 c #DEC38C",
"8 c #FFF3EF",
"9 c #FFF7F7",
"0 c #FFFBF7",
"q c white",
"w c None",
/* pixels */
"wwwwo        www",
"wwww *;;--=$& ww",
"wwwoO;1qq.$$&q w",
"www *:q..q.&8q w",
"wwo+;;.23q.&qoXw",
"ww *;;4q4.&0q 5w",
"woO;;,q..$&qoXww",
"w #;->.$$&8q 6ww",
"o+;;-q.@$&qoXwww",
" 77--..$&9q 5www",
"X o77<%$&qoXwwww",
"5XX o77&qq 6wwww",
"w55XX o7qoXwwwww",
"www55XX oX5wwwww",
"wwwww55XX5wwwwww",
"wwwwwww55wwwwwww"
};
