/* XPM */
static char *internet_mail[] = {
/* columns rows colors chars-per-pixel */
"16 16 131 2 ",
"   c #797979",
".  c gray48",
"X  c #7B7B7B",
"o  c gray49",
"O  c #7F7C7C",
"+  c #7E7E7E",
"@  c gray50",
"#  c #E5352E",
"$  c #E53A33",
"%  c #E53A34",
"&  c #E63B34",
"*  c #A85F5D",
"=  c #A9615E",
"-  c #617B98",
";  c #637D99",
":  c #657E9A",
">  c #427FC4",
",  c #7F8081",
"<  c #66809C",
"1  c #4280C4",
"2  c #4782C5",
"3  c #4783C5",
"4  c #4884C6",
"5  c #818181",
"6  c #828080",
"7  c gray51",
"8  c #838383",
"9  c #898989",
"0  c #909090",
"q  c #969799",
"w  c #9F9F9F",
"e  c #A0A0A0",
"r  c gray63",
"t  c gray64",
"y  c #A4A4A4",
"u  c #A1A4A8",
"i  c #A7A8AA",
"p  c gray68",
"a  c #B2B2B2",
"s  c gray72",
"d  c gray74",
"f  c #EBB0B0",
"g  c #E7BABD",
"h  c #F3B9B6",
"j  c #92B5DE",
"k  c #9DBAE0",
"l  c #A7C1E4",
"z  c #A8C1E0",
"x  c #B5CBE5",
"c  c #BCCFE5",
"v  c #B4CCE8",
"b  c #B9CFE9",
"n  c #D3D4D5",
"m  c #F4C4C2",
"M  c #E3D7DE",
"N  c #C0D4EA",
"B  c #CADBED",
"V  c #D8E1EB",
"C  c #DFE3EA",
"Z  c #DDE5F0",
"A  c #DDE6F0",
"S  c #E3E3E5",
"D  c #E3E5ED",
"F  c #E3E6EC",
"G  c #E1E6EE",
"H  c #E2E7EE",
"J  c #E2E7EF",
"K  c #E7E9EB",
"L  c #E4E8EF",
"P  c #E9EBED",
"I  c #ECEAED",
"U  c #EDEAEF",
"Y  c #F5E7E8",
"T  c #E4E9F0",
"R  c #E6E9F0",
"E  c #E6EAF1",
"W  c #E6EBF1",
"Q  c #EAEBF0",
"!  c #E8ECF1",
"~  c #E8ECF2",
"^  c #E9ECF2",
"/  c #E9EDF2",
"(  c #E8EDF3",
")  c #EAEDF3",
"_  c #EBEEF2",
"`  c #EAEEF3",
"'  c #EDEFF1",
"]  c #ECEFF3",
"[  c #EDEFF3",
"{  c #EBEFF4",
"}  c #EDF0F4",
"|  c #EFF1F4",
" . c #EFF2F6",
".. c #EDF2F9",
"X. c #F0F0F1",
"o. c #F3F3F3",
"O. c #F6F1F3",
"+. c #F0F2F6",
"@. c #F0F2F7",
"#. c #F2F4F5",
"$. c #F1F4F7",
"%. c #F2F4F7",
"&. c #F4F4F4",
"*. c gray96",
"=. c #F4F5F6",
"-. c #F4F5F7",
";. c #F6F6F6",
":. c gray97",
">. c #F9F4F3",
",. c #FDF8F7",
"<. c #F4F6F8",
"1. c #F4F6F9",
"2. c #F5F7F9",
"3. c #F7F9FA",
"4. c #F8F8F8",
"5. c #F9F9F9",
"6. c #FAF8F8",
"7. c #F8F9FB",
"8. c #F9F9FB",
"9. c #F9FAFB",
"0. c gray98",
"q. c #FBFBFB",
"w. c #FCFAFA",
"e. c #F9FAFC",
"r. c #FBFBFC",
"t. c #FBFCFD",
"y. c gray99",
"u. c #FDFDFD",
"i. c #FDFDFE",
"p. c #FEFEFE",
"a. c None",
/* pixels */
"a.a.a.a.a.a.a.a.a.a.a.a.a.a.a.a.",
"a.a.a.a.a.a.a.a.a.a.a.a.a.a.a.a.",
"a.a.a.a.a.a.a.a.a.a.a.a.a.a.a.a.",
"  { ] # 1.e.4 u.w.& w.9.1 1.$.8 ",
"  R ! f 1.9.N u.w.h q.0.x ] ! 8 ",
"; 3 A $.3.u.u.u.0.9.X.j l V 2 : ",
"o {  .1.t.u.u.w.;.$.U j v H H 8 ",
"o @.<.S u.:.9.o.4.$.U z b C R o ",
"= & Y a 0 9 d w y n } ! L M & = ",
"= o.e.:.:.o.9.:.X.K } L H R I O ",
"< t.u.p w s r t i q u H T { @.o ",
"< 1 ..B w.6.m $.} c L F g C > - ",
", u.u.4 9.>.& :.{ 3 { I & 1.e.  ",
"a.a.a.a.a.a.a.a.a.a.a.a.a.a.a.a.",
"a.a.a.a.a.a.a.a.a.a.a.a.a.a.a.a.",
"a.a.a.a.a.a.a.a.a.a.a.a.a.a.a.a."
};
