/* XPM */
static char *kaffeine[] = {
/* columns rows colors chars-per-pixel */
"16 16 145 2 ",
"   c black",
".  c #090909",
"X  c #0B0B0B",
"o  c gray6",
"O  c gray8",
"+  c #151515",
"@  c #161616",
"#  c #181818",
"$  c #1D1D1D",
"%  c gray12",
"&  c #2A1313",
"*  c #311212",
"=  c gray13",
"-  c gray14",
";  c #252525",
":  c #2C2C2C",
">  c #2D2D2D",
",  c #2F2F2F",
"<  c #323232",
"1  c #343434",
"2  c gray22",
"3  c #393939",
"4  c #3A3A3A",
"5  c #3D3D3C",
"6  c gray24",
"7  c #3E3E3E",
"8  c #3F3F3F",
"9  c #421717",
"0  c #421C1C",
"q  c #4C1A1A",
"w  c #4F1B1B",
"e  c #491F1F",
"r  c #582626",
"t  c #523F3F",
"y  c #642525",
"u  c #6D2727",
"i  c #732B2B",
"p  c #742E2E",
"a  c #792E2E",
"s  c #7D2F2F",
"d  c #6E3F3F",
"f  c #793838",
"g  c gray25",
"h  c #434040",
"j  c gray26",
"k  c #444443",
"l  c gray27",
"z  c gray29",
"x  c #4B4B4B",
"c  c #4C4C4C",
"v  c #4E4E4E",
"b  c gray31",
"n  c #50514F",
"m  c #505050",
"M  c #515150",
"N  c #515151",
"B  c gray32",
"V  c #565656",
"C  c gray37",
"Z  c #5F5F5F",
"A  c #6A5959",
"S  c #646464",
"D  c gray40",
"F  c #676767",
"G  c #686868",
"H  c gray42",
"J  c #6C6C6C",
"K  c gray43",
"L  c #727272",
"P  c #777777",
"I  c #777876",
"U  c #797979",
"Y  c #7B7B7B",
"T  c #832F2F",
"R  c #813131",
"E  c #833030",
"W  c #853131",
"Q  c #863232",
"!  c #803434",
"~  c #893434",
"^  c #8A3535",
"/  c #8A3636",
"(  c #8C3737",
")  c #803939",
"_  c #843A3A",
"`  c #8D3838",
"'  c #8E3939",
"]  c #8F3939",
"[  c #903B3B",
"{  c #913B3B",
"}  c #913C3C",
"|  c #923D3D",
" . c #943E3E",
".. c #953F3F",
"X. c #963F3F",
"o. c #894545",
"O. c #8B4C4C",
"+. c #8E4E4E",
"@. c #954242",
"#. c #914545",
"$. c #974444",
"%. c #984242",
"&. c #9A4343",
"*. c #9B4444",
"=. c #9B4747",
"-. c #9E4646",
";. c #9F4747",
":. c #944F4F",
">. c #9A4949",
",. c #9B5656",
"<. c #935E5E",
"1. c #A14949",
"2. c #A14C4C",
"3. c #A44C4C",
"4. c #A95050",
"5. c #AB5252",
"6. c #AD5353",
"7. c #AF5757",
"8. c #877373",
"9. c #987D7D",
"0. c #B47D7D",
"q. c #818181",
"w. c #838383",
"e. c gray52",
"r. c #868686",
"t. c #929292",
"y. c #B78080",
"u. c #BB8C8C",
"i. c #A7A7A7",
"p. c #A9A9A9",
"a. c gray67",
"s. c #B2B2B2",
"d. c gray73",
"f. c #C49999",
"g. c #C0C0C0",
"h. c #C6C6C6",
"j. c gray80",
"k. c gray81",
"l. c gray82",
"z. c gainsboro",
"x. c gray88",
"c. c #EAEAEA",
"v. c gray95",
"b. c white",
"n. c None",
/* pixels */
"n.n.n.n.n.n.n.n.n.n.H n.n.n.n.n.",
"n.n.n.n.n.n.n.D K p.e.6 n.n.n.n.",
"n.n.n.n.n.D w.w.p.V n.n.n.n.n.n.",
"n.n.2 N s.S i.x n.n.n.n.n.n.n.n.",
"% l N N P n.n.n.n.n.V N n.n.n.n.",
"O b x l x L C P A d <.9.n.n.n.n.",
"n.j C j K e.K t u R {  .0.n.n.n.",
"n.6 6 2 < , , e T _ =.6.1.y.n.n.",
"n.2 N n b x j q ~ @.o.7.5.*.f.n.",
"n.1 2 n k 5 ; q ~ %.:.>.4.-.{ n.",
"n., ; = % O O e ~ @.1.O.3.-.| u.",
"n.- N I t.h.v.8.s | =.+.=.%.| ,.",
"n.% k.j.c.b.b.g.r (  .#.f  .] T ",
"n.O l.z.z.d.Y 2 & i ` { f { ( T ",
"n.o D 6 X         * a ~ ! p Q n.",
"n.X   n.n.n.n.n.n.n.9 y Q n.n.n."
};
