/* XPM */
static char *kgoldrunner[] = {
/* columns rows colors chars-per-pixel */
"16 16 72 1 ",
"  c black",
". c #010100",
"X c #151202",
"o c #281F03",
"O c #2C1C02",
"+ c #342A05",
"@ c #332D04",
"# c #2A2511",
"$ c #483C07",
"% c #514607",
"& c #594212",
"* c #5F4D17",
"= c #6A5409",
"- c #786418",
"; c #484B35",
": c #8B6406",
"> c #8B6C0D",
", c #916A06",
"< c #95720E",
"1 c #967A0C",
"2 c #9D7B0B",
"3 c #84781E",
"4 c #8E7D1B",
"5 c #A17E11",
"6 c #887F26",
"7 c #9A861B",
"8 c #AE8C0B",
"9 c #B88703",
"0 c #BE8D08",
"q c #BFA112",
"w c #8E8334",
"e c #A1942E",
"r c #B89D2F",
"t c #BDA026",
"y c #C29E0D",
"u c #D19F04",
"i c #D9A90F",
"p c #C3A414",
"a c #C3A514",
"s c #C2A416",
"d c #CCAF14",
"f c #C3A91C",
"g c #C3A91D",
"h c #C8AC1C",
"j c #CEB215",
"k c #CEB216",
"l c #CBB619",
"z c #CAB41E",
"x c #D0B211",
"c c #D2B510",
"v c #D1B612",
"b c #D0B912",
"n c #C1AC24",
"m c #CFBE22",
"M c #D6C117",
"N c #DDC413",
"B c #DCC714",
"V c #D6C01F",
"C c #DCC81A",
"Z c #D1C021",
"A c #D7C53D",
"S c #E6CD21",
"D c #E3CA26",
"F c #E7D732",
"G c #E7D439",
"H c #F1EB3B",
"J c #DCC94D",
"K c #ECDE45",
"L c #E9DB5E",
"P c #EDE050",
"I c #F4F094",
"U c None",
/* pixels */
"UUUUUUUUUUUUUUUU",
"UUUUUUUUUUU3w6UU",
"UUUUUUUUU4-&e;UU",
"UUUUUUUUUU*7IZUU",
"UUUUUUUCPFp2LUUU",
"UUUUUUKq:,GpUUUU",
"UUJzUUBU8xHyU9UU",
"UmVrU>l#bvgiuUUU",
"UUUtM+o.@UU0UUUU",
"UUUUv1XO.$UUUUUU",
"UUUU5UU=%NsUUUUU",
"UUUUUUUUUjDAUUUU",
"UUUUUUUUUUjSjUnU",
"UUUUUUUUUUUU<hgU",
"UUUUUUUUUUUUUUUU",
"UUUUUUUUUUUUUUUU"
};
