/* XPM */
static char *kmahjongg[] = {
/* columns rows colors chars-per-pixel */
"16 16 146 2 ",
"   c #2A0400",
".  c #2D0400",
"X  c #300300",
"o  c #370400",
"O  c #380300",
"+  c #3C0300",
"@  c #390400",
"#  c #3A0500",
"$  c #3A0700",
"%  c #3E0500",
"&  c #3D0700",
"*  c #3E0700",
"=  c #3F0700",
"-  c #3B0800",
";  c #3C0800",
":  c #460700",
">  c #480600",
",  c #480700",
"<  c #490700",
"1  c #440800",
"2  c #4B0800",
"3  c #4D0800",
"4  c #4F0900",
"5  c #4E0801",
"6  c #4F0901",
"7  c #500801",
"8  c #510801",
"9  c #510901",
"0  c #520900",
"q  c #540900",
"w  c #540801",
"e  c #560800",
"r  c #560900",
"t  c #570901",
"y  c #550A01",
"u  c #560A01",
"i  c #580800",
"p  c #580900",
"a  c #590900",
"s  c #5B0900",
"d  c #5B0901",
"f  c #580A00",
"g  c #5A0A01",
"h  c #5A0B02",
"j  c #5D0900",
"k  c #5E0A00",
"l  c #5F0B00",
"z  c #5E0A01",
"x  c #5F0B01",
"c  c #5E0F06",
"v  c #620900",
"b  c #610A00",
"n  c #630A00",
"m  c #630A01",
"M  c #640B00",
"N  c #670B00",
"B  c #600D03",
"V  c #650C00",
"C  c #670C00",
"Z  c #600E04",
"A  c #6E0B00",
"S  c #680C00",
"D  c #6A0C00",
"F  c #6B0C00",
"G  c #6C0C00",
"H  c #6F0D00",
"J  c #6C0E00",
"K  c #6F0E01",
"L  c #710D00",
"P  c #730F00",
"I  c #750E00",
"U  c #760E00",
"Y  c #770F00",
"T  c #790E00",
"R  c #7D0F00",
"E  c #611008",
"W  c #761000",
"Q  c #781000",
"!  c #7B1001",
"~  c #7B1002",
"^  c #7C1000",
"/  c #7D1100",
"(  c #7F1000",
")  c #7B1304",
"_  c #711509",
"`  c #7A1709",
"'  c #7A1B0D",
"]  c #801000",
"[  c #811100",
"{  c #861202",
"}  c #891200",
"|  c #8C1200",
" . c #8D1200",
".. c #8D1300",
"X. c #8D1401",
"o. c #8F1606",
"O. c #8D1B0A",
"+. c #8E1C0B",
"@. c #8E1D0D",
"#. c #8D1E0C",
"$. c #901400",
"%. c #921400",
"&. c #981E0A",
"*. c #801E11",
"=. c #93200F",
"-. c #872111",
";. c #862313",
":. c #8C2313",
">. c #852C1F",
",. c #8B4238",
"<. c #9A4B40",
"1. c #975248",
"2. c #9B5348",
"3. c #9A554B",
"4. c #9F564A",
"5. c #965951",
"6. c #9A5950",
"7. c #AE6154",
"8. c #A7665C",
"9. c #AC6E64",
"0. c #AD6F65",
"q. c #BB776B",
"w. c #BA796E",
"e. c #A87F79",
"r. c #BE8379",
"t. c #C09D97",
"y. c #C7A59E",
"u. c #CBA49C",
"i. c #D1B6B1",
"p. c #D0BAB5",
"a. c #D4BDB8",
"s. c #D6C3C0",
"d. c #DECEC9",
"f. c #DED1CD",
"g. c #E0D3CF",
"h. c #E4DCD9",
"j. c #E4DDDA",
"k. c #E8E3E0",
"l. c #E8E4E1",
"z. c #E9E5E2",
"x. c #EBE8E6",
"c. c #EBE9E7",
"v. c #ECE9E7",
"b. c #EDECEA",
"n. c #EEEEEC",
"m. c None",
/* pixels */
"m.m.m.m.m.m.m.m.m.m.m.m.m.m.m.m.",
"m.m.m.@.#.@.&.` E c B B # m.m.m.",
"m.m.*.Y ^ [ 7.r.O.^ m h X   m.m.",
"m.m.' R W T 4.n.=...$.X.; . m.m.",
"m.m._ Y ;.T <.b.0.u.q...3 - m.m.",
"m.m.o.) j.z.k.x.u.g.z.;.7 ; m.m.",
"m.m.{ $.w.a.1.j.2.f.0.^ 3 # m.m.",
"m.m.A ^ :.x.v.x.i.t.>.W 3 ; m.m.",
"m.m.N D H 3.8.d.R ..^ H 7 1 m.m.",
"m.m.m i D H 6.s.Y T } } u 1 m.m.",
"m.m.d N h N 6.p.F F H Q d 3 m.m.",
"m.m.w m h d ,.e.C F N C d 7 m.m.",
"m.m.+ > h u m d i h N C B 7 m.m.",
"m.m.m.: > > 3 7 w u h d L u m.m.",
"m.m.m.m.o O O 1 > 7 h d m u m.m.",
"m.m.m.m.m.m.m.m.m.m.m.m.m.m.m.m."
};
