/* XPM */
static char *knetwalk[] = {
/* columns rows colors chars-per-pixel */
"16 16 155 2 ",
"   c #05F023893A17",
".  c #068523EB3A11",
"X  c #077226F13D4E",
"o  c #20DF31823BAA",
"O  c #031F27BA41AC",
"+  c #003027C74363",
"@  c #062D2AA04151",
"#  c #06DA2A0745CF",
"$  c #06D52EF04828",
"%  c #155F2F6D4304",
"&  c #091130514664",
"*  c #108530CD4755",
"=  c #1E3E34ED43DA",
"-  c #1CC935D846C2",
";  c #1F3E39054C3C",
":  c #19B83BBC4D46",
">  c #08183A0B5425",
",  c #23733C304AA1",
"<  c #36093E3C428A",
"1  c #0F5441055930",
"2  c #1F7F41695079",
"3  c #1AC045E756B6",
"4  c #139942A75B32",
"5  c #191F43265E14",
"6  c #30C5401045AB",
"7  c #38ED4398482F",
"8  c #3B9F47814E13",
"9  c #20A340FC5466",
"0  c #2200430F5785",
"q  c #285542515413",
"w  c #2CFD446656B6",
"e  c #2D2F50295CE6",
"r  c #098446E16474",
"t  c #0F4C4F466C5C",
"y  c #0E0D4F5E6D8B",
"u  c #10C8435F6066",
"i  c #0FBD48B0638C",
"p  c #10384C036766",
"a  c #167C52056C09",
"s  c #158B4F81716B",
"d  c #0B535D977E45",
"f  c #10CD59AB7711",
"g  c #111B5C907FEB",
"h  c #1BFD5E277DD5",
"j  c #22954D0B6474",
"k  c #21E04C116729",
"l  c #20FD516F66E8",
"z  c #20DB52906AD3",
"x  c #3D8D540C6411",
"c  c #2A8A56697120",
"v  c #26B659AF7316",
"b  c #22875C257CF7",
"n  c #30645E2E75A1",
"m  c #3BD361837596",
"M  c #3F9060557533",
"N  c #35D368587FA7",
"B  c #4A124EAD5168",
"V  c #4A525057530F",
"C  c #41C957126690",
"Z  c #41755A586CC7",
"A  c #4858631F7071",
"S  c #59BB6A1E7166",
"D  c #59396EAD7E60",
"F  c #5E80722B7E44",
"G  c #640B671567B3",
"H  c #656B685A68C4",
"J  c #6D0C6F926F61",
"K  c #658375837B09",
"L  c #7437764476FE",
"P  c #17F15F638612",
"I  c #20DA5DCC81EC",
"U  c #098562D88815",
"Y  c #1E3D6EE68E38",
"T  c #29FB637582EA",
"R  c #25D368FA832A",
"E  c #263263FC89DE",
"W  c #2C5267CA8973",
"Q  c #2F5D67478831",
"!  c #2FB863FD810C",
"~  c #2CA573419F01",
"^  c #3A2279619347",
"/  c #31BB746F9B4D",
"(  c #4067694781A6",
")  c #415A6FFC8349",
"_  c #464D720180C7",
"`  c #4E6D713C87DF",
"'  c #51F6784986AF",
"]  c #46A779DE99B0",
"[  c #6134765B84E7",
"{  c #62967E029110",
"}  c #32B782289E94",
"|  c #3AC084EA9E70",
" . c #38AA824FB0E8",
".. c #661083029652",
"X. c #6B3D89369700",
"o. c #67CE87909A94",
"O. c #74F684629098",
"+. c #76E1862E91C1",
"@. c #7BF588A092D7",
"#. c #7D2C8DBD9A55",
"$. c #789292A89EC7",
"%. c #48948246A592",
"&. c #50E28BA8A1EB",
"*. c #527E9056A66D",
"=. c #4E6393F6C00B",
"-. c #6F63933FA0A4",
";. c #7A1F91A7A0D4",
":. c #789F9DBFAA2F",
">. c #78369F0DB016",
",. c #6F1997C1B1FB",
"<. c #3E6F8E5BC07E",
"1. c #4EC698F7C7CD",
"2. c #52399E5DCE9B",
"3. c #6C63A22AC4A9",
"4. c #84128F979952",
"5. c #839396DD9D59",
"6. c #853C98D09F94",
"7. c #90D0970E9908",
"8. c #913D974C9923",
"9. c #9AF399E5994C",
"0. c #A21B9C888C5A",
"q. c #BECDAE01814B",
"w. c #A917A1A59EF9",
"e. c #84539D90AA9E",
"r. c #92ACA3EBA97F",
"t. c #94D9A0BCA9EB",
"y. c #9A42A5EAAA21",
"u. c #9CB7A7E9AB61",
"i. c #96A4ACC3AC4A",
"p. c #8DA4A7BFB093",
"a. c #8C63ABF6B699",
"s. c #A331AC46A9F0",
"d. c #AF99AC24AAFF",
"f. c #B193ADBCA34F",
"g. c #AB1DAE2FB146",
"h. c #ADF5B485B6B2",
"j. c #AAE1B5C6B96C",
"k. c #AEA9B66EBAAF",
"l. c #B838BBF8BD09",
"z. c #E15ED1AF9D1F",
"x. c #C32FC14DC00F",
"c. c #D144C7ECB7CE",
"v. c #8F27B207C0ED",
"b. c #8F0EB278C18C",
"n. c #9739B6BEC2C6",
"m. c #913FB1D7C683",
"M. c #9639B35CC5ED",
"N. c #98F9B873C26A",
"B. c #A5ABBA90C763",
"V. c #BB0EC262C6FF",
"C. c #BC87C299C667",
"Z. c #CA47CC39C47E",
"A. c #C439CCBCD046",
"S. c #CA05D4A8D9E6",
"D. c None",
/* pixels */
"D.D.D.D.D.D.D.D.D.D.D.D.D.D.D.D.",
"D.D.D.D.D.D.D.b.b.D.D.D.D.D.D.D.",
"D.D.D.D.# F A.V.C.k.j.X.D.D.D.D.",
"D.D.D.O C g.4.O.#.@.t.M./ D.D.D.",
"D.D.O ; +.b...[ >.3.D { 1.s D.D.",
"D.D.X w Z 2.1.] ( %.n x ` 5 P D.",
"D.q . % k <. .T ! v z j 0 c W D.",
"L -   @ I ~ E I ! t f a > 0 m D.",
"G - * 4 n o.;.A _ &.>.B.! ; 8 D.",
"J o $ i l S :.p.N.s.0.q.-.4 , D.",
"D.V & y d ' a.y.f.c.Z.z.i.r u D.",
"D.G 7 2 3 K w.7.h.S.N.*.R p D.D.",
"D.D.B < 6 e 6.u.d.8.7.5.) D.D.D.",
"D.D.D.D.h Y } | t.Z.l.;.D.D.D.D.",
"D.D.D.D.D.D.g U ^ e.D.D.D.D.D.D.",
"D.D.D.D.D.D.D.D.D.D.D.D.D.D.D.D."
};
