/* XPM */
static char *kshisen[] = {
/* columns rows colors chars-per-pixel */
"16 16 204 2 ",
"   c #6E4327",
".  c #754A2D",
"X  c #875B3D",
"o  c #925B36",
"O  c #925E39",
"+  c #99633D",
"@  c #9C653D",
"#  c #9D6640",
"$  c #9C6741",
"%  c #9F6943",
"&  c #9F6B46",
"*  c #9E6D49",
"=  c #A06B46",
"-  c #A16E49",
";  c #A16F4A",
":  c #A46F4C",
">  c #A6744E",
",  c #BB794A",
"<  c #BC7A4C",
"1  c #BE7C4D",
"2  c #BF7E4F",
"3  c #A77250",
"4  c #AA7553",
"5  c #A97652",
"6  c #AA7A56",
"7  c #AE7855",
"8  c #AC7A56",
"9  c #AD7D58",
"0  c #C17D4C",
"q  c #C37E4E",
"w  c #C57C4D",
"e  c #E87F55",
"r  c #8A9A3A",
"t  c #929640",
"y  c #9B9744",
"u  c #979E43",
"i  c #AF805C",
"p  c #B4815A",
"a  c #B9845F",
"s  c #93A24B",
"d  c #92A14C",
"f  c #A1A755",
"g  c #A0A857",
"h  c #B3A161",
"j  c #B8A061",
"k  c #C4804F",
"l  c #C6804F",
"z  c #C7814F",
"x  c #C68251",
"c  c #C58353",
"v  c #C78454",
"b  c #C88355",
"n  c #CC8959",
"m  c #CF8A58",
"M  c #CC8B5B",
"N  c #CF8C5C",
"B  c #D08B58",
"V  c #F38949",
"C  c #F58E4D",
"Z  c #F48F4D",
"A  c #F5914E",
"S  c #F1885C",
"D  c #EE9856",
"F  c #EE9A58",
"G  c #EA995F",
"H  c #F39357",
"J  c #F29456",
"K  c #F89553",
"L  c #F79B56",
"P  c #FA9852",
"I  c #F59F5B",
"U  c #FB9F5B",
"Y  c #F7B654",
"T  c #F7B658",
"R  c #FAB058",
"E  c #C38F67",
"W  c #C59067",
"Q  c #CE9561",
"!  c #C39E60",
"~  c #C5916A",
"^  c #C6916B",
"/  c #C89268",
"(  c #C8956C",
")  c #D19060",
"_  c #D29161",
"`  c #D49365",
"'  c #D59664",
"]  c #DD9764",
"[  c #D19B67",
"{  c #DD9A65",
"}  c #DF9967",
"|  c #D7976A",
" . c #DB976A",
".. c #DA9B6A",
"X. c #DE9A6B",
"o. c #D8996C",
"O. c #D89B6E",
"+. c #DF9F6E",
"@. c #DF9D70",
"#. c #DC9F72",
"$. c #E98C63",
"%. c #E19765",
"&. c #E19967",
"*. c #E59B65",
"=. c #E19C69",
"-. c #E29C69",
";. c #E29E6C",
":. c #E69F6D",
">. c #EB9E6C",
",. c #EC9E6C",
"<. c #E09F72",
"1. c #F59C72",
"2. c #F99979",
"3. c #C1A363",
"4. c #DCA573",
"5. c #DEA275",
"6. c #DFA277",
"7. c #D6AC7A",
"8. c #DEAC7A",
"9. c #D2B07F",
"0. c #E7A06D",
"q. c #FFA969",
"w. c #FFA86A",
"e. c #FAAA6C",
"r. c #E3A072",
"t. c #E7A270",
"y. c #E0A376",
"u. c #E2A575",
"i. c #E6A676",
"p. c #EAA577",
"a. c #EEAA75",
"s. c #E0A478",
"d. c #E1A579",
"f. c #E3A77C",
"g. c #EEA77A",
"h. c #E7AB7C",
"j. c #E5AA7E",
"k. c #E7AD7E",
"l. c #E9A97A",
"z. c #EDA87C",
"x. c #FBA17F",
"c. c #F7B472",
"v. c #F9B679",
"b. c #FFB87B",
"n. c #F9C05B",
"m. c #F9CA5D",
"M. c #CEB780",
"N. c #D1B381",
"B. c #D0BA86",
"V. c #D2BE92",
"C. c #D4BC90",
"Z. c #EDAF82",
"A. c #F2AF82",
"S. c #E6B286",
"D. c #E9B386",
"F. c #F7B082",
"G. c #F8B284",
"H. c #F6B78C",
"J. c #E6BB91",
"K. c #F8B595",
"L. c #F0BA91",
"P. c #F7BD92",
"I. c #F1BC96",
"U. c #F3BC96",
"Y. c #FABA92",
"T. c #F8BB95",
"R. c #FBBD94",
"E. c #F7BC98",
"W. c #F9BF99",
"Q. c #EBC49B",
"!. c #F0C199",
"~. c #F7C39D",
"^. c #FBC29F",
"/. c #FCC59D",
"(. c #EEC9A3",
"). c #EDCBA8",
"_. c #FFC3A1",
"`. c #FCC4A2",
"'. c #F8C8A4",
"]. c #F6CCA8",
"[. c #FFCBA8",
"{. c #F7D1B2",
"}. c #F9D2B0",
"|. c #FFD1B1",
" X c #FDD3B4",
".X c #FAD4B6",
"XX c #FBD6BA",
"oX c #FFD8B8",
"OX c #FCD8BB",
"+X c #FDD8BC",
"@X c #FEDABD",
"#X c #FFDEBD",
"$X c #FFDDBE",
"%X c #FFDDBF",
"&X c #FFDEBF",
"*X c #FFDCC0",
"=X c #FFDDC1",
"-X c #FFDEC0",
";X c #FFDCC2",
":X c #FFDFC2",
">X c #FFE1C5",
",X c #FFE8C7",
"<X c #FFE1C8",
"1X c None",
/* pixels */
"1X1X1X1X1X1X1X1X1X1X1X1X1X1X1X1X",
"1X( ~ ~ E E / X * h.s.s.s.5.u.1X",
"a ,X>X:X$X:X:Xl.Z.>X<X:X+X:X$Xp ",
"i $X+X+XXX.X X5.j.+XV.{.).C.oX9 ",
"7 x.`.R.Y.W.2. .f.}.s (.B.g  X7 ",
"7 _.T.U K F.K.o.y.].s Q.M.g [.5 ",
"5 b.v.I R c.e.' #.'.N.Q.J.9./.> ",
"3 w.Z n.m.A P _ o.^.^.U.U.E.P.: ",
"> w.H T Y J L m | L.h S.7.j H.- ",
"- G.z.C V >.p.M ` D.r 8.3.u A.& ",
"& 1.,.F D *.$.q ) k.r 4.! y g.$ ",
"$ S <.@.;.&.S w M i.| +...Q 0.+ ",
"% a.;.&.X.] { z m t.:.-.&.%.*.@ ",
". B c x x 0 w o O c 2 1 < , 0   ",
"1X1X1X1X1X1X1X1X1X1X1X1X1X1X1X1X",
"1X1X1X1X1X1X1X1X1X1X1X1X1X1X1X1X"
};
