/* XPM */
static char *ksudoku[] = {
/* columns rows colors chars-per-pixel */
"16 16 152 2 ",
"   c #19864FCB28F4",
".  c #05E65FD92691",
"X  c #0E6458282872",
"o  c #275455553829",
"O  c #270C5F7F3B9D",
"+  c #0E6577F035BD",
"@  c #0FC278CA36E9",
"#  c #15B4759A388F",
"$  c #15807B173A28",
"%  c #17E178C43B52",
"&  c #249071623BA3",
"*  c #341A5F2243F7",
"=  c #337A64894519",
"-  c #3CAD78E0511E",
";  c #437A6A6551C1",
":  c #23BB841047A6",
">  c #2ECD825F4DB8",
",  c #35AC89DB54DC",
"<  c #369F8E3E5740",
"1  c #401B816957AC",
"2  c #61A08C257162",
"3  c #5A98A033744E",
"4  c #6A69A0577DE9",
"5  c #7ECC97B184FF",
"6  c #6903A94380CF",
"7  c #8AA48A908A9D",
"8  c #8EF58EFA8EF7",
"9  c #A002A002A002",
"0  c #8D1BAB549887",
"q  c #91AEAB1A9B09",
"w  c #A2EBA327A301",
"e  c #A462A462A462",
"r  c #A5E7A5E4A5E6",
"t  c #AA02AA02AA02",
"y  c #ACD5ACCBACD1",
"u  c #AFC6AFB9AFC2",
"i  c #A8E1B51DAD53",
"p  c #A437B97FAB82",
"a  c #B27AB27AB27A",
"s  c #B5ABB5E9B5C2",
"d  c #B598B6B5B5EC",
"f  c #B73BB794B75C",
"g  c #B940B93FB940",
"h  c #BBA0BBA0BBA0",
"j  c #BC44BA9CBBA6",
"k  c #BD4FBE61BDB5",
"l  c #BFD0BFD7BFD3",
"z  c #A6E0CACFB44A",
"x  c #AAC9CBC6B70E",
"c  c #B23FCA93BB3F",
"v  c #B6A4CE7FBA31",
"b  c #C13DBF1CC072",
"n  c #BBA9D199C3D5",
"m  c #BF9ED2ACC6A4",
"M  c #BF14D690C7C2",
"N  c #C0F6C0F6C0F6",
"B  c #C29AC291C297",
"V  c #C4C3C56AC501",
"C  c #C5B1C5C1C5B7",
"Z  c #C695C6F5C6B9",
"A  c #C6E5C7D5C73E",
"S  c #C7D3C807C7E5",
"D  c #C885C635C7AF",
"F  c #C85DC6F7C7D8",
"G  c #CBBFC9EBCB12",
"H  c #CA93CA95CA94",
"J  c #CC42CCC6CC73",
"K  c #CC75CC72CC74",
"L  c #CCD6CD63CD0A",
"P  c #CDC3CDF2CDD4",
"I  c #D010D019D013",
"U  c #C2C1D2DCC8B2",
"Y  c #C9CBD2B2CCF2",
"T  c #CA7DD5ADCE8D",
"R  c #C887DD49D03B",
"E  c #C92FDFF3D1A8",
"W  c #D30DD30DD30D",
"Q  c #D387D3D2D3A3",
"!  c #D4B4D29FD3EF",
"~  c #D290D532D38B",
"^  c #D626D1C4D50A",
"/  c #D4ECD51FD4FE",
"(  c #D6E5D6E8D6E5",
")  c #D826D826D826",
"_  c #D670D8CED752",
"`  c #D8A8D8A8D8A8",
"'  c #D9D3D9D3D9D3",
"]  c #DC23D889DAD4",
"[  c #DAD0DACADAD1",
"{  c #DBB6DBC7DBBC",
"}  c #DD18DA7CDC24",
"|  c #D8B5E011DB66",
" . c #DD33DD33DD33",
".. c #DE47DE47DE47",
"X. c #DDBADE9BDDF4",
"o. c #DF0DDF80DF37",
"O. c #DFE4DFE0DFE2",
"+. c #D547E390DA89",
"@. c #D78EE3CBDC2F",
"#. c #D2CDE49ED96F",
"$. c #E34FDEF8E1B4",
"%. c #E1E6E152E1D4",
"&. c #E26EE272E270",
"*. c #E31FE36BE335",
"=. c #E42AE2A3E398",
"-. c #E794E458E661",
";. c #E50CE4F0E502",
":. c #E570E570E570",
">. c #E6D8E49CE603",
",. c #E68DE588E62E",
"<. c #E85EE647E799",
"1. c #E73CE742E73E",
"2. c #E848E848E848",
"3. c #E8F2E4F8E79A",
"4. c #E8E6E62DE7E3",
"5. c #E664EA23E7BF",
"6. c #E12EEE35E60B",
"7. c #E90CE90FE90D",
"8. c #EA7BE8FFE9F0",
"9. c #EAC5EAC5EAC5",
"0. c #ED1DED1DED1D",
"q. c #EDA1ED0FED6C",
"w. c #EDECEDECEDEC",
"e. c #EFF2EDE0EF2D",
"r. c #EF5EEF59EF5D",
"t. c #E1C2F273E7F8",
"y. c #F115F115F115",
"u. c #F264F264F264",
"i. c #F0B9F32EF19D",
"p. c #F2FAF2F5F2F8",
"a. c #F369F388F375",
"s. c #F3C8F3C8F3C8",
"d. c #F4CFF1E9F3BA",
"f. c #F19EF727F3C7",
"g. c #F5DEF383F4FE",
"h. c #F4F0F4F0F4F0",
"j. c #F603F5FAF600",
"k. c #F684F684F684",
"l. c #F7FCF80AF801",
"z. c #F9CCF85FF946",
"x. c #F965F963F964",
"c. c #FA21FA21FA21",
"v. c #FAF5FAF5FAF5",
"b. c #FBE6FB2FFBA2",
"n. c #FBFAFBF4FBF8",
"m. c #FD28FAC3FC5B",
"M. c #FB9FFE18FBE3",
"N. c #FD4EFB87FD10",
"B. c #FCA4FC9EFCA2",
"V. c #FE57FE57FE57",
"C. c #FFFDFFFDFFFD",
"Z. c None",
/* pixels */
"Z.I ] } I V ] _ | / ] @.$.o.Z.Z.",
"S q.T | >./ p.q.p.8.8.p.p.y.Z.Z.",
"S q.U c -.J p.q.p.>.5.j.j.j.Z.Z.",
"S g.z #.>.I n.j.N.4.8.C.n.j.Z.Z.",
"f ] ~ _ H f &.o.8.} O.l.j.n.Z.Z.",
"y H D H f r I ! ] Y / q.p.j.Z.Z.",
"S z.m +.>.N C.M C.>.>.C.C.C.Z.Z.",
"k p.n x $.f C.v M.&.&.C.r.5.Z.Z.",
"S n.E t.>.f C.6.C.o.8.q * ; o Z.",
"9 l h b w 7 H H W S i   Y m.= O ",
"r H S J y 8 ] ~ o.^ 5 - N.C.2 X ",
"l n.B.C.] y C.n.C.-.p & f.C.1 . ",
"h p.j.C./ r C.n.C. .=.6 , 3 > # ",
"a q.8.n.W r C.j.C._ ] C.R +.4 $ ",
"Z.Z.Z.Z.Z.Z.Z.Z.Z.Z.Z.Z.Z.0 % Z.",
"Z.Z.Z.Z.Z.Z.Z.Z.Z.Z.Z.: @ + < Z."
};
