/* XPM */
static char *logo[] = {
/* columns rows colors chars-per-pixel */
"48 48 88 1 ",
"  c #3F3B3E",
". c #264E00",
"X c #275200",
"o c #2A5700",
"O c #636E1A",
"+ c #4F5636",
"@ c #4F543E",
"# c #51563A",
"$ c #53593A",
"% c #5F6825",
"& c #6B7526",
"* c #6E7729",
"= c #454043",
"- c #4D484B",
"; c #514D4F",
": c #525741",
"> c #585C41",
", c #5A4E54",
"< c #555353",
"1 c #595456",
"2 c #5B5658",
"3 c #5D595B",
"4 c #62565C",
"5 c #615C5E",
"6 c #635E61",
"7 c #695D63",
"8 c #656163",
"9 c #6B6267",
"0 c #6E6369",
"q c #71666C",
"w c #74696F",
"e c #766C71",
"r c #796D73",
"t c #7C7176",
"y c #7E757A",
"u c #81757B",
"i c #84797F",
"p c #778500",
"a c #788600",
"s c #7B8905",
"d c #798709",
"f c #7D8A09",
"g c #7E8174",
"h c #828D04",
"j c #879104",
"k c #849115",
"l c #89951A",
"z c #8C981F",
"x c #8EB41D",
"c c #BEB400",
"v c #8E9A23",
"b c #83C020",
"n c #85CD28",
"m c #8AE234",
"M c #EDD400",
"N c #808376",
"B c #828578",
"V c #878A7C",
"C c #898C7C",
"Z c #FCE94F",
"A c #877B81",
"S c #897D83",
"D c #8C8187",
"F c #8E8389",
"G c #8D888C",
"H c #92868C",
"J c #93898F",
"K c #958C91",
"L c #998E94",
"P c #9B9196",
"I c #9E9499",
"U c #A1969C",
"Y c #A3999E",
"T c #A69CA1",
"R c #A89EA3",
"E c #ABA2A6",
"W c #ADA4AA",
"Q c #ABACA8",
"! c #B0A7AB",
"~ c #B3A9AE",
"^ c #B5ACB1",
"/ c #B9B1B5",
"( c #BCBDB9",
") c #BFC0BA",
"_ c #CFD0CD",
"` c #DBDCD8",
"' c #E0E1DC",
"] c None",
/* pixels */
"]]]]]]]]]]]]]]]]]]]]]]]]]]]]]]]]]]]]]]]]]]]]]]]]",
"]]]]]]]]]]]]]]]]]]]]]]]]]]]]]]]]]]]]]]]]]]]]]]]]",
"]]]]]]]]]]]]]]]]]]]]]]]]]]]]]]]]]]]]]]]]]]]]]]]]",
"]]]]]]]]]]]]]]]]]]]]]]]]]]]]]]]]]]]]]]]]]]]]]]]]",
"]]]]]]]]]]]]]]]]]]]]]]]]]]]]]]]]]]]]]]]]]]]]]]]]",
"]]]]]]]]]]]]]]]]]]]]]]]]]]]]]]]]]]]]]]]]]]]]]]]]",
"]]]]]]]]]]]]]]]]]]]]]]]]]]]]]]]]]]]]]]]]]]]]]]]]",
"]]]]]]]]]]]]]]]]]]]]]]]]]]]]]]]]]]]]]]]]]]]]]]]]",
"]]]]]]]<2]]]]]]]]]]]]]]]]]11]]]]]]]]]]]]]]]]]]]]",
"]]]]]]]282]]]]]]]]]]]]]]]2e2]]]]]]]]]]]]]]]]]]]]",
"]]]]]]]38<3]]]]]]]]]]]]]3ee2]]]]]]]]]]]]]]]]]]]]",
"]]]]]]]58;3]]]]]]]]]]]]]5re2]]]]]]]]]]]]]]]]]]]]",
"]]]]]]]38=S3]]]]]]]]]]]8yye3]]]]]]]]]]]]]]]]]]]]",
"]]]]]]]25-S3]]]]]]]]]]]8yyy3]]]]]]404]]]]]]]]]]]",
"]]]]]]2<3<H3]]]]]]]]]]]5GDD1]]]]]]],]]]]]]]]]]]]",
"]]]]]5KPUUI2333368898863KGD2 qwwewwwweeqq0<<]]]]",
"]]]]]6YRTWTYYW~~QETTTTTRTYLHD0474449994,44KH]]]]",
"]]]]]8E~^~WTTW~!QTTTTYYYYULHDiuuiSiiiriSAuKGG]]]",
"]]]]]8W~~!RGYRGEYFUUGUPGULFDHDDDDHFFHHJLIPKGG]]]",
"]]]]]3W!WWULPUYIPLJLLJJHHDFiDHDHHDFHDDDHGGPKK]]]",
"]]]]]<TRY3333333233323333334ER/UUYY^LPYTII222]]]",
"]]]]]<YYY3]]]]]]]]]]]]]]]]]4iSiiASSDSAtuui2]]]]]",
"]]]]]<LILoooooooooooooooooooSiiS588885q77<]]]]]]",
"]]]]]2JKJommmmmmmmmmmmmmmmmo,,45]]]]]]3u<]]]]]]]",
"]]]]]3DHDomaa*$v$v$&vvkaaaboert6]]]]]]]2]]]]]]]]",
"]]]]]3SSSomaa:':'$_>apvkaaboAiA3]]]]]]]]]]]]]]]]",
"]]]]]5irqom%@BNggggB+Oavkaboqwi3]]]]]]]]]]]]]]]]",
"]]]]]]<eTom@`B)((((B(:vvvaboTq<]]]]]]]]]]]]]]]]]",
"]]]]]]<q^om%:BQ<<<<V@Oaavabo!7;]]]]]]]]]]]]]]]]]",
"]]]]]]]<Qom@'BBgBBBg):zvkaboW<]]]]]]]]]]]]]]]]]]",
"]]]]]]]<Iom%@@V@C@C@#Oazaabo!<]]]]]]]]]]]]]]]]]]",
"]]]]]]]]3omaaa:d@p@lkzaakabo2]]]]]]]]]]]]]]]]]]]",
"]]]]]]]]]omaslssvsvsszsslsbo]]]]]]]]]]]]]]]]]]]]",
"]]]]]]]]]omkccaccsccscchchbo]]]]]]]]]]]]]]]]]]]]",
"]]]]]]]]]omaMMaMMfMMsMMjMjbo]]]]]]]]]]]]]]]]]]]]",
"]]]]]]]]]omaZZaZZfZZsZZsZsbo]]]]]]]]]]]]]]]]]]]]",
"]]]]]]]]]onbZZbZZbZZbZZxZxbo]]]]]]]]]]]]]]]]]]]]",
"]]]]]]]]]Xooooooooooooooooo.]]]]]]]]]]]]]]]]]]]]",
"]]]]]]]]]]]]]]]]]]]]]]]]]]]]]]]]]]]]]]]]]]]]]]]]",
"]]]]]]]]]]]]]]]]]]]]]]]]]]]]]]]]]]]]]]]]]]]]]]]]",
"]]]]]]]]]]]]]]]]]]]]]]]]]]]]]]]]]]]]]]]]]]]]]]]]",
"]]]]]]]]]]]]]]]]]]]]]]]]]]]]]]]]]]]]]]]]]]]]]]]]",
"]]]]]]]]]]]]]]]]]]]]]]]]]]]]]]]]]]]]]]]]]]]]]]]]",
"]]]]]]]]]]]]]]]]]]]]]]]]]]]]]]]]]]]]]]]]]]]]]]]]",
"]]]]]]]]]]]]]]]]]]]]]]]]]]]]]]]]]]]]]]]]]]]]]]]]",
"]]]]]]]]]]]]]]]]]]]]]]]]]]]]]]]]]]]]]]]]]]]]]]]]",
"]]]]]]]]]]]]]]]]]]]]]]]]]]]]]]]]]]]]]]]]]]]]]]]]",
"]]]]]]]]]]]]]]]]]]]]]]]]]]]]]]]]]]]]]]]]]]]]]]]]"
};
