/* XPM */
static char *mail_message_new[] = {
/* columns rows colors chars-per-pixel */
"16 16 123 2 ",
"   c #F2DC1F",
".  c #F2DC21",
"X  c #F3DD26",
"o  c #F0DA2B",
"O  c #F5DF2B",
"+  c #F5DF2C",
"@  c #F5DF34",
"#  c #F6E134",
"$  c #F7E23A",
"%  c #F8E33F",
"&  c #F1DF48",
"*  c #F1DF4A",
"=  c #EEDE56",
"-  c #E2D45E",
";  c #F4E141",
":  c #F9E546",
">  c #FAE746",
",  c #F8E656",
"<  c #FBE854",
"1  c #FBE855",
"2  c #F5E45B",
"3  c #F7E65C",
"4  c #FBEA5C",
"5  c #E1D878",
"6  c #EADF7F",
"7  c #F6E664",
"8  c #FAEB6D",
"9  c #FBED78",
"0  c #888A85",
"q  c #8A8B87",
"w  c #898C87",
"e  c #898D87",
"r  c #8A8C87",
"t  c #8B8E89",
"y  c #8D8D89",
"u  c #8C8E89",
"i  c #8D8E89",
"p  c #8E8F8B",
"a  c #8D908B",
"s  c #8E908B",
"d  c #969893",
"f  c #BBBEB4",
"g  c #B9BCB6",
"h  c #BABDB6",
"j  c #BABDB7",
"k  c #BDC1B9",
"l  c #BFC1BB",
"z  c #C9C79F",
"x  c #D0CB98",
"c  c #D4D095",
"v  c #FAED83",
"b  c #FAEE87",
"n  c #FCEF8A",
"m  c #FBF199",
"M  c #C3C3A8",
"N  c #C2C5BF",
"B  c #ECE5B0",
"V  c #C6C8C2",
"C  c #CCCFC9",
"Z  c #CDCFC9",
"A  c #CDCFCA",
"S  c #CFD0CA",
"D  c #DDDDC0",
"F  c #D2D6CE",
"G  c #D3D4D0",
"H  c #D4D5D1",
"J  c #D4D6D1",
"K  c #D6D9D3",
"L  c #D6DAD3",
"P  c #D7DBD4",
"I  c #D9DBD5",
"U  c #DBDCD8",
"Y  c #DBDED8",
"T  c #DCDDDA",
"R  c #DDDFDA",
"E  c #DCE0D9",
"W  c #DEE1DB",
"Q  c #DFE2DD",
"!  c #FDF7C0",
"~  c #F6F2CA",
"^  c #F7F3CF",
"/  c #FEF8C8",
"(  c #E0E3DD",
")  c #E1E4DE",
"_  c #E1E4DF",
"`  c #F7F3D0",
"'  c #FEFAD4",
"]  c #FEFADF",
"[  c #E3E5E0",
"{  c #E4E6E1",
"}  c #E4E7E2",
"|  c #E5E8E3",
" . c #E6E8E3",
".. c #E7E9E4",
"X. c #E7EAE5",
"o. c #EEEEEC",
"O. c #EFF0EE",
"+. c #FFFCE8",
"@. c #FEFCE9",
"#. c #FFFDEB",
"$. c #FEFDED",
"%. c #F1F2F0",
"&. c #F2F3F1",
"*. c #F3F3F2",
"=. c #F3F4F1",
"-. c #F5F5F4",
";. c #F6F6F5",
":. c #F6F7F5",
">. c #F7F7F6",
",. c #FFFEF3",
"<. c #FFFEF5",
"1. c #FCFCF7",
"2. c #F8F9F8",
"3. c #FFFFFA",
"4. c gray99",
"5. c #FDFDFD",
"6. c #FFFEFC",
"7. c #FEFEFD",
"8. c #FFFFFD",
"9. c #FEFEFE",
"0. c #FFFFFE",
"q. c white",
"w. c None",
/* pixels */
"w.w.w.w.w.w.s r 0 s w.w.w.w.w.w.",
"w.w.w.w.t d >.4.4.~ - * w.w.w.w.",
"w.w.k j j j j M 5 1 n m = x w.w.",
"w.w.j 4.4.4.6.9 1 1 #.$.% ; w.w.",
"w.s j 4.2.>.^ > 4.4.4.4.6.4.o w.",
"u *.j 4.4.4.B > 8 4.4.4.#.3 3 s ",
"0 4.S 4.>.>.^ 4 % ] ,.#.! O / 0 ",
"0 4.4.V {  .S 6 + 4.n v 4.. <.0 ",
"r 4.4.4.N L I D : X # @   7 4.0 ",
"r 4.2.4.4.N j j k M c ' <.X.4.0 ",
"0 4.*.*.R S 4.4.6.4.S R X.[ 4.t ",
"r 4.O.Q J 4.o.o.o.o.4.F J ( 4.0 ",
"0 4.X.R 4.O.o.o.o.o.O.4.I I 4.r ",
"0 4.) 4.X.X.{ ) Q W W W 4.F 4.0 ",
"0 >.4.4.4.4.4.4.4.4.4.4.4.4.*.t ",
"t u 0 r 0 0 t 0 0 r 0 0 t 0 0 u "
};
