/* XPM */
static char *network_wired[] = {
/* columns rows colors chars-per-pixel */
"16 16 92 1 ",
"  c #3867A6",
". c #3869A6",
"X c #55759B",
"o c #56759A",
"O c #56769C",
"+ c #426FA8",
"@ c #4673AB",
"# c #4776AF",
"$ c #4874AC",
"% c #4B76AC",
"& c #4C78AF",
"* c #4D79AF",
"= c #4877B1",
"- c #4778B0",
"; c #4C78B0",
": c #507CB2",
"> c #517CB2",
", c #507CB3",
"< c #527DB3",
"1 c #7594BB",
"2 c #7595BB",
"3 c #7797BE",
"4 c #7F9EC6",
"5 c #7CA4CF",
"6 c #888A86",
"7 c #898B86",
"8 c #8B8D88",
"9 c #8E908B",
"0 c #91938D",
"q c #91928E",
"w c #939590",
"e c #959692",
"r c #969793",
"t c #969893",
"y c #999B95",
"u c #9C9E98",
"i c #9EA19B",
"p c #A1A49E",
"a c #9CADBE",
"s c #9DADBF",
"d c #A4A6A0",
"f c #A7A9A3",
"g c #A9ACA6",
"h c #AEB1AB",
"j c #AFB2AB",
"k c #B3B6AF",
"l c #B4B7B0",
"z c #B5B7B1",
"x c #B5B8B1",
"c c #B6B8B2",
"v c #B6B9B2",
"b c #B6B9B3",
"n c #B7BAB3",
"m c #B8BBB4",
"M c #B8BBB5",
"N c #BBBEB7",
"B c #809FC7",
"V c #8AA7C6",
"C c #94B5D9",
"Z c #AAB9CC",
"A c #ACBCCE",
"S c #C9CBC6",
"D c #CACCC6",
"F c #DFE1DC",
"G c #DFE2DC",
"H c #E0E3DD",
"J c #E0E3DE",
"K c #E2E5DF",
"L c #E6E8E4",
"P c #EAECE8",
"I c #EBECEA",
"U c #ECEEEC",
"Y c #EEEEEC",
"T c #EEEFEC",
"R c #F1F2F0",
"E c #F2F3F0",
"W c #F5F6F4",
"Q c #F6F6F5",
"! c #F7F7F6",
"~ c #F8F8F7",
"^ c #F9F9F9",
"/ c #F9FAF8",
"( c #F9FAF9",
") c #FAFBFA",
"_ c #FCFCFB",
"` c gray99",
"' c #FDFDFC",
"] c #FDFDFD",
"[ c #FEFEFD",
"{ c #FEFEFF",
"} c white",
"| c None",
/* pixels */
"||||NMMbbzbkkz||",
"|||b/}}}}}}}}~j|",
"|||j}}}}}''//}f|",
"|||g}_}t66eWW}p|",
"|||d}/eqTUqeR}u|",
"|||i}W6SssD7U}t|",
"|||y}R61$+Z7P}q|",
"|||w}UX,C*A6L}8|",
"|||0}3*C*O60L}6|",
"|||6B,C,1JJGF}6|",
"|||X,C,4}}}}}P8|",
"||.$V$X8666768||",
"||=5$.||||||||||",
"|||-||||||||||||",
"||||||||||||||||",
"||||||||||||||||"
};
