/* XPM */
static char *pdfshuffler[] = {
/* columns rows colors chars-per-pixel */
"48 48 256 2 ",
"   c #1D0019",
".  c #140010",
"X  c #2B000E",
"o  c #39000B",
"O  c #290013",
"+  c #260018",
"@  c #3D0014",
"#  c #3B001C",
"$  c #340018",
"%  c #010033",
"&  c #0A003A",
"*  c #12002B",
"=  c #2B0022",
"-  c #2D002B",
";  c #240023",
":  c #360023",
">  c #3B0024",
",  c #33002B",
"<  c #3D002C",
"1  c #290035",
"2  c #350034",
"3  c #440006",
"4  c #59000D",
"5  c #4B0015",
"6  c #4C001A",
"7  c #43001A",
"8  c #560016",
"9  c #70000C",
"0  c #44002B",
"q  c #460024",
"w  c #4B0036",
"e  c #450038",
"r  c #560032",
"t  c #660035",
"y  c #35703C",
"u  c #776A2C",
"i  c #605328",
"p  c #00014C",
"a  c #000041",
"s  c #150047",
"d  c #00015B",
"f  c #060054",
"g  c #170059",
"h  c #111A52",
"j  c #370041",
"k  c #15205C",
"l  c #00006E",
"z  c #000064",
"x  c #000071",
"c  c #121C64",
"v  c #3A006A",
"b  c #172367",
"n  c #192976",
"m  c #440048",
"M  c #5B0154",
"N  c #710B72",
"B  c #5C2F67",
"V  c #672F5D",
"C  c #0D5553",
"Z  c #186E6E",
"A  c #0B716E",
"S  c #286C6C",
"D  c #376464",
"F  c #2E7A7A",
"G  c #164D63",
"H  c #495E5E",
"J  c #5C5E5D",
"K  c #565D58",
"L  c #4C4E4F",
"P  c #496448",
"I  c #5B635A",
"U  c #597656",
"Y  c #5A6445",
"T  c #446464",
"R  c #646464",
"E  c #6A6A6A",
"W  c #737A67",
"Q  c #654F5B",
"!  c #960037",
"~  c #A10016",
"^  c #EE1717",
"/  c #CD3E3E",
"(  c #D92F2F",
")  c #E02323",
"_  c #9C402B",
"`  c #836D39",
"'  c #996F31",
"]  c #B87135",
"[  c #C9672B",
"{  c #FC7924",
"}  c #FE6E21",
"|  c #ED661F",
" . c #9D544E",
".. c #B85959",
"X. c #AC5F5F",
"o. c #897646",
"O. c #9A7C7C",
"+. c #8E7B7B",
"@. c #B66666",
"#. c #A86E6E",
"$. c #A24E79",
"%. c #CA4242",
"&. c #3BB539",
"*. c #3B9A3B",
"=. c #359759",
"-. c #319670",
";. c #3CB358",
":. c #488246",
">. c #528D48",
",. c #51B453",
"<. c #678F62",
"1. c #51A873",
"2. c #67BA7C",
"3. c #77814E",
"4. c #4BCA52",
"5. c #4AFF47",
"6. c #55FF53",
"7. c #5EFE5B",
"8. c #47EB45",
"9. c #61F35E",
"0. c #70D478",
"q. c #66FF63",
"w. c #6EFF6C",
"e. c #77FF75",
"r. c #7FFE7D",
"t. c #7BF779",
"y. c #75EA74",
"u. c #B68738",
"i. c #FD8929",
"p. c #FF962D",
"a. c #FC9E30",
"s. c #E8902E",
"d. c #D7A937",
"f. c #FFAA33",
"g. c #FFBA38",
"h. c #E5A535",
"j. c #CC8630",
"k. c #FFC93D",
"l. c #899366",
"z. c #929458",
"x. c #000089",
"c. c #000097",
"v. c #0000B7",
"b. c #0E00B0",
"n. c #333AB5",
"m. c #713294",
"M. c #5E17A2",
"N. c #641FA3",
"B. c #423BA5",
"V. c #601A9E",
"C. c #3D4493",
"Z. c #5344A6",
"A. c #674B9B",
"S. c #0000C2",
"D. c #2A42D0",
"F. c #2D48FF",
"G. c #314EFF",
"H. c #314FF5",
"J. c #3353FF",
"K. c #3150F2",
"L. c #2F4CE7",
"P. c #9F319F",
"I. c #824692",
"U. c #A05F93",
"Y. c #FF16FF",
"T. c #ED0BEE",
"R. c #FB26FB",
"E. c #D074CC",
"W. c #FD7BFD",
"Q. c #148E8B",
"!. c #248A8A",
"~. c #2A8F8F",
"^. c #17B7AA",
"/. c #16B1AC",
"(. c #38B4B4",
"). c #24AFA9",
"_. c #0FA990",
"`. c #7D9C9C",
"'. c #44A184",
"]. c #5EB8B8",
"[. c #4EA8A8",
"{. c #69A8A8",
"}. c #6EBCBC",
"|. c #539898",
" X c #40C2B8",
".X c #12D2CF",
"XX c #2CD1D1",
"oX c #18E7E6",
"OX c #0CFCFC",
"+X c #04FDFD",
"@X c #14FCFC",
"#X c #1DFBFB",
"$X c #17F4F4",
"%X c #25E9E9",
"&X c #39EEEE",
"*X c #24FAFA",
"=X c #2CF9F9",
"-X c #3CF6F6",
";X c #33F8F8",
":X c #36F6F6",
">X c #48D6D6",
",X c #57D9D9",
"<X c #5BCAC6",
"1X c #69D4D4",
"2X c #6ACAC9",
"3X c #45E7E7",
"4X c #54EAEA",
"5X c #44F5F5",
"6X c #4BF4F4",
"7X c #54F3F3",
"8X c #5AF3F3",
"9X c #75EFEF",
"0X c #7CEEEE",
"qX c #64F1F1",
"wX c #6CF0F0",
"eX c #71F0F0",
"rX c #62ECEC",
"tX c #8D8A8A",
"yX c #958585",
"uX c #8F9C9C",
"iX c #9FAE88",
"pX c #83B8B8",
"aX c #B5BDA9",
"sX c #8DD28F",
"dX c #88FF86",
"fX c #90FF8F",
"gX c #90F08E",
"hX c #99FF97",
"jX c #92E492",
"kX c #B3D3AE",
"lX c #A1FFA0",
"zX c #AAFFA8",
"xX c #B2FFB1",
"cX c #BBFFB9",
"vX c #B5EBB2",
"bX c #FE88FE",
"nX c #FF90FF",
"mX c #F491F4",
"MX c #EA84EA",
"NX c #83EDED",
"BX c #8CECEC",
"VX c #93EBEB",
"CX c #9BEAEA",
"ZX c #A2E9E9",
"AX c #ABE8E8",
"SX c #B3E7E7",
"DX c #BCE6E6",
"FX c #C3FFC2",
"GX c #CBFECB",
"HX c #D4FFD3",
"JX c #DCFFDC",
"KX c #DBEBD9",
"LX c #C7E5E5",
"PX c #E8FFE7",
"IX c #E5EDE4",
"UX c None",
/* pixels */
"UXUXUXUXUXUXUXUXUXUXUXUXUXUXUXUXUXUXUXUXUXUXUXUXUXUXUXUXUXUXUXUXUXUXUXUXUXUXUXUXUXUXUXUXUXUXUXUX",
"UXUXUXUXUXUXUXUXUXUXUXUXUXUXUXUXp d l f UXUXUXUXUXUXUXUXUXUXUXUXUXUXUXUXUXUXUXUXUXUXUXUXUXUXUXUX",
"UXUXUXUXh b c B I.I.I.B V V V.m.N.M.V.V.N N N M UXUXUXUXUXUXUXUXUXUXUXUXUXUXUXUXUXUXUXUXUXUXUXUX",
"UXUXb H.F.F.n.MXW.W.W. .} | _ Y R E P.R.R.Y.Y.T.M UXUXUXUXUXUXUXUXUXUXUXUXUXUXUXUXUXUXUXUXUXUXUX",
"UXUXn J.F.F.B.nXbXW.$.{ } } u fXdXr.y.>.K P.T.T.G Q.C UXUXUXUXUXUXUXUXUXUXUXUXUXUXUXUXUXUXUXUXUX",
"UXUXn J.G.F.Z.nXbXE.[ { { ' jXfXdXr.e.w.7.6.*.A +X+X+XQ.UXUXUXUXUXUXUXUXUXUXUXUXUXUXUXUXUXUXUXUX",
"UXUXb J.G.F.A.nXbX .i.{ [ l.hXfXdXr.e.w.q.4._.+X+X@X@X#X.XA UXUXUXUXUXUXUXUXUXUXUXUXUXUXUXUXUXUX",
"UXUXb J.G.F.U.nX$.s.i.i.3.lXhXfXdXr.e.w.,.^.+X@X#X#X*X=X;X;X/.C UXUXUXUXUXUXUXUXUXUXUXUXUXUXUXUX",
"UXUXk J.J.D.E.E.] p.i.o.lXlXhXfXdXt.e.=..X%X#X*X=X=X;X;X-X-X-X:X!.UXUXUXUXUXUXUXUXUXUXUXUXUXUXUX",
"UXUXh J.G.n.mXo.p.i.] sXzXlXhXfXdXw.-.oX{.#.].;X;X-X5X5X5X6X6X6X7XXXZ UXUXUXUXUXUXUXUXUXUXUXUXUX",
"UXUXUXJ.J.Z.U.s.a.| l.xXzXlXfXdXy.-.$X$X../ yX-X5X6X6X7X8X8X7X8X8X7X7X(.C UXUXUXUXUXUXUXUXUXUXUX",
"UXUXUXJ.J.A.[ p.a.o.cXxXzXlXhX0.Q.OX{...`.tX/ 7X7X7X8XqXqXqXqXqXqXqX8X8X8X~.UXUXUXUXUXUXUXUXUXUX",
"UXUXUXK.G.u f.f.o.vXcXxXzXlX0.^.@X+.X.>X( }.4X7X8XqXqXwXeXeXeX0XeXeXwXqXqX7X>XS UXUXUXUXUXUXUXUX",
"UXUXUXL.B.s.f.[ iXFXcXxXzX1.^.oX+.{.%.O.%.,X8X8XqXwX0X0XNXNXNXNXNX0X0XeXqXqX7X7X(.C UXUXUXUXUXUX",
"UXUXUXD.' f.h.l.HXFXcXxX`.oXoX) ].%.-XO.1X6XqXqXeX0XNXBXBXVXVXVXVXBXNX0X0XwXqX8X7X5X!.UXUXUXUXUX",
"UXUXUXK g.f.o.HXGXFXcXxX{._.OX{.^ {.-X6X7X8XqXeX0XNXVXVXCXZXZXZXCXCXVXBXNXeXqXqX7X6X-XXXZ UXUXUX",
"UXUXUXh.g.] kXHXGXFXcXxXlXjX-.oX>XtX-X6X7XqXwX9XNXBXVXZXAXAXSXSXAXZXCXVXBX0XeXqX8X6X5X<X=X^.C UX",
"UXUX' g.h.iXPXHXGXFXcXxXzXlXhX1.).-X5X6X8XqXwX0XNXVXCXZXSXDXDXDXSXAXZXCXBXNXeXwXqX7X6X..%.XX$XA ",
"UXi k.g.z.IXJXHXGXFXcXxXzXlXhXfX0.-.&X6X8XqXeX0XBXVXZXSXLXLXLXLXLXSXAXCXVXNX9XwXqX7X5XtXU.( $X-.",
"UXd.g.z.KXPXJXHXGXFXcXxXzXlXhXfXr.t.1. X8XrXeX0XBXVXZXSXDXLXLXLXDXSXAXCXVXNX0XwX8X@.uXU./ {..XT ",
"` k.d.kXPXPXJXHXGXFXcXxXzXlXhXfXdXr.e.4.-.wXwX0XBXVXCXAXSXDXDXDXDXAXZXCXBXNX0XwXpX@...%.>X*XF UX",
"i u ` IXPXPXJXHXGXFXcXxXzXlXhXfXdXr.e.w.q.=.<XeXNXBXVXZXZXSXSXSXAXZXCXVXBX0XeXwXiX@.1X%.&X).I UX",
"UXR J L E aXHXGXGXFXcXxXzXlXhXfXdXr.e.w.q.7.;.1.0XNXBXVXCXZXZXCXCXCXBXBXNXeXeXuX1X#.%.,X%XS UXUX",
"UXUXUXL H L L W kXFXcXxXzXlXhXfXdXr.e.w.q.q.6.8.=.1XNXBXBXVXVXVXVXBXNXNX9XwXrXpX^ yX-X;XC.U UXUX",
"UXUXUXUXUXUXUXE J I <.jXxXlXhXfXdXr.e.w.q.7.6.5.8.y |.0X0XNXNXNXNX0X0XeXwXqX8X2X@.( >XXXH UXUXUX",
"UXUXUXUXUXUXUXUXUXUXE K U <.gXfXdXr.e.w.q.q.6.5.8.y R T 1XeX9X9XeXeXwXqXqX8X6X6X2X`.=XS UXUXUXUX",
"UXUXUXUXUXUXUXUXUXUXUXUXUXE K U <.e.e.w.q.7.6.5.&.K UXR H [.wXwXqXqX8X8X7X6X5X-X;X=X~.J UXUXUXUX",
"UXUXUXUXUXUXUXUXUXUXUXUXUXUXUXUXR P >.,.q.7.6.5.y UXUXUXUXJ F 7X8X7X7X6X5X5X-X;X=XoXD UXUXUXUXUX",
"UXUXUXUXUXUXUXUXUXUXUXUXUXUXUXUXUXUXE I P :.4.&.P UXUXUXUXUXR T (.6X5X-X-X;X=X*X#XS R UXUXUXUXUX",
"UXUXUXUXUXUXUXUXUXUXUXUXUXUXUXUXUXUXUXUXUXE K I UXUXUXUXUXUXUXUXJ !.:X;X=X=X*X#X.XH UXUXUXUXUXUX",
"UXUXUXUXUXUXUXUXUXUXUXUXUXUXUXUXUXUXUXUXUXUXUXUXUXUXUXUXUXUXUXUXUXJ D XX#X#X@XOXS UXUXUXUXUXUXUX",
"UXUXUXUXUXUXUXUXUXUXUXUXUXUXUXUXUXUXUXUXUXUXUXUXUXUXUXUXUXUXUXUXUXUXUXT Q.OXOXQ.J UXUXUXUXUXUXUX",
"UXUXUXUXUXUXUXUXUXUXUXUXUXUXUXUXUXUXUXUXUXUXUXUXUXUXUXUXUXUXUXUXUXUXUXUXJ S !.D UXUXUXUXUXUXUXUX",
"UXUXUXUXUXUXUXUXUXUXUXUXUXUXUXUXUXUXUXUXUXUXUXUXUXUXUXUXUXUXUXUXUXUXUXUXUXUXE UXUXUXUXUXUXUXUXUX",
"UXUXUXUXUXUXUXUXUXUXUXUXUXUXUXUXUXUXUXUXUXUXUXUXUXUXUXUXUXUXUXUXUXUXUXUXUXUXUXUXUXUXUXUXUXUXUXUX",
"UXUXx p UXUXz l UXUXUXUXx x p UXUXUXUX& g & UX  UXUXUXUXUXUXUXUXUXx d UXc.% p UXUXUXUXUXUXUXUXUX",
"UXx c.v.f UXc.x.S.d UXs v m ; UXUXUX, M w < UX+ UXUXUXUXUXUXUXUXUX2 UX- * & f UXUXUXUXUXUXUXUXUX",
"UXl p UXd UXz UXUXm UX, , UXUXUXUXUXq $ UXUXUXO UXUXUXUXUXUXUXUX: : UX+ UX, - UXUXUXUXUXUXUXUXUX",
"UXx p UXf UX1 UXUXe : > > UXUXUXUXUXq UXUXUXUXX 6 6 UXUX@ UX$ . r t . t 0 + , UX, e UXUX% p d UX",
"UXl p UX1 UX, UXUX< > < $ UXUXUXUXUX8 3 UXUXUX4 8 9 o o 8 UX8 UX5 @ X @ $ $ > UXw = - UX- g % UX",
"UXl % 1 2 UX< UXUX: q > ! ! 6 UXUXUXUX~ 9 UXUX9 UX3 4 3 4 UX8 UX6 3 UXX UX# > > < UX+ UXe UXUXUX",
"UXl S.v UXUX, UXUX# q 7 # $ UXUXo UXUXUX~ 9 UX3 UXUX9 3 9 UX4 UX5 @ UXX UX# # 0 + : , UX- UXUXUX",
"UXl % UXUXUX, UXUX> > q # UXUX6 ! 5 UXUXUX4 UXo UXUX4 o 8 UX8 UX6 @ UXO UX# > 0 w r m UX; UXUXUX",
"UXl p UXUXUX, UXUXw + < > UXUXUXUXUXUXUXUX5 UXX UXUX8 UX6 UX8 UX7 # UXO UX> : 0 = UXUXUX& UXUXUX",
"UXl f UXUXUXf UXUXe UX2 > UXUXUXUXUX. UXUX# UXO UXUXq UX# UXr UX> # UX+ UX, - < 2 UXUXUX& UXUXUX",
"UXl p UXUXUXc.x.v.f UX1 - UXUXUXUXUX0 w w 0 UX+ UXUX0 UXw w 0 UX, = UX  UX1 & UXc.x x UXa UXUXUX",
"UXp UXUXUXUXl x UXUXUXUXUXUXUXUXUXUXUXj 2 UXUX  UXUX; UXUX1 ; UXUXUXUX% UXUXUXUXUXx.d UX% UXUXUX",
"UXUXUXUXUXUXUXUXUXUXUXUXUXUXUXUXUXUXUXUXUXUXUXUXUXUXUXUXUXUXUXUXUXUXUXUXUXUXUXUXUXUXUXUXUXUXUXUX"
};
