/* XPM */
static char *qjackctl[] = {
/* columns rows colors chars-per-pixel */
"32 32 157 2 ",
"   c gray1",
".  c gray2",
"X  c #0A0700",
"o  c #0D0C01",
"O  c #0F0E01",
"+  c #0F0F01",
"@  c gray3",
"#  c #090909",
"$  c gray4",
"%  c #0B0A0A",
"&  c #0A0B0A",
"*  c #0B0B0A",
"=  c #0B0B0B",
"-  c #100F01",
";  c #160E00",
":  c #111004",
">  c #171306",
",  c #1F1907",
"<  c #141109",
"1  c #14110A",
"2  c #1B130B",
"3  c #1A150C",
"4  c #131313",
"5  c gray8",
"6  c #161616",
"7  c gray10",
"8  c #1D1D1D",
"9  c #1E1E1E",
"0  c #271A00",
"q  c #2E1E00",
"w  c #221B08",
"e  c #2C2509",
"r  c #2D240B",
"t  c #2E260B",
"y  c #3A3801",
"u  c #262112",
"i  c #272218",
"p  c #392D10",
"a  c gray13",
"s  c #222222",
"d  c #232323",
"f  c gray14",
"g  c gray15",
"h  c #282828",
"j  c gray16",
"k  c #2A2A2A",
"l  c #2A2A2B",
"z  c #2C2C2C",
"x  c #2D2D2D",
"c  c gray18",
"v  c #2F2F2F",
"b  c #322C20",
"n  c #303028",
"m  c gray19",
"M  c #313131",
"N  c gray20",
"B  c #343434",
"V  c gray21",
"C  c #3A3633",
"Z  c #3D3D35",
"A  c #393939",
"S  c gray23",
"D  c #5D5701",
"F  c #704A00",
"G  c #615D00",
"H  c #7D5300",
"J  c #6C6600",
"K  c #79720D",
"L  c #6B6615",
"P  c #746712",
"I  c #594C32",
"U  c #554C3C",
"Y  c #725723",
"T  c #775E24",
"R  c #7D7437",
"E  c gray26",
"W  c #444444",
"Q  c #464646",
"!  c #494949",
"~  c #4C4C4C",
"^  c #515151",
"/  c gray35",
"(  c #595A5A",
")  c #5B5B5B",
"_  c #695C40",
"`  c #74664D",
"'  c #79694A",
"]  c #626262",
"[  c #686868",
"{  c #6E6C68",
"}  c #8E5E00",
"|  c #936100",
" . c #936700",
".. c #877F00",
"X. c #817313",
"o. c #A67400",
"O. c #83662C",
"+. c #837F33",
"@. c #998917",
"#. c #97831B",
"$. c #9C8B18",
"%. c #BE9800",
"&. c #A59714",
"*. c #8C823D",
"=. c #A08622",
"-. c #BF9F2E",
";. c #ACA722",
":. c #ADA827",
">. c #B1AC28",
",. c #C19900",
"<. c #DDAF00",
"1. c #F1BD00",
"2. c #C1BD25",
"3. c #D3CD2B",
"4. c #9A9742",
"5. c #ACA948",
"6. c #85846D",
"7. c #908475",
"8. c #838383",
"9. c #8B8B8B",
"0. c gray55",
"q. c #8E8E8E",
"w. c #929292",
"e. c gray59",
"r. c #AC9C89",
"t. c #A5A583",
"y. c #BEBD8F",
"u. c #A0A09F",
"i. c #B4B492",
"p. c #A5A5A5",
"a. c #AAAAAA",
"s. c #AEAEAE",
"d. c #AFAEAE",
"f. c #AFAFAF",
"g. c #B1B1AE",
"h. c #B2B2B2",
"j. c gray72",
"k. c #BBBBBB",
"l. c #C4B4A8",
"z. c #C6B6A9",
"x. c #CECD9F",
"c. c #C5C5A2",
"v. c #F5F4B9",
"b. c gray76",
"n. c #C3C3C3",
"m. c #C4C4C0",
"M. c #C6C6C6",
"N. c #CBCBC8",
"B. c #DEDED9",
"V. c #F3F2D9",
"C. c #E4E4E4",
"Z. c gray90",
"A. c #E7E7E7",
"S. c #EDEDE8",
"D. c #ECECEC",
"F. c #FEFEF8",
"G. c None",
/* pixels */
"G.G.G.G.G.G.G.G.G.G.G.G.G.G.G.G.G.G.G.G.G.G.G.G.G.G.G.G.G.G.G.G.",
"G.G.    G.G.G.G.G.G.G.G.G.G.G.G.G.G.G.G.G.G.G.G.G.G.G.G.G.G.G.G.",
"G.. 8.h.f G.G.G.G.G.G.G.G.G.G.G.G.G.G.G.G.G.G.G.G.G.G.G.G.G.G.G.",
"G.4 B q.h.s   G.G.G.G.G.G.G.G.G.G.G.G.G.G.G.G.G.G.G.G.G.G.G.G.G.",
"G.G.7 N { 7.l.C G.G.G.G.G.G.G.G.G.G.G.G.G.G.G.G.G.G.G.G.G.G.G.G.",
"G.G.G.7 _ ` r.l.C       G.G.G.G.G.G.G.G.G.G.G.G.G.G.G.G.G.G.G.G.",
"G.G.G.. b ' ` . . 6.>.P , G.G.G.G.G.G.G.G.G.G.G.G.G.G.G.G.G.G.G.",
"G.G.G.G.= i   U f.m.x.3.$.t G.G.G.G.G.G.G.G.G.G.G.G.G.G.G.G.G.G.",
"G.G.G.G.G.# i * v n.F.v.3.@.t G.G.G.G.G.G.G.G.G.G.G.G.G.G.G.G.G.",
"G.G.G.G.G.  y o # E n.F.v.3.@.t G.G.G.G.G.G.G.G.G.G.G.G.G.G.G.G.",
"G.G.G.G.G.  %.G : # W M.F.v.3.@.t G.G.G.G.G.G.G.G.G.G.G.G.G.G.G.",
"G.G.G.G.G.  F <.@.: # W M.F.v.3.$.t G.G.G.G.G.G.G.G.G.G.G.G.G.G.",
"G.G.G.G.G.G.X } 1.K o & E M.F.v.3.@.w G.G.G.G.G.G.G.G.G.G.G.G.G.",
"G.G.G.G.G.G.G.; | 1...X & E M.A.y.:.X.> G.G.G.G.G.G.G.G.G.G.G.G.",
"G.G.G.G.G.G.G.G.: | 1.@.+ . Z u.B.t.4.*.u G.G.G.G.G.G.G.G.G.G.G.",
"G.G.G.G.G.G.G.G.G.; | 1.@.. @ Z w.N.c.5.R < G.G.G.G.G.G.G.G.G.G.",
"G.G.G.G.G.G.G.G.G.G.; | 1.G ; C ( p.g.i.2.&.t G.G.G.G.G.G.G.G.G.",
"G.G.G.G.G.G.G.G.G.G.G.; | ,.P C A W b.V.;.#.p G.G.G.G.G.G.G.G.G.",
"G.G.G.G.G.G.G.G.G.G.G.G.; } +.+.n * ! j.( I 2 G.G.G.G.G.G.G.G.G.",
"G.G.G.G.G.G.G.G.G.G.G.G.G.; Y 2.K D 9 ^ A.k.k G.G.G.G.G.G.G.G.G.",
"G.G.G.G.G.G.G.G.G.G.G.G.G.G.3 O.o. .( x ^ A.k.k G.G.G.G.G.G.G.G.",
"G.G.G.G.G.G.G.G.G.G.G.G.G.G.G.< 0 O.T s.z ^ A.j.k G.G.G.G.G.G.G.",
"G.G.G.G.G.G.G.G.G.G.G.G.G.G.G.G.( q   x s.z ^ A.j.k G.G.G.G.G.G.",
"G.G.G.G.G.G.G.G.G.G.G.G.G.G.G.G.G.G.G.G.x s.z ^ A.k.k G.G.G.G.G.",
"G.G.G.G.G.G.G.G.G.G.G.G.G.G.G.G.G.G.G.G.G.x s.z ^ e.( 9 G.G.G.G.",
"G.G.G.G.G.G.G.G.G.G.G.G.G.G.G.G.G.G.G.G.G.G.x h.f f A.j.k G.G.G.",
"G.G.G.G.G.G.G.G.G.G.G.G.G.G.G.G.G.G.G.G.G.G.G.x ! x ^ 9.( k G.G.",
"G.G.G.G.G.G.G.G.G.G.G.G.G.G.G.G.G.G.G.G.G.G.G.G.s s.9 x D.a.( G.",
"G.G.G.G.G.G.G.G.G.G.G.G.G.G.G.G.G.G.G.G.G.G.G.G.G.x M ~ [ A.7 G.",
"G.G.G.G.G.G.G.G.G.G.G.G.G.G.G.G.G.G.G.G.G.G.G.G.G.G.# W ] 9.( G.",
"G.G.G.G.G.G.G.G.G.G.G.G.G.G.G.G.G.G.G.G.G.G.G.G.G.G.G.( 6 B 9.G.",
"G.G.G.G.G.G.G.G.G.G.G.G.G.G.G.G.G.G.G.G.G.G.G.G.G.G.G.G.G.G.G.G."
};
