/* XPM */
static char *qtconfig[] = {
/* columns rows colors chars-per-pixel */
"50 50 117 2 ",
"   c #0C481E",
".  c #104C1F",
"X  c #124F20",
"o  c #155221",
"O  c #185522",
"+  c #1C5A24",
"@  c #195329",
"#  c #225E29",
"$  c #256525",
"%  c #2C6D26",
"&  c #26612C",
"*  c #2A662F",
"=  c #2F7027",
"-  c #2E7028",
";  c #357629",
":  c #367929",
">  c #3C7F2B",
",  c #2D6831",
"<  c #316B35",
"1  c #377137",
"2  c #377238",
"3  c #427942",
"4  c #487D47",
"5  c #497F49",
"6  c #3E812B",
"7  c #41852C",
"8  c #468B2D",
"9  c #498E2E",
"0  c #4C922F",
"q  c #4F9630",
"w  c #559C32",
"e  c #5CA433",
"r  c #5FA834",
"t  c #62AC35",
"y  c #66B036",
"u  c #67B139",
"i  c #6BB23C",
"p  c #4D824C",
"a  c #538C49",
"s  c #5B9746",
"d  c #5E984C",
"f  c #528650",
"g  c #568A54",
"h  c #5D8E5A",
"j  c #61915E",
"k  c #66A646",
"l  c #6FB542",
"z  c #72B645",
"x  c #77B94D",
"c  c #78B94E",
"v  c #67A153",
"b  c #7BB757",
"n  c #7CBB53",
"m  c #679563",
"M  c #6A9867",
"N  c #6E9B6B",
"B  c #709D6D",
"V  c #74A565",
"C  c #7AA476",
"Z  c #82BB5F",
"A  c #80A97C",
"S  c #92BF7D",
"D  c #89C263",
"F  c #8DC46A",
"G  c #91C66E",
"H  c #95C874",
"J  c #97C77C",
"K  c #9BCC7C",
"L  c #86AC82",
"P  c #8AAF85",
"I  c #8CB187",
"U  c #96B790",
"Y  c #9CBC96",
"T  c #9EBE9A",
"R  c #A1CF84",
"E  c #A3D086",
"W  c #A5D189",
"Q  c #AAD38F",
"!  c #A7CC94",
"~  c #A2C09D",
"^  c #AED695",
"/  c #B2D799",
"(  c #B3D89C",
")  c #AAC5A6",
"_  c #AECDA0",
"`  c #AFCAAC",
"'  c #B1CAAC",
"]  c #BEDDAA",
"[  c #B5CDB2",
"{  c #B9D0B4",
"}  c #C1DFAE",
"|  c #C2E0AF",
" . c #C4E0B1",
".. c #C8E3B7",
"X. c #CADCC7",
"o. c #CCDDC8",
"O. c #CFE3C4",
"+. c #D4E9C7",
"@. c #D6EAC9",
"#. c #D9ECCD",
"$. c #D5E3D2",
"%. c #DAE7D4",
"&. c #DBEBD2",
"*. c #DDE9DB",
"=. c #E0EFD7",
"-. c #E1EBDE",
";. c #E4F1DB",
":. c #E4ECE2",
">. c #E8EFE6",
",. c #E8F3E1",
"<. c #EFF6EB",
"1. c #F1F8ED",
"2. c #F2F7F1",
"3. c #F5FAF2",
"4. c #F9FCF7",
"5. c #FFFFFF",
"6. c None",
/* pixels */
"6.6.6.6.6.6.6.6.6.  + 9 w e e w 0 8 6.6.6.6.6.6.6.6.6.6.6.6.6.6.6.6.6.6.6.6.6.6.6.6.6.6.6.6.6.6.6.6.",
"6.6.6.6.6.6.      > t y y y y y t y y y e w 0 8 6.6.6.6.6.6.6.6.6.6.6.6.6.6.6.6.6.6.6.6.6.6.6.6.6.6.",
"6.6.6.6.6.      $ t y y y y y y y y y y y y y y y y r w 0 8 6.6.6.6.6.6.6.6.6.6.6.6.6.6.6.6.6.6.6.6.",
"6.6.6.6.6.      r y y y y y y y y y y y y y y y y y y y y y y y t w q 8 6.6.6.6.6.6.6.6.6.6.6.6.6.6.",
"6.6.6.6.      + y y y y y y y y y y y y y y y y y y y y y y y y y y y y y y t e 0 9 7 6.6.6.6.6.6.6.",
"6.6.6.6.      = y y y y y y y y y y y y y y y y y y y y y y y y y y y y y y t y y y y y t q 6.6.6.6.",
"6.6.6.6.      6 y y y y y y y y y y y y y y y y y y y y y y y y y y y y y y y y y y y y t q 6.6.6.6.",
"6.6.6.6.      > y y y y y y y y y y y y y y y y y y y y y y y y y y y y y y y y y y y y y q 6.6.6.6.",
"6.6.6.6.      > y y y y y y y y y t y t y t u t y y y y y y y y y y y y y y y y y y y y y q 6.6.6.6.",
"6.6.6.6.      > y y y y y y y y y t q s V ( @. .G u y y y y y y y y y y y y y y y y y y y q 6.6.6.6.",
"6.6.6.6.      > y y y y y y y y 9 o Y 5.5.5.5.5.5.3.| z y y y y y t t u y y y y y y y y y q 6.6.6.6.",
"6.6.6.6.      > y y y y y y y 7 O { 5.5.5.5.5.5.5.5.5.;.l y y y y 7   >.1.@.y y y y y y t w 6.6.6.6.",
"6.6.6.6.      > y y y y y y 0   ' 5.5.5.5.5.5.3.5.5.5.5.&.i y y y = # 5.5.1.y y y y y y y q 6.6.6.6.",
"6.6.6.6.      > y y y y y y $ & 5.5.5.5.5...k $ h 5.5.5.5.| y y y + p 5.5.1.y y y y y y y q 6.6.6.6.",
"6.6.6.6.      > y y y y y e   A 5.5.5.5.;.i t e   P 5.5.5.4.i u e   P 5.5.1.y y y y y y y q 6.6.6.6.",
"6.6.6.6.      > y y y y y ; o 2.5.5.5.5./ u u y % + 5.5.5.5.J 9 v , *.5.5.1.y y y y y y y q 6.6.6.6.",
"6.6.6.6.      > y y y y y X p 5.5.5.5.5.G y y y 6   :.5.5.5.O.  ' 5.5.5.5.5.<.;.#.y y y y q 6.6.6.6.",
"6.6.6.6.      > y y y y t   B 5.5.5.5.5.z y y y w   Y 5.5.5.5.@ ' 5.5.5.5.5.5.5.5.y y y y q 6.6.6.6.",
"6.6.6.6.      > y y y y w   I 5.5.5.5.4.y y y y r   N 5.5.5.5.3 T 2.5.5.5.5.5.5.5.y y y y q 6.6.6.6.",
"6.6.6.6.      > y y y y q   ) 5.5.5.5.3.y y y y y   j 5.5.5.5.D $ < 5.5.5.1.b Z F y y y y q 6.6.6.6.",
"6.6.6.6.      > y y y y 8   o.5.5.5.5.<.y y y y y . g 5.5.5.5.H $ < 5.5.5.1.y y t y y y y q 6.6.6.6.",
"6.6.6.6.      > y y y y 6   <.5.5.5.5.,.y y y y y . p 5.5.5.5.R $ < 5.5.5.1.y y y y y y y q 6.6.6.6.",
"6.6.6.6.      > y y y y ; . 5.5.5.5.5.&.y y y y y O 3 5.5.5.5.^ $ < 5.5.5.1.y y y y y y y w 6.6.6.6.",
"6.6.6.6.      > y y y y ; . 5.5.5.5.5.;.y y y y y O 3 5.5.5.5.( $ < 5.5.5.1.y y y y y y y q 6.6.6.6.",
"6.6.6.6.      > y y y y 6   2.5.5.5.5.;.y y y y y o 5 5.5.5.5.Q $ < 5.5.5.1.y y y y y y y q 6.6.6.6.",
"6.6.6.6.      > y y y y 7   $.5.5.5.5.<.y y y y y . f 5.5.5.5.R $ < 5.5.5.1.y y y y y y y q 6.6.6.6.",
"6.6.6.6.      > y y y y 9   { 5.5.5.5.3.y y y y y   h 5.5.5.5.H $ < 5.5.5.1.y y y y y y y q 6.6.6.6.",
"6.6.6.6.      > y y y y q   T 5.5.5.5.4.y y y y t   m 5.5.5.5.F $ < 5.5.5.1.y y y y y y u q 6.6.6.6.",
"6.6.6.6.      > y y y y w   L 5.5.5.5.5.z y y y e   C 5.5.5.5.n $ < 5.5.5.1.y y y y y y y q 6.6.6.6.",
"6.6.6.6.      > y y y y t o 5 5.5.5.5.5.G y y y 0   ' 5.5.5.<.y $ < 5.5.5.1.y y y y y y y q 6.6.6.6.",
"6.6.6.6.      > y y y y u = O 5.5.5.5.5.^ y y u 6   2.5.5.5.| y $ < 5.5.5.4.u t u u y y y q 6.6.6.6.",
"6.6.6.6.      6 y y y y y 9   [ 5.5.5.5.+.y y u $ & 5.5.5.5.K y % * 5.5.5.5.n t e u y y y q 6.6.6.6.",
"6.6.6.6.      > y y y y y t X h 5.5.5.5.5.F y w   ` 5.5.5.3.z y ; O 5.5.5.5.%.I *.D y y y q 6.6.6.6.",
"6.6.6.6.      > y y y y y y ; O -.5.5.5.5.1.S 2 U 5.5.5.5.E y y 9   $.5.5.5.5.5.5.D y y y q 6.6.6.6.",
"6.6.6.6.      > y y y y y y t $ < 4.5.5.5.5.5.5.5.5.5.5.#.y y y t $ 3 5.5.5.5.5.,.n y y y q 6.6.6.6.",
"6.6.6.6.      > y y y y y y t r X h 5.5.5.5.5.5.5.5.5.#.c y y y y t 6 d ! | R x y y y y y q 6.6.6.6.",
"6.6.6.6.      > y y y y y y y y r : 1 ~ 5.5.5.5.5.2.R y y y y y y y y y y y y y y y y y y q 6.6.6.6.",
"6.6.6.6.      > y y y y y y y y y y t $ < 5.5.5.5.=.y y y y y y y y y y y y y y y y y y y q 6.6.6.6.",
"6.6.6.6.      > y y y y y y y y y y y 8   X.5.5.5.5.D y y y y y y y y y y y y y y y y y y 0 6.6.6.6.",
"6.6.6.6.      > y y y y y y y y y y y e   M 5.5.5.5.<.] F y y y y y y y y y y y y y y y y 8 6.6.6.6.",
"6.6.6.6.      > y y y y y y y y y y y y % + 2.5.5.5.5.5.| y y y y y y y y y y y y y y y y 6.6.6.6.6.",
"6.6.6.6.      > y y y y y y y y y y y y t + 4 5.5.5.5.5.} y y y y y y y y y y y y y y t w 6.6.6.6.6.",
"6.6.6.6.      > y y y y y y y y y y y y t t : a Y %.<.;.W y y y y y y y y y y y y y y t 6.6.6.6.6.6.",
"6.6.6.6.      > y y y y y y y y y y y y y y y y y y y y y y y y y y y y y y u u y y e 6.6.6.6.6.6.6.",
"6.6.6.6.      > y y y y y y y y y y y y y y y y y y y y y y y y y u y y y t w 0 8 6.6.6.6.6.6.6.6.6.",
"6.6.6.6.      > y y y y y y y y y y y y y y y y y y y y y y y t w 0 9 6.6.6.6.6.6.6.6.6.6.6.6.6.6.6.",
"6.6.6.6.      > y y y y y y y y y y y y y y y y u t w 0 8 7 6.6.6.6.6.6.6.6.6.6.6.6.6.6.6.6.6.6.6.6.",
"6.6.6.6.6.    > y y y y y y y y y y y t e 0 9 7 6.6.6.6.6.6.6.6.6.6.6.6.6.6.6.6.6.6.6.6.6.6.6.6.6.6.",
"6.6.6.6.6.6.  > t y y y y t e q 8 7 6.6.6.6.6.6.6.6.6.6.6.6.6.6.6.6.6.6.6.6.6.6.6.6.6.6.6.6.6.6.6.6.",
"6.6.6.6.6.6.6.6 e q 9 7 6.6.6.6.6.6.6.6.6.6.6.6.6.6.6.6.6.6.6.6.6.6.6.6.6.6.6.6.6.6.6.6.6.6.6.6.6.6."
};
