/* XPM */
static char *rox_mime_editor[] = {
/* columns rows colors chars-per-pixel */
"47 47 256 2 ",
"   c #010101",
".  c #070806",
"X  c #090807",
"o  c #0B0B0A",
"O  c #070807",
"+  c #0A100F",
"@  c #11110E",
"#  c #0D1412",
"$  c #141512",
"%  c #181716",
"&  c #101817",
"*  c #181916",
"=  c #131B1A",
"-  c #1C1D1A",
";  c #201F1B",
":  c #14211E",
">  c #1F201D",
",  c #22211E",
"<  c #162422",
"1  c #1E2C2A",
"2  c #182725",
"3  c #1F322E",
"4  c #1F3730",
"5  c #252522",
"6  c #282722",
"7  c #252822",
"8  c #2A2926",
"9  c #262928",
"0  c #2E2E29",
"q  c #302E27",
"w  c #312F2A",
"e  c #2F3029",
"r  c #27312D",
"t  c #34322C",
"y  c #3E3B2F",
"u  c #39372D",
"i  c #393734",
"p  c #3B3932",
"a  c #3D3E38",
"s  c #333837",
"d  c #423E33",
"f  c #2A433F",
"g  c #3B453E",
"h  c #39483E",
"j  c #44443D",
"k  c #4B473B",
"l  c #494534",
"z  c #514D38",
"x  c #5A573B",
"c  c #605C3E",
"v  c #2E4D45",
"b  c #384643",
"n  c #2F504A",
"m  c #30544C",
"M  c #395954",
"N  c #434C40",
"B  c #4A4B44",
"V  c #474A46",
"C  c #514E4A",
"Z  c #555244",
"A  c #595444",
"S  c #55554B",
"D  c #5B5649",
"F  c #5B594D",
"G  c #5D5B53",
"H  c #5D5D5A",
"J  c #565450",
"K  c #615E56",
"L  c #5F6056",
"P  c #57645C",
"I  c #696544",
"U  c #77734D",
"Y  c #636152",
"T  c #696450",
"R  c #64625C",
"E  c #68675C",
"W  c #6B6B5F",
"Q  c #7B755E",
"!  c #767252",
"~  c #596261",
"^  c #487A6F",
"/  c #47766C",
"(  c #4F7772",
")  c #6A6660",
"_  c #6B6C62",
"`  c #656B60",
"'  c #717166",
"]  c #7A776C",
"[  c #77786A",
"{  c #7A796B",
"}  c #71726A",
"|  c #647F79",
" . c #7D7E73",
".. c #827C62",
"X. c #468573",
"o. c #4A8676",
"O. c #4E8779",
"+. c #4E8B79",
"@. c #52887D",
"#. c #50877B",
"$. c #7F8170",
"%. c #8C875A",
"&. c #8F8A6E",
"*. c #958F60",
"=. c #838375",
"-. c #86867A",
";. c #878878",
":. c #8C8C7C",
">. c #948F70",
",. c #9D9879",
"<. c #A29C6A",
"1. c #A19D7D",
"2. c #A6A17F",
"3. c #B1AA72",
"4. c #BEB67A",
"5. c #C1B97B",
"6. c #5C8A85",
"7. c #589080",
"8. c #658E8D",
"9. c #738881",
"0. c #619787",
"q. c #6C9D8F",
"w. c #74A496",
"e. c #838885",
"r. c #908D84",
"t. c #8F9080",
"y. c #8E908A",
"u. c #939484",
"i. c #95938B",
"p. c #9C9C8D",
"a. c #969886",
"s. c #8B9D9B",
"d. c #9E9D92",
"f. c #A19E96",
"g. c #9FA18E",
"h. c #8BB48D",
"j. c #86B58F",
"k. c #9AA29F",
"l. c #8CB793",
"z. c #8EB993",
"x. c #94BA94",
"c. c #9BBD97",
"v. c #94BC99",
"b. c #9DBF9A",
"n. c #9AB79C",
"m. c #A7A383",
"M. c #B0AC8C",
"N. c #B8B38E",
"B. c #A4A593",
"V. c #A7A798",
"C. c #A8A69B",
"Z. c #ABAC9A",
"A. c #A8AA96",
"S. c #AFB09C",
"D. c #B2B49B",
"F. c #BAB693",
"G. c #82ADA0",
"H. c #99A4A1",
"J. c #88B0A5",
"K. c #97B4AB",
"L. c #ACACA0",
"P. c #B1AEA8",
"I. c #B3B4A1",
"U. c #B7B9A3",
"Y. c #BBBCAB",
"T. c #B9B7AC",
"R. c #ADB5B3",
"E. c #BFBFBA",
"W. c #BEBEB0",
"Q. c #C0BE98",
"!. c #9CC19E",
"~. c #A4C29D",
"^. c #A9C49F",
"/. c #A4C5A3",
"(. c #ACC6A2",
"). c #AAC9A9",
"_. c #BFC1AA",
"`. c #B3CCAA",
"'. c #BACFAC",
"]. c #B0C9A5",
"[. c #BCD1AE",
"{. c #B4CFB0",
"}. c #BED4B5",
"|. c #B9D2B4",
" X c #CAC59E",
".X c #C3C4AD",
"XX c #CFCBA6",
"oX c #C4C5B2",
"OX c #C7C9B3",
"+X c #CBCCB4",
"@X c #CDCEBA",
"#X c #C4D5B3",
"$X c #CBD4B3",
"%X c #C4D7BA",
"&X c #C5D9BD",
"*X c #CDDABA",
"=X c #CDD5B8",
"-X c #D1D2BC",
";X c #D4DABC",
":X c #DBD9B4",
">X c #E0DCAF",
",X c #E2DFB6",
"<X c #D6E0BE",
"1X c #E5E1B5",
"2X c #E6E3BA",
"3X c #E9E6BC",
"4X c #EBE9BF",
"5X c #B5CFC7",
"6X c #C4C9C4",
"7X c #D0CCC6",
"8X c #C6D2CF",
"9X c #D4D4C2",
"0X c #D4DFC1",
"qX c #DBDCC2",
"wX c #CDD9D5",
"eX c #DCD8D2",
"rX c #D4E0C3",
"tX c #DBE2C4",
"yX c #D6E4CA",
"uX c #DEE5CA",
"iX c #DEE8CD",
"pX c #DCE7D0",
"aX c #E4E6C5",
"sX c #E6E8C7",
"dX c #EEEBC4",
"fX c #E3E5CA",
"gX c #E7E9CC",
"hX c #E9EBCD",
"jX c #E8E6C2",
"kX c #F0EEC6",
"lX c #F1EEC9",
"zX c #F4F2CC",
"xX c #E5E6D4",
"cX c #E7E9D2",
"vX c #ECEED3",
"bX c #E7E8D8",
"nX c #E9ECD8",
"mX c #F1EED3",
"MX c #F2EEDA",
"NX c #EFF0D6",
"BX c #EFF0DE",
"VX c #F7F6D1",
"CX c #F8F7D2",
"ZX c #FAF9D5",
"AX c #F2F3DC",
"SX c #FDFDDA",
"DX c #F3EFEA",
"FX c #F0EBE6",
"GX c #F5F6E2",
"HX c #F7F8E5",
"JX c #F8F9E6",
"KX c #F6F2EC",
"LX c #F9FAE8",
"PX c #F9F5EE",
"IX c #FAF6F3",
"UX c None",
/* pixels */
"UXUXUXUXUXUXUXUXUXUXUXUXUXUXUXUXUXUXUXUXUXUXUXUXUXUXUXUXUXUXUXUXUXUXUXUXUXUXUXUXUXUXUXUXUXUXUX",
"UXUXUXUXUXUXUXUXUXUXUXUXUXUXUXUXUXUXUXUXUXUXUXUXUXUXUXUXUXUXUXUXUXUXUXUXUXUXUXUXUX  o UXUXUXUX",
"UXUXUXUXUXUXUXUXUXUXUXUXUXUXUXUXUXUXUXUXUXUXUXUXUXUXUXUXUXUXUX              UXUXX B     UXUXUX",
"UXUXUXUXUXUXUXUXUXUXUXUXUXUXUXUXUXUXUXUXUXUXUX        @ , d G ] r.f.C.P.H u g - 5 u.. s   UXUX",
"UXUXUXUXUXUXUXUXUXUXUXUXUXUXUXUXUXUXUX    $ i W r.T.eXFXIXPXGXMXMXmXlXKXe.wXV 5 9Xt.  <   UXUX",
"UXUXUXUXUXUXUXUXUXUXUXUXUXUX    @ C -.P.eXDXIXDXDXMXmXlXdXdXlXzXzXVXLX6XX.4 o @XoXU.  1 . UXUX",
"UXUXUXUXUXUXUXUXUX    X , G i.7XDXGXMXmXhXdXdXkXlXzXzXCXZXSXSXSXSXZXPX_.4 * OXgX:.tX  2   UXUX",
"UXUXUXUXUXUX    $ W p.9XMXmXhXdXdXkXlXzXVXVXZXSXSXSXSXZXVXVXzXzXkXdXAXH $ OXhXqXg..X  =   UXUX",
"UXUX    = b ~ B ,XkXdXkXzXzXVXZXZXSXSXSXZXCXVXzXzXzXkXkX3X4X3X1X,X>XT * .XhXhXa.fXA.o     UXUX",
"UX# 9.8XwX5XP jXCXZXZXZXSXSXZXZXVXzXzXkXkXdX4X3X2X1X,X>X XN.2.>...y $ oXcXhXfXu.gXt.o UXUXUXUX",
"  v q.7.o.o.g sXZXCXCXzXzXdXdXdXdX3X3X1X>X XN.2.&.Q T Z A D z d q . U.gXgXhXB.-XgXL X UXUXUXUX",
"  3 m n v f r { 2X,X:XXX XF.M.m.,.&.Q T A A S z l d y k C K ..U.@ -.cXgXgXcX;.cXgX, UXUXUXUXUX",
"UX+ < < = = # t F D D D D D x k l p y l k S F { S.9XAXGXJXJXJX_ g gXgXgXgXC.+XgXqX  UXUXUXUXUX",
"UX            . t D D F D Y W :.I.@XnXNXAXAXAXAXGXAXHXGXpX6Xn.. U.gXhXcXgXt.gXhXB.. UXUXUXUXUX",
"UXUXUXUXUXUXUXX B.hXvXhXvXvXNXNXNXgXuX0X&X|./.!.j.l.l.v./.%XW g gXgXcXgXB.@XgXcXB   UXUXUXUXUX",
"UXUXUXUXUXUXUX, qX$Xx.h.h.j.h.h.j.v.!.).{.|.yXnXHXAXHXnXyX|.7 a.cXgXgXgXt.hXgXqX  UXUXUXUXUXUX",
"UXUXUXUXUXUXUXt hXaXfXvXvXvXvXvXNXuXrX&X#X{.!.z.z.z.z.!.).}.O _.gXcXhXg.;XgXgX-.X UXUXUXUXUXUX",
"UXUXUXUXUXUXUXj gX#Xh.h.j.h.l.h.z.!./.`.}.%XiXAXAXGXGXAXGX9XO fXgXcXqXu.gXcXfX% UXUXUXUXUXUXUX",
"UXUXUXUXUXUX  S hXhXhXhXhXvXVXvXNXAXNXAXAXnX+XV.u.OXGXGXGXT.= gXgXgX:.fXgXgX[ O UXUXUXUXUXUXUX",
"UXUXUXUXUXUX  =.sX(.~.c.x.h.h.h.h.h.l.].-.$         $ 7XGX9X  fXgXS._.gXcX+X. UXUXUXUXUXUXUXUX",
"UXUXUXUXUXUX. D.hX#X;XrXfXNXhXhXNXNXNX'               t GXGX  OXqXu.gXgXqX9 . UXUXUXUXUXUXUXUX",
"UXUXUXUXUXUX$ ;XtX].].^.~.~.!.!.x.[.NXS   a ' $.-       AXHX* Z.:.fXhX@X5 X UXUXUXUXUXUXUXUXUX",
"UXUXUXUXUXUX, hXaX#X#X*X;XrXtXuXaXgXNX_ .XAXAXAXC.    5 GX9Xx Q..X@Xp.% a   UXUXUXUXUXUXUXUXUX",
"UXUXUXUXUXUXu sXhXhXhXhXvXhXvXmXNXNXNXNXNXAXNXnXp      .GXZ 4.5.!   9 Z.}   UXUXUXUXUXUXUXUXUX",
"UXUXUXUXUXUXj sX<Xh.h.h.h.h.h.h.`.NXNXNXNXMXuX0     } AXB.%.5.4.p bXHXLXJ   UXUXUXUXUXUXUXUXUX",
"UXUXUXUXUX  G sXhXdXsXhXhXhXvXvXvXvXNXNXNX-X,   . V.AXxXk 5.5.x W.JXLXLXV   UXUXUXUXUXUXUXUXUX",
"UXUXUXUXUX  :.sX=X[.[.'.[.`.`.`.%XvXNXNXAXj   * 9XAXAX_ 3.5.<.E HXJXJXLXp UXUXUXUXUXUXUXUXUXUX",
"UXUXUXUXUX  D.sX#X`.'.[.[.#X#X#XtXvXvXNXNX$   ' AXAXoXI 5.4.u bXHXHXLXPX6 UXUXUXUXUXUXUXUXUXUX",
"UXUXUXUXUX+ XXsXsXhXsXhXhXhXhXhXvXvXvXAXcXL L Y.AXAXZ 5.5.x Y.HXHXHXJXxX- UXUXUXUXUXUXUXUXUXUX",
"UXUXUXUXUX* ;XsX^.h.h.h.h.h.h.h.x.uXvXNXZ.F j I.AXfXx 4.*.{ GXHXHXHXJXoXo UXUXUXUXUXUXUXUXUXUX",
"UXUXUXUXUX- aXsXsXhXhXgXvXhXvXvXfXvXvXgXo     8 AXV.%.U W AXGXGXHXHXJXp.  UXUXUXUXUXUXUXUXUXUX",
"UXUXUXUXUX6 sXsX*X*X*X;X;X0XhXvXvXvXvXvX$     W BXE z -.GXGXGXGXHXHXJX_             .   UXUXUX",
"UXUXUXUXUXe sXaX~.~.~.~.~.b.h.h.h.~.AXNXvXZ.@XAXAXY.oXAXAXGXGXGXHXHXHXJ R y.k.R.5X8Xs.v   UXUX",
"UXUXUXUXUXt aXsXsXsXhXhXhXhXhXhXhXvXvXvXNXAXvXVXNXAXBXGXAXGXGXGXGXHXLXB K.J.w.0.@.s.8.( # UXUX",
"UXUXUXUXUX0 aXsXsXhXhXhXhXvXvXhXvXNXvXvXNXNXNXAXAXAXAXAXAXGXGXGXGXGXnXg X.X.X.X.o.$.6.6.< UXUX",
"UXUXUXUXUXe aXsXsXsXsXhXhXhXhXvXhXvXvXNXNXNXAXNXAXAXAXAXGXAXGXGXHXHXBXg o.o.o.O.O.M 6./ # UXUX",
"UXUXUXUXUXt sXsXsXsXsXhXhXhXhXvXhXNXvXvXvXNXNXAXAXAXAXAXAXGXGXGXGXHXHXN #.#.@.@.#./ M 4   UXUX",
"UX  . H 9.j aXaXsXsXhXhXhXhXhXhXvXvXvXNXNXNXNXNXAXNXAXGXAXGXGXGXGXHXHXE h N 1 = # O     UXUXUX",
"  9 H.K.G.g +XdXsXhXsXhXhXhXhXvXhXvXvXvXvXAXMXMXAXAXAXAXAXbX9XW.C.d.i.i.$ X       UXUXUXUXUXUX",
"  < X.o.o.v =.jXsXsXsXhXhXhXhXhXvXvXvXvXvXvXfX@XU.C.u. .) R R S V i w - .   UXUXUXUXUXUXUXUXUX",
"  < O.O.#.^ j ;XsXsXaX;X;X-X+XOXY.S.p.;.] R R K K G C B i i , *     UXUXUXUXUXUXUXUXUXUXUXUXUX",
"UX  3 3 2 = 6 G E K G K K K K K G J C C j i t 8 5 - X     UXUXUXUXUXUXUXUXUXUXUXUXUXUXUXUXUXUX",
"UXUX          , 5 6 8 w q 6 ; ; % $ O       UXUXUXUXUXUXUXUXUXUXUXUXUXUXUXUXUXUXUXUXUXUXUXUXUX",
"UXUXUXUXUXUXUXUX            UXUXUXUXUXUXUXUXUXUXUXUXUXUXUXUXUXUXUXUXUXUXUXUXUXUXUXUXUXUXUXUXUX",
"UXUXUXUXUXUXUXUXUXUXUXUXUXUXUXUXUXUXUXUXUXUXUXUXUXUXUXUXUXUXUXUXUXUXUXUXUXUXUXUXUXUXUXUXUXUXUX",
"UXUXUXUXUXUXUXUXUXUXUXUXUXUXUXUXUXUXUXUXUXUXUXUXUXUXUXUXUXUXUXUXUXUXUXUXUXUXUXUXUXUXUXUXUXUXUX",
"UXUXUXUXUXUXUXUXUXUXUXUXUXUXUXUXUXUXUXUXUXUXUXUXUXUXUXUXUXUXUXUXUXUXUXUXUXUXUXUXUXUXUXUXUXUXUX"
};
