/* XPM */
static char *system_file_manager[] = {
/* columns rows colors chars-per-pixel */
"16 16 130 2 ",
"   c #71736E",
".  c #7F827D",
"X  c #868983",
"o  c #888A85",
"O  c #8C8E89",
"+  c #8D8F89",
"@  c #8D8F8A",
"#  c #8D8F8B",
"$  c #8E908B",
"%  c #8F918C",
"&  c #90928C",
"*  c #90928D",
"=  c #90938D",
"-  c #91938E",
";  c #92948E",
":  c #92948F",
">  c #93958F",
",  c #939590",
"<  c #939690",
"1  c #949691",
"2  c #959892",
"3  c #979994",
"4  c #979A94",
"5  c #989A95",
"6  c #9A9C97",
"7  c #9A9D97",
"8  c #9C9F99",
"9  c #9D9F99",
"0  c #9D9F9A",
"q  c #9FA29C",
"w  c #A0A29C",
"e  c #A2A49E",
"r  c #A2A59F",
"t  c #A4A7A1",
"y  c #A5A7A1",
"u  c #A7A9A3",
"i  c #A7AAA4",
"p  c #A8ABA4",
"a  c #A9ACA6",
"s  c #AAACA6",
"d  c #ABAEA7",
"f  c #ACAFA8",
"g  c #ADB0AA",
"h  c #AFB1AB",
"j  c #B1B4AD",
"k  c #B2B4AE",
"l  c #B3B6AF",
"z  c #B4B6B0",
"x  c #B4B7B0",
"c  c #B4B7B1",
"v  c #B5B7B1",
"b  c #B5B8B1",
"n  c #B6B8B2",
"m  c #B6B9B2",
"M  c #B7BAB3",
"N  c #B8BAB4",
"B  c #B8BBB4",
"V  c #B9BAB7",
"C  c #B9BCB5",
"Z  c #BABDB6",
"A  c #BCBDB8",
"S  c #BDBEB9",
"D  c #BDBFB9",
"F  c #BEC1BA",
"G  c #C0C3BC",
"H  c #C1C4BE",
"J  c #C2C4BE",
"K  c #C6C8C2",
"L  c #C7C9C3",
"P  c #CACCC6",
"I  c #CACCC7",
"U  c #CBCDC8",
"Y  c #CBCCC9",
"T  c #CCCECA",
"R  c #CFD0CC",
"E  c #CFD1CC",
"W  c #D0D0CD",
"Q  c #D1D3CE",
"!  c #D2D3CF",
"~  c #D2D4CF",
"^  c #D3D5D1",
"/  c #D5D7D2",
"(  c #D6D6D4",
")  c #D6D8D4",
"_  c #D7D8D4",
"`  c #D8DAD5",
"'  c #D9DAD6",
"]  c #DADBD7",
"[  c #DBDCD8",
"{  c #DCDEDA",
"}  c #DDDEDA",
"|  c #DDDFDB",
" . c #DFE0DD",
".. c #E0E1DE",
"X. c #E1E3DE",
"o. c #E1E2DF",
"O. c #E2E2DF",
"+. c #E2E3E0",
"@. c #E3E5E0",
"#. c #E3E5E2",
"$. c #E4E4E2",
"%. c #E6E6E3",
"&. c #E6E7E4",
"*. c #E7E7E4",
"=. c #E6E8E3",
"-. c #E7E8E6",
";. c #E9E9E6",
":. c #E9EBE7",
">. c #E9EAE8",
",. c #EAEAE8",
"<. c #EBEDE8",
"1. c #EBEDE9",
"2. c #EDEEEB",
"3. c #EDEDEC",
"4. c #EDEEEC",
"5. c #EEEEEC",
"6. c #EFEFED",
"7. c #F0F0EF",
"8. c #F0F1EF",
"9. c #F1F3F0",
"0. c #F1F2F1",
"q. c #F2F4F1",
"w. c #F6F6F5",
"e. c #F8F8F7",
"r. c #F8F9F8",
"t. c #FAFAF9",
"y. c #FBFBFB",
"u. c #FDFDFD",
"i. c white",
"p. c None",
/* pixels */
"p.p.p.Z Z B B B z M z z M p.p.p.",
"p.p.Z 5.2.2.2.5.5.2.2.2.2.k p.p.",
"p.M 0.e.e.y.i.i.i.t.y.e.w.6.h p.",
"p.z =.Z Z Z Z Z V Z Z Z Z ' a p.",
"p.j :.j 2.q.y.i.e.0.2.X.l Q p p.",
"p.h 2.p 2.$.i.i.i.2.S L p U y p.",
"p.f 8.9 $.W V - o O z F q Q r p.",
"p.a 5.-  ._ Q P K J Z J - } w p.",
"p.u $.X X X X X X X X X X &.9 p.",
"p.u  .a =.0.y.i.r.8.1.@.a 8.7 p.",
"p.r ' q H ! i.i.i.5.Y :.9 ,.5 p.",
"p.q Q $ S V V - o O ( &.O o.2 p.",
"p.9 P . P ! ' @.,.,.o.[ . _ 1 p.",
"p.6 ^                     U - p.",
"p.4 } @.,.8.2.-.o.[ / E P Y $ p.",
"p.4 1 1 : : - - - $ $ O $ O O p."
};
