/* XPM */
static char *unetbootin[] = {
/* columns rows colors chars-per-pixel */
"14 14 36 1 ",
"  c black",
". c #040404",
"X c #060606",
"o c #070707",
"O c gray3",
"+ c gray4",
"@ c #494949",
"# c #686868",
"$ c #6C6C6C",
"% c #6F6F6F",
"& c #727272",
"* c gray46",
"= c #797979",
"- c #7C7C7C",
"; c gray50",
": c #8E8E8E",
"> c #939393",
", c #989898",
"< c #9D9D9D",
"1 c gray62",
"2 c #A2A2A2",
"3 c gray64",
"4 c #A7A7A7",
"5 c gray66",
"6 c #ACACAC",
"7 c gray68",
"8 c #B1B1B1",
"9 c #B2B2B2",
"0 c #B4B4B4",
"q c #B6B6B6",
"w c #B7B7B7",
"e c #BBBBBB",
"r c #C0C0C0",
"t c #C3C3C3",
"y c #C5C5C5",
"u c None",
/* pixels */
"uuuuuuuuuu  uu",
"uuuuuuuuu 2< u",
"uuuuuuuu 42,: ",
"u       66<>#O",
"u yr6- 862,$Xu",
"uu 6- w84<&Xuu",
"uuu  ew62&Xuuu",
"uuu re84*XXuuu",
"uu yre6- w uuu",
"uu re8-Xyw uuu",
"uu@ w- +y6 uuu",
"u@@@  uu - uuu",
"uu@uuuuuu  uuu",
"uuuuuuuuuuuuuu"
};
