/* XPM */
static char *Uninstall[] = {
/* columns rows colors chars-per-pixel */
"24 24 252 2 ",
"   c black",
".  c #0D1818",
"X  c #101818",
"o  c #162021",
"O  c #102329",
"+  c #112429",
"@  c #122629",
"#  c #132729",
"$  c #152828",
"%  c #152829",
"&  c #172829",
"*  c #182829",
"=  c #1B3029",
"-  c #173235",
";  c #193131",
":  c #193435",
">  c #1F3831",
",  c #193842",
"<  c #284142",
"1  c #294142",
"2  c #2A5353",
"3  c #2B5555",
"4  c #2C5656",
"5  c #22505A",
"6  c #2B5858",
"7  c #2F595A",
"8  c #2C5B5E",
"9  c #2D5C5E",
"0  c #2F5E61",
"q  c #2D5D63",
"w  c #2F6162",
"e  c #2E636D",
"r  c #2D636F",
"t  c #336666",
"y  c #30666B",
"u  c #336B6E",
"i  c #2F6571",
"p  c #2E6472",
"a  c #366D70",
"s  c #336B74",
"d  c #326A77",
"f  c #326C76",
"g  c #356E75",
"h  c #336D79",
"j  c #326D7F",
"k  c #377172",
"l  c #377177",
"z  c #377277",
"x  c #347079",
"c  c #367179",
"v  c #367279",
"b  c #387379",
"n  c #3D7778",
"m  c #4D6568",
"M  c #416B68",
"N  c #426B68",
"B  c #436B68",
"V  c #456B68",
"C  c #4C6B68",
"Z  c #506568",
"A  c #576568",
"S  c #5D6568",
"D  c #5B6B68",
"F  c #616568",
"G  c #676568",
"H  c #647168",
"J  c #3C6584",
"K  c #347594",
"L  c #397594",
"P  c #397894",
"I  c #406984",
"U  c #436C84",
"Y  c #506984",
"T  c #536A84",
"R  c #5A6C84",
"E  c #6A7184",
"W  c #6B7184",
"Q  c #6D7284",
"!  c #6D7584",
"~  c #737384",
"^  c #737484",
"/  c #757584",
"(  c #777584",
")  c #7C7684",
"_  c #7E7784",
"`  c #3B8091",
"'  c #3E8490",
"]  c #3F93B5",
"[  c #438384",
"{  c #4E8A8C",
"}  c #46928C",
"|  c #45939C",
" . c #4D989A",
".. c #6A9E9C",
"X. c #79909C",
"o. c #4390A3",
"O. c #4291AD",
"+. c #4899A9",
"@. c #4491B5",
"#. c #469BB9",
"$. c #439BBD",
"%. c #59A0A2",
"&. c #5AAEAD",
"*. c #4BA3B5",
"=. c #4CA5BD",
"-. c #50A8B5",
";. c #55AFB5",
":. c #57AFBB",
">. c #58B1B4",
",. c #59B5B5",
"<. c #55B7BD",
"1. c #64A3A8",
"2. c #65A3A8",
"3. c #67A3A8",
"4. c #69A3A8",
"5. c #6BA3A8",
"6. c #6CA3A8",
"7. c #6EA3A8",
"8. c #71A3A8",
"9. c #78A3A8",
"0. c #7EA3A8",
"q. c #7FA3A8",
"w. c #6DA9B4",
"e. c #6FA9B4",
"r. c #71A9B4",
"t. c #76A9B4",
"y. c #63B6B5",
"u. c #67B6B5",
"i. c #62B7BA",
"p. c #62BEBD",
"a. c #4BA3C2",
"s. c #47A6CE",
"d. c #4BABCE",
"f. c #50AAC2",
"g. c #4BA1D6",
"h. c #4AA4D6",
"j. c #4BA7D6",
"k. c #4FADD6",
"l. c #4EAFDE",
"z. c #4FAFDE",
"x. c #51ACD6",
"c. c #55AED6",
"v. c #4FB3DE",
"b. c #4FB5DE",
"n. c #52B2D0",
"m. c #55B2D6",
"M. c #58B6D6",
"N. c #5BB9D6",
"B. c #5CBBD6",
"V. c #51B5DE",
"C. c #51B7DE",
"Z. c #54B7DE",
"A. c #54BADE",
"S. c #55BADE",
"D. c #55BBDE",
"F. c #58BFDA",
"G. c #58BEDE",
"H. c #61BFD6",
"J. c #58C0DE",
"K. c #5BC4DE",
"L. c #5EC6DE",
"P. c #68C7C9",
"I. c #61C1D6",
"U. c #67C7D6",
"Y. c #67C9D6",
"T. c #6DCBD6",
"R. c #60CCDE",
"E. c #62CCDE",
"W. c #62CEDE",
"Q. c #71CBD6",
"!. c #73CBD6",
"~. c #74CBD6",
"^. c #77CBD6",
"/. c #78CBD6",
"(. c #7ACBD6",
"). c #7CCBD6",
"_. c #7ECBD6",
"`. c #6CD1D4",
"'. c #67D2DE",
"]. c #6DD7DA",
"[. c #68D2DE",
"{. c #68D5DE",
"}. c #6BD9DE",
"|. c #6DDBDE",
" X c #71DBDE",
".X c #73DBDE",
"XX c #76DBDE",
"oX c #77DBDE",
"OX c #7ADBDE",
"+X c #7CDBDE",
"@X c #7EDBDE",
"#X c #818F94",
"$X c #80919C",
"%X c #87929C",
"&X c #82949C",
"*X c #8B949C",
"=X c #90969C",
"-X c #91969C",
";X c #95979C",
":X c #96989C",
">X c #97989C",
",X c #99999C",
"<X c #9B9A9C",
"1X c #9C9A9C",
"2X c #83A3A8",
"3X c #8CA3A8",
"4X c #98A3A8",
"5X c #8BA9B4",
"6X c #9DA9B4",
"7X c #A2A9B4",
"8X c #A9A9B4",
"9X c #8ABCC0",
"0X c #8AC2CD",
"qX c #80CBD6",
"wX c #81CBD6",
"eX c #84CBD6",
"rX c #86CBD6",
"tX c #8FCBD6",
"yX c #94CBD6",
"uX c #99CBD6",
"iX c #80DBDE",
"pX c #A3C2CD",
"aX c #AEC2CD",
"sX c #B8C3C6",
"dX c #A0CBD6",
"fX c #A7CBD6",
"gX c #AACBD6",
"hX c #ABCBD6",
"jX c #B9CBD6",
"kX c #C3CBD6",
"lX c #C8CBD6",
"zX c #D0CBD6",
"xX c #E5FFFF",
"cX c #E7FFFF",
"vX c #E9FFFF",
"bX c #EAFFFF",
"nX c #ECFFFF",
"mX c #EFFFFF",
"MX c azure",
"NX c #F1FFFF",
"BX c #F2FFFF",
"VX c #F3FFFF",
"CX c #F4FFFF",
"ZX c #F5FFFF",
"AX c #F6FFFF",
"SX c #F7FFFF",
"DX c #F9FFFF",
"FX c #FBFFFF",
"GX c #FCFFFF",
"HX c #FDFFFF",
"JX c #FEFFFF",
"KX c None",
/* pixels */
"KXKXKXKXKXKXKXKX    KXKXKXKXKXKXKXKXKXKXKXKXKXKX",
"KXKXKXKXKXKX    xXNX    KXKXKXKXKXKXKXKXKXKXKXKX",
"KXKXKXKXo = DXGXF H NXbX    KXKXKXKXKXKXKXKXKXKX",
"KXKX1 > ZXGXA D C V 2X4XmXNX    KXKXKXKXKXKXKXKX",
"KXKX1 qXDXG m B B B 6.5.0.8XDXmX    KXKXKXKXKXKX",
"KXKX* qXuXbXDXS B B 5.5.5.6.9.7XDXZX    KXKXKXKX",
"KXKX& (.iX_.yXmXZXm e.3.5.3.5.5.8.3XDXDX    KXKX",
"KXKX& ^.+X+X+X_.gXGXxX0Xw.3.3.5.5.5.6.6XZXsX  KX",
"KXKX% Q.oX%.OXOX+XyXkXGXmX9X3.1.3.3.3.5.2XNX  KX",
"KXKX% T. X& 6 i.XXOXOXrXjXZXmXpXr.3.1.t.bXlX  KX",
"KXKX# Y.|.; 2 3 n P.XXXXXX_.gXZXZXaX5XZXlX..  KX",
"KXKX@ I.'.: w k t 3 [ `.XXXXXX^.uXZXGXgXu.  KXKX",
"KXKX@ N.L.: q b b u t 6  .]. X XXX^.^.y.{   KXKX",
"KXKXO M.K.+.e s b x g u 8 9 >.|. XT.p.&.  KXKXKX",
"KXKX, c.G.J.F.o.i f x x g e :.'.{.Y.,.}   KXKXKX",
"KXKX  5 x.A.A.A.n.' e d h ' W.W.H.<.;.  KXKXKXKX",
"KXKXKX    P d.Z.Z.A.a.j p f.K.L.M.-.|   KXKXKXKX",
"KXKXKX/ Q     ] V.V.V.Z.#.A.G.m.=.*.  KXKXKXKXKX",
"KXKXKX<X1X/ R     K j.v.V.V.Z.x.O.  U KXKXKXKXKX",
"KXKXKXKXKX1X:X^ Y     L s.l.j.$.  I &XKXKXKXKXKX",
"KXKXKXKXKXKXKX<X*XW W     @.g.  J X.KXKXKXKXKXKX",
"KXKXKXKXKXKXKXKXKX-X:X_ ! X . Y $XKXKXKXKXKXKXKX",
"KXKXKXKXKXKXKXKXKXKXKX#X-X) ~ -XKXKXKXKXKXKXKXKX",
"KXKXKXKXKXKXKXKXKXKXKXKXKX%X;XKXKXKXKXKXKXKXKXKX"
};
