/* XPM */
static char *utilities_terminal[] = {
/* columns rows colors chars-per-pixel */
"16 16 114 2 ",
"   c #090A09",
".  c #101312",
"X  c #242524",
"o  c #272A29",
"O  c #292C2B",
"+  c #282D2C",
"@  c #2A2D2C",
"#  c #2E3230",
"$  c #2F3636",
"%  c #333434",
"&  c #323534",
"*  c #333534",
"=  c #303735",
"-  c #323736",
";  c #333736",
":  c #373B39",
">  c #353D3A",
",  c #3C3E3B",
"<  c #3F413D",
"1  c #3F423F",
"2  c #3A4240",
"3  c #3B4341",
"4  c #3E4341",
"5  c #3F4242",
"6  c #424440",
"7  c #454743",
"8  c #424444",
"9  c #434745",
"0  c #484A46",
"q  c #414B48",
"w  c #434A48",
"e  c #424B48",
"r  c #474B4B",
"t  c #434C4A",
"y  c #444C4A",
"u  c #4B4D48",
"i  c #484F4C",
"p  c #484F4D",
"a  c #4E504B",
"s  c #48514E",
"d  c #48524F",
"f  c #51534E",
"g  c #4B5350",
"h  c #4D5150",
"j  c #4E5050",
"k  c #4E5251",
"l  c #4C5553",
"z  c #4D5553",
"x  c #4E5754",
"c  c #4F5755",
"v  c #4D5955",
"b  c #4F5955",
"n  c #505150",
"m  c #545651",
"M  c #525756",
"N  c #545655",
"B  c #575954",
"V  c #5A5C56",
"C  c #515B58",
"Z  c #575B5A",
"A  c #515D59",
"S  c #585B5A",
"D  c #595C5A",
"F  c #5D5F59",
"G  c #595F5E",
"H  c #5E615F",
"J  c #60625C",
"K  c #61635D",
"L  c #586460",
"P  c #5E6462",
"I  c #5E6A67",
"U  c #646760",
"Y  c #636967",
"T  c #636C68",
"R  c #666F6B",
"E  c #63706B",
"W  c #67706C",
"Q  c #66736F",
"!  c #737776",
"~  c #7A7C7B",
"^  c #818987",
"/  c #8E9693",
"(  c #969897",
")  c #AEB0AF",
"_  c #B1B3B2",
"`  c #C3C4C3",
"'  c #C5C5C5",
"]  c #C6C6C6",
"[  c gray78",
"{  c #C8C8C8",
"}  c gray79",
"|  c #CACACA",
" . c #CBCBCB",
".. c gray80",
"X. c #CDCDCD",
"o. c #CECECE",
"O. c gray81",
"+. c gray82",
"@. c #D2D2D2",
"#. c gray84",
"$. c #D8D9D9",
"%. c gray85",
"&. c #DADADA",
"*. c gray87",
"=. c #E1E1E1",
"-. c #E4E4E4",
";. c gray91",
":. c gray92",
">. c #EFEFEF",
",. c gray95",
"<. c #F6F6F6",
"1. c #F9F9F9",
"2. c #FDFDFD",
"3. c None",
/* pixels */
"3.3.3.3.3.3.3.3.3.3.3.3.3.3.3.3.",
"U K K K K K K K K K K K K K K U ",
"K O.#.*.-.:.,.1.2.<.>.;.=.%.@.K ",
"F O.$ $ $ $ $ $ $ $ $ $ $ $ @.F ",
"V O.$   N p % . o n 8 & X $ O.V ",
"m O.$ ~ ( D # @ P D h 5 & $ O.B ",
"m O.$ & _ %.@ r Z h 9 : O $ | m ",
"f | $ ! %.) w P G N s 4 & $ | f ",
"a | $ T r 3 x x g w 3 > $ $ | a ",
"u } $ s s x T R R b l d w $ } u ",
"0 } $ 4 s v ^ / / A b d q $ } 0 ",
"9 ] $ A L I R Q Q E I L C $ ] 9 ",
"9 ] $ $ $ $ $ $ $ $ $ $ $ $ ] 1 ",
", ` ' ' ] ] ] ` ` ] ] ] ] ] ` < ",
"< , , , , , , , , , , , , , , < ",
"3.3.3.3.3.3.3.3.3.3.3.3.3.3.3.3."
};
