/* XPM */
static char *wine[] = {
/* columns rows colors chars-per-pixel */
"16 16 76 1 ",
"  c #030101",
". c #050202",
"X c #0A0606",
"o c #0B0A0A",
"O c #0D0A0A",
"+ c #1D0D0D",
"@ c #201212",
"# c #221313",
"$ c #2D1313",
"% c #291414",
"& c #2B1717",
"* c #241818",
"= c #321919",
"- c #331C1C",
"; c #3E2929",
": c #471E1E",
"> c #511F1F",
", c #5F1F1F",
"< c #482626",
"1 c #562424",
"2 c #5F2424",
"3 c #5F2626",
"4 c #563232",
"5 c #652424",
"6 c #6A2626",
"7 c #6D2626",
"8 c #6F2727",
"9 c #652E2E",
"0 c #742424",
"q c #742727",
"w c #762727",
"e c #6B3C3B",
"r c #514242",
"t c #654444",
"y c #6F4D4D",
"u c #765757",
"i c #795D5D",
"p c #686969",
"a c #6D6E6E",
"s c #747575",
"d c #79797A",
"f c #7B7C7C",
"g c #7B7C7D",
"h c #822121",
"j c #802828",
"k c #882929",
"l c #912323",
"z c #902626",
"x c #922626",
"c c #9F2727",
"v c #912A2A",
"b c #813131",
"n c #A32525",
"m c #855554",
"M c #8A5756",
"N c #866666",
"B c #8F7474",
"V c #907C7C",
"C c #979797",
"Z c gray61",
"A c #9D9D9D",
"S c #A28686",
"D c #A18989",
"F c #A79494",
"G c #A6A29F",
"H c gray63",
"J c #A5A3A1",
"K c #A5A5A5",
"L c #AEA5A5",
"P c #ABACAD",
"I c #B1B3B5",
"U c #BABCBE",
"Y c #C0AFAF",
"T c #BDBEC0",
"R c #C8CACC",
"E c None",
/* pixels */
"EEEEEKCZZCHEEEEE",
"EEEErButyNYLEEEE",
"EEEEo&4mMeV*EEEE",
"EEEEO&:582D@EEEE",
"EEEEX-1wj6S#EEEE",
"EEEE.=2kvqF+EEEE",
"EEEE $,xcbiEEEEE",
"EEEEE;9lnw<EEEEE",
"EEEEEE>hz8EEEEEE",
"EEEEEEEdJEEEEEEE",
"EEEEEEEpGEEEEEEE",
"EEEEEEEaEEEEEEEE",
"EEEEEEEsEEEEEEEE",
"EEEEEEEgEEEEEEEE",
"EEEEEEEREEEEEEEE",
"EEEEEEIUTPgEEEEE"
};
