/* XPM */
static char *xfburn[] = {
/* columns rows colors chars-per-pixel */
"16 16 151 2 ",
"   c #D75121",
".  c #D2633A",
"X  c #D6743E",
"o  c #D77F4E",
"O  c #D59141",
"+  c #CC9A5E",
"@  c #D7946F",
"#  c #C58E79",
"$  c #979797",
"%  c gray60",
"&  c #9A9A9A",
"*  c #9B9B9B",
"=  c #9D9D9D",
"-  c #9E9F9F",
";  c #9F9F9F",
":  c gray63",
">  c #A2A2A2",
",  c #A4A3A3",
"<  c #A4A4A4",
"1  c #A5A5A5",
"2  c gray65",
"3  c #A7A7A7",
"4  c #AAA7AA",
"5  c gray66",
"6  c #A9A9A9",
"7  c #AAAAAA",
"8  c gray67",
"9  c #ACACAC",
"0  c #AEAEAE",
"q  c #B4B6AF",
"w  c gray69",
"e  c #B3B2B2",
"r  c #B4B2B4",
"t  c #B1B6B4",
"y  c #B4B4B4",
"u  c #B6B5B6",
"i  c #B6B6B6",
"p  c #B7B7B7",
"a  c #BFB9B6",
"s  c #B7B6B8",
"d  c #B8B7B8",
"f  c #B6BABD",
"g  c gray72",
"h  c #B9B9B9",
"j  c gray74",
"k  c gray",
"l  c #D8A184",
"z  c #DDA484",
"x  c #D2B28D",
"c  c #DAAE96",
"v  c #F2A891",
"b  c #EBB593",
"n  c #C2B2AB",
"m  c #C5BEB7",
"M  c #D0BAB0",
"N  c #B0C0BD",
"B  c #B0C2BD",
"V  c #BAC5B9",
"C  c #C9C5AE",
"Z  c #CAC0BD",
"A  c #C4CCBD",
"S  c #D6C9B9",
"D  c #E4CABC",
"F  c #AFB3C0",
"G  c #B6BEC1",
"H  c #B9BBC5",
"J  c #BCB9C7",
"K  c #BFBBC9",
"L  c #C0B5C0",
"P  c #C2B5C0",
"I  c #C5BAC3",
"U  c #BFCAC0",
"Y  c #C1C0C1",
"T  c #C1C1C1",
"R  c #C3C2C1",
"E  c #C2C1C2",
"W  c #C3C2C3",
"Q  c #C3C3C3",
"!  c #C0C1C7",
"~  c #C4C3C4",
"^  c #C5C5C5",
"/  c #C7C6C7",
"(  c #CAC7C7",
")  c #C9C8C3",
"_  c #C9C1C8",
"`  c #C7CCCA",
"'  c #C8C8C8",
"]  c gray79",
"[  c #CAC9CA",
"{  c #CBCACA",
"}  c #CBCACB",
"|  c #CDCDCD",
" . c #D1C6C0",
".. c #D4CECD",
"X. c #C8D5C8",
"o. c #C0C8D6",
"O. c #C4CDDA",
"+. c #DBCFD9",
"@. c #CFD8DA",
"#. c #D2D2D2",
"$. c #D3D2D3",
"%. c LightGray",
"&. c #D7D5D7",
"*. c gray84",
"=. c #D7D6D7",
"-. c #D7D7D7",
";. c #D5D5DB",
":. c #D9D7D9",
">. c #DAD7DA",
",. c #DED5DC",
"<. c #DADAD9",
"1. c #DADADA",
"2. c #DBDADB",
"3. c gainsboro",
"4. c #DDDDDD",
"5. c #DEDDDE",
"6. c #E0D8C2",
"7. c #EAD2C8",
"8. c #CCE3DA",
"9. c #D2E1D8",
"0. c #EAECD2",
"q. c #EBE9DF",
"w. c #F5E1DB",
"e. c #CBD3E2",
"r. c #DFD2E1",
"t. c #D9DFEB",
"y. c #E4DBE2",
"u. c #E0DDE0",
"i. c #E5D9E5",
"p. c #D4E9E1",
"a. c gray88",
"s. c #E3E0E2",
"d. c #E2E1E2",
"f. c #E3E1E3",
"g. c #E2E2E2",
"h. c #E4E2E4",
"j. c #E4E3E4",
"k. c gray90",
"l. c #E6E5E6",
"z. c #E6E6E6",
"x. c #E7E7E7",
"c. c #E5EFE7",
"v. c #E9E0E9",
"b. c #E4E9EB",
"n. c gray91",
"m. c #EBEAEB",
"M. c gray92",
"N. c #EDEBED",
"B. c #EDECED",
"V. c #EFEFEF",
"C. c None",
/* pixels */
"C.C.C.C.C.r d d s d y C.C.C.C.C.",
"C.C.C.C.s ;.i.V.B.h.=.s C.C.C.C.",
"C.C.r ` b.t.y.y.f.l.m.m.^ y C.C.",
"C.C.) c.p.O.J P W { 2.x.V.W O C.",
"C.e q.0.X.B f J I Q Q %.n.D + C.",
"8 ..w.7.C V f 8 3 g Q Q <.z x 8 ",
"9 &.y.( Z a 8 C.C.8 i Q ( o S 9 ",
"8 5.g.Q ^ 3 C.C.C.C.1 Q n X :.8 ",
"2 5.y.~ / 1 C.C.C.C.1 ! # @ -.1 ",
"2 $.k.{ / g 1 C.C.3 m M . c { 3 ",
"> W v.3.^ { g 1 8 G V l   v  .> ",
"C.> p.l.#.Q ^ / _ H U V b 6., C.",
"C.C.e l.g.&.^ k L J o.8.9.q C.C.",
"C.C.> 9 <.g.5.<.,.r.e.@.t = C.C.",
"C.C.C.C.= k } :.<.+.! - C.C.C.C.",
"C.C.C.C.C.$ * & & & $ C.C.C.C.C."
};
