/* XPM */
static char *accessories_calculator[] = {
/* columns rows colors chars-per-pixel */
"16 16 41 1 ",
"  c #2E3436",
". c #3F4343",
"X c #3F4445",
"o c #484B49",
"O c #4C5051",
"+ c #4E5151",
"@ c #505452",
"# c #555753",
"$ c #535757",
"% c #585957",
"& c #595B57",
"* c #5D5F5A",
"= c #5E605F",
"- c #666966",
"; c #676B68",
": c #6C6D69",
"> c #71726D",
", c #70726E",
"< c #6D7070",
"1 c #7D7E7A",
"2 c #7E7F7B",
"3 c #7B7E7C",
"4 c #7F807C",
"5 c #8AE234",
"6 c #8AE235",
"7 c #80817D",
"8 c #81827E",
"9 c #82837F",
"0 c #A6E965",
"q c #838480",
"w c #848581",
"e c #868783",
"r c #858785",
"t c #91938C",
"y c #979A94",
"u c #999997",
"i c #999998",
"p c #A1A49D",
"a c #D0F3AE",
"s c #CCCDC9",
"d c None",
/* pixels */
"dd-;;;;;;;;;;-dd",
"d$riiyiiiiiuir$d",
"dX365555666663Xd",
"d =0aaaaaaaa0= d",
"d +o.......o.+ d",
"dow2112211122wod",
"d#w<+spspspi>w#d",
"d#q@Oytytyt>*w#d",
"d#9<@spspspu>9#d",
"d#9++ytytyt>*7#d",
"d#9<+spspspu>7#d",
"d#9++ytytyt<&7#d",
"d#4<#spspy><&7#d",
"d#4@oytut>=>=2#d",
"d&:4171711222:%d",
"dd&@#########%dd"
};
