/* XPM */
static char *Configurator[] = {
/* columns rows colors chars-per-pixel */
"48 48 243 2 ",
"   c #272D27",
".  c gray17",
"X  c #282D28",
"o  c #292D29",
"O  c #312F31",
"+  c #322F32",
"@  c #2E3A3E",
"#  c gray19",
"$  c #313031",
"%  c #373737",
"&  c #32393C",
"*  c #293C41",
"=  c #2B3C41",
"-  c #16434F",
";  c #204049",
":  c #424042",
">  c #424142",
",  c #434043",
"<  c #4A484A",
"1  c #515151",
"2  c #525052",
"3  c #525152",
"4  c #585E58",
"5  c #585F58",
"6  c #5A5E5A",
"7  c gray36",
"8  c #656065",
"9  c #6B696B",
"0  c #6A6D6A",
"q  c #6A6E6A",
"w  c #6C686C",
"e  c #6C696C",
"r  c #6D686D",
"t  c #6E686E",
"y  c #6F7779",
"u  c #737173",
"i  c #747074",
"p  c #747174",
"a  c #757075",
"s  c #767076",
"d  c #7B797B",
"f  c #787E78",
"g  c #797E79",
"h  c #7A7D7A",
"j  c #7C787C",
"k  c #7C797C",
"l  c #7D787D",
"z  c #7E787E",
"x  c #B36371",
"c  c #C55B4D",
"v  c #C65A4C",
"b  c #C65B6E",
"n  c #59B159",
"m  c #5AB05A",
"M  c #6D866D",
"N  c #739F73",
"B  c #71A071",
"V  c #7DA67D",
"C  c #B98C7E",
"Z  c #C39176",
"A  c #C29177",
"S  c #0278BB",
"D  c #0078BC",
"F  c #0078BD",
"G  c #0079BD",
"H  c #0079BE",
"J  c #6B7F86",
"K  c #6D7E84",
"L  c #6D7F85",
"P  c #6E7E84",
"I  c #737D81",
"U  c #AE56AE",
"Y  c #52899B",
"T  c #688088",
"R  c #68818A",
"E  c #7F8B8F",
"W  c #6C8D93",
"Q  c #798D94",
"!  c #749193",
"~  c #7F9098",
"^  c #09A9D4",
"/  c #11ADDD",
"(  c #1FB5EF",
")  c #0BBBFF",
"_  c #0FBAFC",
"`  c #0DBAFF",
"'  c #0CBBFF",
"]  c #0DBBFF",
"[  c #16B8F7",
"{  c #13B8F8",
"}  c #20B4EE",
"|  c #818781",
" . c #828782",
".. c #838683",
"X. c #838783",
"o. c #818881",
"O. c #818A8D",
"+. c #818B8F",
"@. c #898F89",
"#. c #8A8F8A",
"$. c #8B8E8B",
"%. c #8B8F8B",
"&. c #8C8E8C",
"*. c #899089",
"=. c #8F9A8F",
"-. c #828F97",
";. c #8F9B9F",
":. c #919791",
">. c #929792",
",. c #939693",
"<. c #939793",
"1. c #949694",
"2. c #919891",
"3. c #919598",
"4. c #979899",
"5. c #929A9D",
"6. c #909B9F",
"7. c #919B9F",
"8. c #969A9C",
"9. c #9B9B9B",
"0. c #9D999D",
"q. c #9C9A9C",
"w. c #9C9B9C",
"e. c #9D9A9D",
"r. c #9E999E",
"t. c #9F989F",
"y. c #9F999F",
"u. c #B18F84",
"i. c #A5938D",
"p. c #A9928B",
"a. c #A29490",
"s. c #B1959A",
"d. c #8FB68F",
"f. c #99AF99",
"g. c #9AAE9A",
"h. c #9EAB9E",
"j. c #879AA4",
"k. c #8E9BA0",
"l. c #8B9CA2",
"z. c #8D9CA2",
"x. c #9A9FA1",
"c. c #A097A0",
"v. c #A197A1",
"b. c #A098A0",
"n. c #A892A8",
"m. c #AA90AA",
"M. c #B28BB2",
"N. c #B489B4",
"B. c #9AA0A2",
"V. c #9BA3A7",
"C. c #9CA2A5",
"Z. c #9DA2A5",
"A. c #9CA3A7",
"S. c #94A3A8",
"D. c #97A4AB",
"F. c #99A3A8",
"G. c #99A3A9",
"H. c #9AA3A8",
"J. c #9BA3A8",
"K. c #98A4AA",
"L. c #A4A7A4",
"P. c #A5A6A5",
"I. c #A5A7A5",
"U. c gray65",
"Y. c #A0AAA0",
"T. c #A1AAA1",
"R. c #A2A8A2",
"E. c #A2A9A2",
"W. c #A3A8A3",
"Q. c #A4A8A4",
"!. c #A8A9AB",
"~. c #ADA9AD",
"^. c #ADAAAD",
"/. c #AEA9AE",
"(. c #AFA8AF",
"). c #AFA9AF",
"_. c #BFAAA7",
"`. c #BBABA9",
"'. c #B9ACAB",
"]. c #BAACAA",
"[. c #BFB9AF",
"{. c #A1ABB1",
"}. c #A3ABB1",
"|. c #A0ACB4",
" X c #B0A7B0",
".X c #B3A5B3",
"XX c #B6A4B6",
"oX c #B0A8B0",
"OX c #ADB2B5",
"+X c #A9B3B9",
"@X c #ABB3B8",
"#X c #ABB3B9",
"$X c #B4B7B4",
"%X c #B5B6B5",
"&X c #B5B7B5",
"*X c #B2B8B2",
"=X c #B3B8B3",
"-X c #B4B8B4",
";X c #BCBFBC",
":X c #BDBEBD",
">X c #BDBFBD",
",X c gray",
"<X c #CBB798",
"1X c #83D983",
"2X c #84D884",
"3X c #86D886",
"4X c #89D589",
"5X c #8AD48A",
"6X c #96CC96",
"7X c #9BC89B",
"8X c #9CC89C",
"9X c #90D090",
"0X c #A6C1A6",
"qX c #A2D2A2",
"wX c #BBC0BB",
"eX c #BCC0BC",
"rX c #C6C7C6",
"tX c #C5C8C5",
"yX c #C5C9C5",
"uX c #C6C8C6",
"iX c #CECFCE",
"pX c gray81",
"aX c #CDD0CD",
"sX c #CDD1CD",
"dX c #CED0CE",
"fX c #D6D7D6",
"gX c #D7D7D7",
"hX c #D5D8D5",
"jX c #D6D8D6",
"kX c #DEDFDE",
"lX c #DCE1DC",
"zX c #DDE0DD",
"xX c #DDE1DD",
"cX c #DEE0DE",
"vX c #E7E7E7",
"bX c #EFEFEF",
"nX c gray97",
"mX c #FFFBFF",
"MX c #FDFDFD",
"NX c #FEFCFE",
"BX c #FEFDFE",
"VX c #FFFCFF",
"CX c None",
/* pixels */
"CXCXCXCXCXCXCXCXCXCXCXCXCXCXCXCXCXCXCXCXCXCXCXCXCXCXCXCXCXCXCXCXCXCXCXCXCXCXCXCXCXCXCXCXCXCXCXCX",
"CXCXCXCXCXCXCXCXCXCXCXCXCXCXCXCXCXCXCXCXCXCX  + # # + + CXCXCXCXCXCXCXCXCXCXCXCXCXCXCXCXCXCXCXCX",
"CXCXCXCXCXCXCXCXCXCXCXCXCXCXCXCXCXCXCX# + # r r r p r q X X X CXCXCXCXCXCXCXCXCXCXCXCXCXCXCXCXCX",
"CXCXCXCXCXCXCXCXCXCXCXCXCXCXCXCX$ # # &X>X>XaXiXeX&Xr.o.U p r #   + CXCXCXCXCXCXCXCXCXCXCXCXCXCX",
"CXCXCXCXCXCXCXCXCXCXCXCXCX. # . &X,X&XpXiXkXkXfXpXgXpX,X7XS.N I p p X X + CXCXCXCXCXCXCXCXCXCXCX",
"CXCXCXCXCXCXCXCXCXCX# + . %XtX>XkXkXkXgXfXkXfXfXkXkXgXpXyXsX,X%Xr...l p p # # # CXCXCXCXCXCXCXCX",
"CXCXCXCXCXCXCXCX# # &X>X,XuXiXkXkXkXkXkXkXkXkXkXkXkXkXkXkXkXkXkXfXgXiX>X&XP...l # # # CXCXCXCXCX",
"CXCXCXCXCXCXCX# &X>XgXkXkXbXvXvXvXvXvXvXvXvXvXvXvXkXvXkXkXkXkXkXkXkXkXkXfXfXpXaXrX&Xr # # CXCXCX",
"CXCXCXCXCXCX2 >XcXvXbXbXnXbXbXbXbXbXbXbXbXbXbXvXvXvXvXvXvXkXvXkXkXvXkXkXkXkXkXkXfXpXyX(.r # CXCX",
"CXCXCXCXCX< q &X/.&XfXvXbXMXMXMXbXMXbXnXbXbXbXbXbXbXbXvXvXvXvXvXvXkXkXkXkXkXkXfXiXrX>XeX/.r $ CX",
"CXCXCXCX, p vXkXjX>XP.P.>XfXbXMXMXMXMXbXMXbXnXbXbXbXbXbXbXbXvXvXvXvXvXvXkXkXfXrXrX>XeXeX'.r $ CX",
"CXCXCX, :.bXvXvXvXvXkXyXr.:./.iXcXbXbXMXMXnXnXnXnXnXnXnXbXnXbXbXbXbXvXkXkXiXrXrX>X>XwX^.(.e # CX",
"CXCX, yXMXbXvXvXvXbXvXvXbXiXW...,.&XrXjXbXnXnXnXnXnXnXnXnXnXbXNXnXbXvXkXiXrXrX>X>X(.@X(.Q.r # CX",
"CX6 # MXbXvXvXvXvXbX7 &XfXbXMXvXyX(.:.r.$XiXvXnXMXMXnXMXNXnXNXNXMXbXvXfXrXyX>X+X(.`.{.T.F.r # CX",
"CXCX, /.vXbXbXbXbXbXaX8 6 &XfXvXMXbXvXwX/.I.I.>XzXvXMXnXbXNXNXNXbXvXfXiX>X/./.).}.P.v.Z.J.t # CX",
"CXCXCX# :.jXbXbXbXbXMXvX;X9 rXvXMXMXMXMXbXkX$XI.r.rXhXMXMXNXnXbXvXfXiX>X&X/.P.Q.A.J.Z.F.t # CXCX",
"CXCXCXCX+ p yXvXMXMXNXMXMXbXbXMXMXbXMXbXMXMXMXkXaXiX>XbXMXnXvXkXkXrX%X/./.I.P.Q.V.Z.Z.F.r # CXCX",
"CXCXCXCXCX# 9 /.cXMXNXNXNXMXMXbXMXMXNXMXbXMXbXMXMXvXiXkXbXbXkXfXuX%X-X/.(.I.P.F.T.F.Z.2.r $ CXCX",
"CXCXCXCXCXCX# r $.yXvXMXNXMXNXMXMXbXMXMXbXMXMXnXMXbXiXiXkXfXiX>X%X&X/./.}.Q.I.T.F.b.K.r # CXCXCX",
"CXCXCXCXCXCXCX# r t k.yXkXbXMXMXNXNXNXNXMXNXMXMXbXvXrX>XfXrX>X>X%X-X~.~.(.Q.I.V.F.r.r.e # CXCXCX",
"CXCXCXCXCXCXCX# l ..r u P.>XcXbXnXMXMXMXbXMXbXbXkXfXrX>XiXrX,X%X%X%X/.~./.P.P.r.r.r.k.r # CXCXCX",
"CXCXCXCXCXCXCX+ E r...t 4 &.P.&XiXvXbXMXMXbXvXkXkXfXrX>X,X%X%X&X$X-X~./.Q.K.b.Z.r.6.r # CXCXCXCX",
"CXCXCXCXCXCXCX# $.:.;.@.u 4 p :.P.oXyXcXvXvXcXvXkXfX;X X&X>X&X[.-X/.~.I.P.h.g.T v.r.e # CXCXCXCX",
"CXCXCXCXCXCXCX+ O.y n.r.r...r e l *.r.>XgXjXaX>X&X{.t.{.>X&X&X X~./.(.I.g.T K S N.:.r # CXCXCXCX",
"CXCXCXCXCXCXCX+ M ; * l._.'.T...r a E :.r.f z ..$.t.r.Q.&X$X+X/./.}.!.f.I H S ' Z r # CXCXCXCXCX",
"CXCXCXCXCXCXCX+ Q ' } % ! 0X.X/.r.f a d d l $.6.W.{.r.P.$X/./././.T.P P H ( ' 3X2.r $ CXCXCXCXCX",
"CXCXCXCXCXCXCX2 gXd.v { & @ x.XX-X-Xr.....*.r.V.{.W.:././././.{.Q.C H S ' 1X6XT 2.r $ CXCXCXCXCX",
"CXCXCXCXCX:.*.MXjXrX=Xm ' } % W F..X&X>X/.a.r.W. Xr.,.&X/.Q.P.P.Q.Z ] { 5XP T S B # CXCXCXCXCXCX",
"CX&.f 2.k.cXMXMXbXkXiX>XM.v { & = -.n.)./.;.I./.~.@.P.&XP.P.P.Q.S.Q.6XqXI H H { B $ CXCXCXCXCXCX",
"CXCXr.MXMXMXNXNXNXbXvXiXrX|.n ' } % Y z.V.I.W./.t.-.&X-XP.P.I.r.Q.p.T T H ( ] 5X*.$ CXCXCXCXCXCX",
"CXCXCXr.NXNXNXNXNXNXMXvXfXyX&XV b [ & - 5.(././.@.0././.Q.P.F.Q.r.-.H H ' 1X8X&.r 3 CXCXCXCXCXCX",
"CXCXCXCXr.NXNXNXNXNXNXnXbXkXaX>XD.U [ ; 3.(.$XI.j  X=XP.K.T.V.r.s.S.] ] 3Xa.*.t $ CXCXCXCXCXCXCX",
"CXCXCXCXCX2.MXNXNXNXNXMXMXbXvXfXeX/.x ; k.}. X:.&.&X/.P.I.V.V.t.W.OX7X7Xb.*.r # # CXCXCXCXCXCXCX",
"CXd d 9 9 9 o.MXNXNXMXq.MXMXbXbXjXaXu./ B.Q./...r.-X/.K.I.x.W.V.F.P.r.r.*.r # # CXCXCXCXCXCXCXCX",
"CXCXu d d r 9 o.NXNXq.MX;.MXMXMXbXjX<X^ 8.h.6.z /./.r.F.b.Q.J.F.W.q.r.$.t # $ CXCXCXCXCXCXCXCXCX",
"CXCXCXd d o.r r ..q.MXnXMX;.MXMXMXcX=Xj.q.W.O.$.~./.I.P.P.P.F.P.W.r.$.9 # $ CXCXCXCXCXCXCXCXCXCX",
"CXCXCXCXu l d 9 9 9 q.q.MXMXq.jXjXjX:.i.r.Q.l r./.{.I.I.I.I.P.P.r.$.t # # CXCXCXCXCXCXCXCXCXCXCX",
"CXCXCXCXCXd d d 9 9 9 9 q.q.q...2 2 &.<.1.Q.l r./.W.I.!.P.I.P.x.@.t # $ CXCXCXCXCXCXCXCXCXCXCXCX",
"CXCXCXCXCXCXu d u 9 9 9 9 9 9 9 9 # p &.:.b.X.P./.Q.!.Q.I.I.a.#.w # # CXCXCXCXCXCXCXCXCXCXCXCXCX",
"CXCXCXCXCXCXCXd u d u u u u u u r + 2 2.&.1.&.P. XK.(.}.(.0.%.t . # CXCXCXCXCXCXCXCXCXCXCXCXCXCX",
"CXCXCXCXCXCXCXCXu u u u u u u u 9 9 # # X.&.1.&.Q././.}.b.*.r # $ CXCXCXCXCXCXCXCXCXCXCXCXCXCXCX",
"CXCXCXCXCXCXCXCXCXCXu u u u u u u u r # + p *.$.r.9.r.r.*.r # # CXCXCXCXCXCXCXCXCXCXCXCXCXCXCXCX",
"CXCXCXCXCXCXCXCXCXCXCXCXCXCXCXCXCXCXu r + # 9 9 9 9 r r r # # CXCXCXCXCXCXCXCXCXCXCXCXCXCXCXCXCX",
"CXCXCXCXCXCXCXCXCXCXCXCXCXCXCXCXCXCXCXq 9 # + # # # # # # # CXCXCXCXCXCXCXCXCXCXCXCXCXCXCXCXCXCX",
"CXCXCXCXCXCXCXCXCXCXCXCXCXCXCXCXCXCXCXCXe e # # # # # # # CXCXCXCXCXCXCXCXCXCXCXCXCXCXCXCXCXCXCX",
"CXCXCXCXCXCXCXCXCXCXCXCXCXCXCXCXCXCXCXCXCXCXr r p r p r CXCXCXCXCXCXCXCXCXCXCXCXCXCXCXCXCXCXCXCX",
"CXCXCXCXCXCXCXCXCXCXCXCXCXCXCXCXCXCXCXCXCXCXCXCXCXCXCXCXCXCXCXCXCXCXCXCXCXCXCXCXCXCXCXCXCXCXCXCX",
"CXCXCXCXCXCXCXCXCXCXCXCXCXCXCXCXCXCXCXCXCXCXCXCXCXCXCXCXCXCXCXCXCXCXCXCXCXCXCXCXCXCXCXCXCXCXCXCX"
};
