/* XPM */
static char *fbpanel[] = {
/* columns rows colors chars-per-pixel */
"48 48 163 2 ",
"   c #56131C",
".  c #60151F",
"X  c #651721",
"o  c #6A1722",
"O  c #741A25",
"+  c #791B27",
"@  c #BD151E",
"#  c #BD1F1E",
"$  c #BD231E",
"%  c #BD321F",
"&  c #851E2B",
"*  c #8C1F2D",
"=  c #9C1F2D",
"-  c #A91B27",
";  c #A21D2A",
":  c #B61721",
">  c #B11A24",
",  c #BD1D27",
"<  c #8F202E",
"1  c #92202F",
"2  c #9C212E",
"3  c #952130",
"4  c #9C2331",
"5  c #9C2D3B",
"6  c #A92527",
"7  c #A92927",
"8  c #A9212E",
"9  c #B42322",
"0  c #BD252F",
"q  c #BD3523",
"w  c #A22431",
"e  c #A92B37",
"r  c #A92E3B",
"t  c #A9303D",
"y  c #DE0A0F",
"u  c #D50D13",
"i  c #C3141C",
"p  c #CA1219",
"a  c #D11016",
"s  c #D11D15",
"d  c #D7161C",
"f  c #D7191A",
"g  c #EB0609",
"h  c #E5080C",
"j  c #EB0C0F",
"k  c #F20406",
"l  c #FE0202",
"z  c #F20A06",
"x  c #FF0B00",
"c  c #FE0C0C",
"v  c #E5190C",
"b  c #F21506",
"n  c #FF1302",
"m  c #F8190A",
"M  c #EB1518",
"N  c #FF1312",
"B  c #FE1C1C",
"V  c #DE240F",
"C  c #C3251B",
"Z  c #CA2518",
"A  c #C32C1B",
"S  c #C3321B",
"D  c #D73512",
"F  c #FF2105",
"G  c #F22B06",
"H  c #F82807",
"J  c #F82508",
"K  c #FF280A",
"L  c #EB3009",
"P  c #FF3204",
"I  c #FF3309",
"U  c #FF2613",
"Y  c #FF2C11",
"T  c #FF3114",
"R  c #FF331A",
"E  c #EB1F21",
"W  c #F81F20",
"Q  c #C32F38",
"!  c #D72D32",
"~  c #E52424",
"^  c #EB282B",
"/  c #FC2323",
"(  c #FF2824",
")  c #FF2A2A",
"_  c #FF3322",
"`  c #EB3134",
"'  c #EB393C",
"]  c #FF3434",
"[  c #FF3B33",
"{  c #FE3E3E",
"}  c #DE4416",
"|  c #D1411E",
" . c #EB4409",
".. c #FF4001",
"X. c #F24A09",
"o. c #FF4B0A",
"O. c #E54C19",
"+. c #F25315",
"@. c #FF5A12",
"#. c #FF4137",
"$. c #FF443B",
"%. c #A93945",
"&. c #A23D4A",
"*. c #D13B42",
"=. c #A9424E",
"-. c #A94753",
";. c #A94B57",
":. c #B05964",
">. c #BD5F68",
",. c #BD666F",
"<. c #B66671",
"1. c #BD747E",
"2. c #CA4C53",
"3. c #D14B51",
"4. c #CA525A",
"5. c #EB4245",
"6. c #EB4B4E",
"7. c #FF4343",
"8. c #FF4846",
"9. c #F84748",
"0. c #FF4A4A",
"q. c #E55457",
"w. c #FF5554",
"e. c #FD5B5B",
"r. c #FF615E",
"t. c #D15E64",
"y. c #C3616A",
"u. c #D16C73",
"i. c #C3767E",
"p. c #FF6262",
"a. c #FF6867",
"s. c #FF6B6B",
"d. c #E5777A",
"f. c #FF7575",
"g. c #FF7B7B",
"h. c #CA888F",
"j. c #D7848A",
"k. c #CA9098",
"l. c #D3949A",
"z. c #FF8282",
"x. c #FF8C8C",
"c. c #FE9595",
"v. c #FF9A9A",
"b. c #D19EA4",
"n. c #D7ACB1",
"m. c #DEBABE",
"M. c #FEA2A2",
"N. c #FFACAC",
"B. c #E5BBBE",
"V. c #FEB3B3",
"C. c #FFBEBE",
"Z. c #E5C8CB",
"A. c #FCC4C5",
"S. c #FECBCB",
"D. c #EBD5D8",
"F. c #FED4D4",
"G. c #FEDCDD",
"H. c #F2E3E5",
"J. c #FEE2E3",
"K. c #FFEBEB",
"L. c #FDF3F3",
"P. c white",
"I. c None",
/* pixels */
"I.I.I.I.I.I.I.I.I.I.I.I.I.I.I.I.I.I.I.1 3 3 3 1 1 3 1 1 < I.I.I.I.I.I.I.I.I.I.I.I.I.I.I.I.I.I.I.",
"I.I.I.I.I.I.I.I.I.I.I.I.I.I.I.I.3 = @ u h k l l l l k h u @ 2 3 I.I.I.I.I.I.I.I.I.I.I.I.I.I.I.I.",
"I.I.I.I.I.I.I.I.I.I.I.I.I.3 3 @ y B e.v.S.L.L.L.L.L.L.S.v.e.B y @ 1 * I.I.I.I.I.I.I.I.I.I.I.I.I.",
"I.I.I.I.I.I.I.I.I.I.I.I.3 @ k e.V.L.L.L.L.L.L.L.L.L.L.L.L.L.L.V.e.k @ 1 I.I.I.I.I.I.I.I.I.I.I.I.",
"I.I.I.I.I.I.I.I.I.I.3 - g w.S.K.K.L.K.J.B.k.h.h.h.h.l.B.J.L.K.K.K.S.e.g - * I.I.I.I.I.I.I.I.I.I.",
"I.I.I.I.I.I.I.I.I.3 i B N.K.K.K.G.l.-.3 3 3 :.:.:.:.3 3 3 =.k.G.K.K.K.N.B i < I.I.I.I.I.I.I.I.I.",
"I.I.I.I.I.I.I.I.3 u 8.F.J.J.D.i.5 * <.n.H.P.P.P.P.P.P.H.n.<.3 5 i.F.J.J.F.8.u = I.I.I.I.I.I.I.I.",
"I.I.I.I.I.I.I.3 u w.G.G.G.l.5 5 k.H.P.P.P.P.P.P.P.P.P.P.P.P.H.k.3 5 l.G.G.G.w.u 1 I.I.I.I.I.I.I.",
"I.I.I.I.I.I.3 u 0.F.F.S.,.3 <.H.P.P.P.P.P.P.P.P.P.P.P.P.P.P.P.P.H.:.3 ,.S.F.F.w.u * I.I.I.I.I.I.",
"I.I.I.I.I.3 i 7.F.F.A.=.3 b.P.P.P.P.P.P.P.P.P.P.P.P.P.P.P.P.P.P.P.P.b.3 =.Z.S.F.7.i & I.I.I.I.I.",
"I.I.I.I.I.- B C.S.A.=.3 n.P.P.P.P.P.P.P.P.P.P.P.P.P.P.P.P.P.P.P.P.P.P.n.3 =.A.S.C.N - I.I.I.I.I.",
"I.I.I.I.* g c.A.A.,.3 n.P.P.P.P.P.P.P.P.L.Z.b.k.k.Z.H.P.P.P.P.P.P.P.P.P.n.3 >.A.A.c.g 1 I.I.I.I.",
"I.I.I.3 @ 8.A.C.j.* b.P.P.P.P.P.P.P.Z.<.= = - > > ; 3 ;.Z.P.P.P.P.P.P.P.P.k.= j.A.C.8.@ + I.I.I.",
"I.I.I.3 k M.V.V.5 :.P.P.P.P.P.P.L.<.* @ g l { { { N p 3 m.P.P.P.P.P.P.P.P.P.:.5 N.C.M.k 3 I.I.I.",
"I.I.I.@ 7.V.V.y.= H.P.P.P.P.P.D.&.- k 0.N.L.L.L.v.u 3 n.P.P.P.P.P.P.P.P.P.P.H.1 y.V.V.7.@ o I.I.",
"I.I.3 y z.N.M.5 1.P.P.P.P.P.L.5 : c V.K.L.K.K.c.u = n.P.P.P.P.P.P.P.P.P.P.P.P.1.5 M.N.z.y * I.I.",
"I.I.= N M.M.u.3 H.P.P.P.P.P.:.- c C.J.J.J.J.x.u 3 n.P.P.P.P.P.P.P.P.P.P.P.P.P.H.3 u.M.N.N = I.I.",
"I.I.@ { M.M.%.;.P.P.P.P.P.B.= k V.G.G.G.G.x.u 3 n.P.P.P.P.P.P.P.P.P.P.P.P.P.P.P.;.%.M.v.{ @ X I.",
"I.1 a p.v.c.3 b.P.P.P.P.P.:.p 0.S.F.F.F.z.u * n.P.P.P.P.P.P.P.P.P.P.P.P.P.P.P.P.b.3 c.v.p.u + I.",
"I.1 h f.c.d.3 Z.P.P.P.P.H.1 k V.S.S.S.A.c * b.P.P.P.P.P.P.P.P.P.P.n.<.P.P.P.P.P.Z.1 d.c.g.h & I.",
"I.3 k x.c.t.1 P.P.P.P.P.n.- / C.C.C.A.C.{ - ;.L.P.P.P.P.P.P.P.P.n.3 3 H.P.P.P.P.P.3 t.c.x.k < I.",
"I.3 x z.z.4.1 P.P.P.P.P.k.@ 7.V.V.V.V.V.N./ - ;.L.P.P.P.P.P.P.n.3 u - m.P.P.P.P.P.3 4.z.z.x 3 I.",
"I.3 x g.g.4.:.P.P.P.P.P.k.p w.N.N.N.N.N.N.M./ - ;.L.P.P.P.P.n.3 d N > k.P.P.P.P.P.:.4.g.g.x 3 I.",
"I.3 x g.g.2.:.P.P.P.P.P.k.i w.M.M.M.M.v.v.M.c./ ; -.L.P.P.n.3 d z.( > k.P.P.P.P.P.:.2.g.g.x 3 I.",
"I.3 n f.f.2.= P.P.P.P.P.k.- ) c.v.c.c.c.c.c.c.x.B ; ;.L.n.3 d g.c.( > k.P.P.P.P.P.3 2.f.f.n 3 I.",
"I.3 b s.s.3.* P.P.P.P.P.Z.= N x.x.x.x.x.x.x.x.x.z.B ; &.3 d f.x.x.B ; m.P.P.P.P.P.* 3.s.s.b * I.",
"I.3 v w.a.q.1 Z.P.P.P.P.P.1 ~ z.z.z.g.z.z.z.g.z.z.f.U > d a.g.g.f.z 3 H.P.P.P.P.Z.3 q.a.w.v & I.",
"I.* s $.e.e.1 b.P.P.P.P.1.r f.f.f.f.f.g.f.f.g.f.f.f.f.9.a.f.g.g.$.p :.P.P.P.P.P.b.3 e.e.#.s + I.",
"I.I.# _ w.e.e ;.P.P.P.1.r a.s.s.s.s.s.s.s.s.s.s.s.s.s.s.s.s.s.e.m 2 n.P.P.P.P.P.;.e w.w._ $ X I.",
"I.I.2 K w.0.*.3 H.P.1.4 e.p.p.p.p.p.p.p.p.p.p.p.p.p.p.p.p.p.e.U > :.P.P.P.P.P.H.3 *.0.w.K 2 I.I.",
"I.I.3 V #.8.9.4 1.1.4 6.w.w.w.e.w.w.w.w.e.w.w.w.e.w.w.w.w.w.Y # 5 H.P.P.P.P.P.1.4 9.0.#.V & I.I.",
"I.I.I.$ R 7.7.Q 3 4 5.0.0.9.0.0.0.0.0.0.0.0.0.0.0.8.8.8.[ J 9 5 D.P.P.P.P.P.H.3 Q 7.8.R $ X I.I.",
"I.I.I.1 G [ { { 4 ' { { { { 7.{ { { { 7.[ Y R _ _ _ T H Z 2 ;.H.P.P.P.P.P.P.:.4 { { [ G 1 I.I.I.",
"I.I.I.* $ T ] ] ] ] ] ] ] ] ] ] ] ] ] ` 4 2 9 Z Z A 9 3 &.n.P.P.P.P.P.P.P.k.1 ! ] ] T 9 O I.I.I.",
"I.I.I.I.1 L _ ) ( ) ) ) ) ) ) ) ) ) ^ 3 b.m.k.k.k.k.b.D.P.P.P.P.P.P.P.P.n.3 0 ) ) ( L < I.I.I.I.",
"I.I.I.I.I.6 I ( / B B B B B B B B E 2 n.P.P.P.P.P.P.P.P.P.P.P.P.P.P.P.n.1 8 ) ) ( P 7   I.I.I.I.",
"I.I.I.I.I.* A I U B N N N N N N M = n.P.P.P.P.P.P.P.P.P.P.P.P.P.P.P.b.1 ; W U W P % & I.I.I.I.I.",
"I.I.I.I.I.I.* D Y B N l l c l j = n.P.P.P.P.P.P.P.P.P.P.P.P.P.P.H.:.= , B B B P D < I.I.I.I.I.I.",
"I.I.I.I.I.I.I.1 D I N x l l g = :.H.P.P.P.P.P.P.P.P.P.P.P.P.H.k.3 1 d N N N K D * I.I.I.I.I.I.I.",
"I.I.I.I.I.I.I.I.1 D K c c l c i = = <.n.H.P.P.P.P.P.P.H.n.<.3 = i c c c c P D 1 I.I.I.I.I.I.I.I.",
"I.I.I.I.I.I.I.I.I.* S ..n x l l l a - = 3 3 :.:.:.:.3 = 1 - a k l l l n ..S * I.I.I.I.I.I.I.I.I.",
"I.I.I.I.I.I.I.I.I.I.* 7  .P x l l l l k h a p p p i a h k l l l x x P  .7 & I.I.I.I.I.I.I.I.I.I.",
"I.I.I.I.I.I.I.I.I.I.I.I.* q X.P n x l l l l l l l l l l l l l n P X.% <   I.I.I.I.I.I.I.I.I.I.I.",
"I.I.I.I.I.I.I.I.I.I.I.I.I.+ 1 q } o.I F n l l l l l l n F P o.} q 1 O I.I.I.I.I.I.I.I.I.I.I.I.I.",
"I.I.I.I.I.I.I.I.I.I.I.I.I.I.I.o * 2 q | O.+.@.@.@.@.+.O.| q 2 < X I.I.I.I.I.I.I.I.I.I.I.I.I.I.I.",
"I.I.I.I.I.I.I.I.I.I.I.I.I.I.I.I.I.I.o + & < 3 3 = 3 * & + X I.I.I.I.I.I.I.I.I.I.I.I.I.I.I.I.I.I.",
"I.I.I.I.I.I.I.I.I.I.I.I.I.I.I.I.I.I.I.I.I.I.I.I.I.I.I.I.I.I.I.I.I.I.I.I.I.I.I.I.I.I.I.I.I.I.I.I.",
"I.I.I.I.I.I.I.I.I.I.I.I.I.I.I.I.I.I.I.I.I.I.I.I.I.I.I.I.I.I.I.I.I.I.I.I.I.I.I.I.I.I.I.I.I.I.I.I."
};
