/* XPM */
static char *folder_wine[] = {
/* columns rows colors chars-per-pixel */
"16 16 166 2 ",
"   c #4A0202",
".  c #560000",
"X  c #6C0000",
"o  c #790202",
"O  c #66322A",
"+  c #753B39",
"@  c #757672",
"#  c #8D0F0F",
"$  c #940303",
"%  c #9F0202",
"&  c #980606",
"*  c #A10807",
"=  c #9E2121",
"-  c #813737",
";  c #913333",
":  c #A12525",
">  c #A63734",
",  c #BC5F13",
"<  c #BC6014",
"1  c #BE6216",
"2  c #B8621B",
"3  c #BF6519",
"4  c #BD641A",
"5  c #BE661C",
"6  c #BF681D",
"7  c #BF691E",
"8  c #BC702F",
"9  c #C06B1F",
"0  c #C57026",
"q  c #C67428",
"w  c #C7762B",
"e  c #C0702C",
"r  c #9E5D58",
"t  c #B55F5D",
"y  c #9C7250",
"u  c #A16D4C",
"i  c #B17E59",
"p  c #906464",
"a  c #927C66",
"s  c #A36C69",
"d  c #B87C7C",
"f  c #7F817D",
"g  c #DB8A2F",
"h  c #E18A29",
"j  c #E2922F",
"k  c #E19330",
"l  c #E29330",
"z  c #E29431",
"x  c #E39A36",
"c  c #E39B36",
"v  c #E49B36",
"b  c #E49B37",
"n  c #E49C37",
"m  c #E5A33D",
"M  c #E5A33E",
"N  c #E5A43D",
"B  c #E5A53E",
"V  c #9A8168",
"C  c #92877B",
"Z  c #94847F",
"A  c #948B7A",
"S  c #958A7B",
"D  c #958D7A",
"F  c #978F7C",
"G  c #98887A",
"H  c #9B8D7F",
"J  c #AA8A62",
"K  c #AF8E64",
"L  c #A3886B",
"P  c #A28C6A",
"I  c #A48D6C",
"U  c #A58C73",
"Y  c #A78F74",
"T  c #AD967A",
"R  c #D39153",
"E  c #D8A047",
"W  c #D8A148",
"Q  c #DDAA4A",
"!  c #DFAF58",
"~  c #E6A641",
"^  c #E6A847",
"/  c #E7AC4E",
"(  c #E9B65A",
")  c #D89D65",
"_  c #D9A16A",
"`  c #DAA36C",
"'  c #DBA46D",
"]  c #DBA46E",
"[  c #DBA56F",
"{  c #DBA66F",
"}  c #DCA670",
"|  c #DCA770",
" . c #DFB07C",
".. c #EABA62",
"X. c #EBBA66",
"o. c #EBBC69",
"O. c #EBBD6C",
"+. c #EBB274",
"@. c #E1BE72",
"#. c #ECB878",
"$. c #EDBD7C",
"%. c #ECC572",
"&. c #EDC776",
"*. c #EDC77A",
"=. c #EEC87B",
"-. c #EFCE7F",
";. c #8B8B84",
":. c #898B87",
">. c #8A8B87",
",. c #8C8C85",
"<. c #8A8C88",
"1. c #8D8E8B",
"2. c #8E8F8E",
"3. c #8F8F8E",
"4. c #988782",
"5. c #978D80",
"6. c #9B9480",
"7. c #9D9787",
"8. c #9A968C",
"9. c #9B978E",
"0. c #979894",
"q. c #9C9D9A",
"w. c #AA9A82",
"e. c #AC9E89",
"r. c #B5A883",
"t. c #A0A19E",
"y. c #ADA59A",
"u. c #B6AB9D",
"i. c #A4A5A4",
"p. c #A5A5A5",
"a. c gray66",
"s. c #A9A9A9",
"d. c #AAAAAA",
"f. c gray67",
"g. c #ABACAA",
"h. c gray68",
"j. c #AEAFAC",
"k. c #B8B0A5",
"l. c #B2B2B2",
"z. c gray70",
"x. c #BAB9B5",
"c. c #C48786",
"v. c #CCA883",
"b. c #EFCE80",
"n. c #F0D484",
"m. c #F0D584",
"M. c #F1CB92",
"N. c #D7C8BB",
"B. c #F3D5A1",
"V. c #F4DBA9",
"C. c #F5DFAC",
"Z. c #E9CDB4",
"A. c #F5E3AF",
"S. c #F5E7B2",
"D. c #F5E8B2",
"F. c gray76",
"G. c #C6C6C6",
"H. c #CEC9C4",
"J. c #CFD0CE",
"K. c #D2D3D1",
"L. c #D5D5D5",
"P. c #ECECEC",
"I. c gray99",
"U. c #FEFEFE",
"Y. c white",
"T. c None",
/* pixels */
"T.T.T.T.T.T.T.T.T.T.<.<.>.<.T.T.",
"f.f.f.f.f.f.h.T.T.<.2.T.T.2.>.T.",
"f.I.I.I.I.I.L.s.p.t.G.z.z.F.0.T.",
"f.I.I.I.I.I.U.U.K.J.I.I.P.p.1.T.",
"f.I.+.} } [ [ [ T v.Z.i u y U Y ",
"f.I.{ S.S.D.S.S.7.r c.& % * > G ",
"f.I.{ A.n.n.n.n.6.- d # : = ; C ",
"p.I.{ C.b.b.b.b.r.O p   . X s L ",
"f.I._ V.=.*.&.%.@.D + o $ t 5.8 ",
"f.I.) B.O.o.X...( ! S Z 4.H Q 3 ",
"p.I.R M./ ^ ~ N m N E ,.;.W N 1 ",
"f.I.w $.x x x x v v n F D n x 1 ",
"f.I.w #.j j j k z j j I P z k , ",
"p.I.0 +.h h h h g K w.9.9.e.J 2 ",
"f.f.e 9 7 7 5 3 V k.N.u.y.H.x.a ",
"T.T.T.T.T.T.T.T.T.f q.g.h.q.@ T."
};
