/* XPM */
static char *gimp[] = {
/* columns rows colors chars-per-pixel */
"16 16 86 1 ",
"  c black",
". c #010101",
"X c #040404",
"o c gray2",
"O c #060606",
"+ c gray3",
"@ c gray4",
"# c #0C0C0C",
"$ c #0E0E0E",
"% c gray6",
"& c #111111",
"* c gray7",
"= c #131313",
"- c gray8",
"; c #151515",
": c #161616",
"> c #181818",
", c #1E1E1E",
"< c #202020",
"1 c #232323",
"2 c gray15",
"3 c #272727",
"4 c #2A2A2A",
"5 c #2F2F2F",
"6 c #373737",
"7 c gray22",
"8 c #393939",
"9 c #3A3A3A",
"0 c gray23",
"q c #434343",
"w c gray27",
"e c gray31",
"r c gray34",
"t c #585858",
"y c #5F5F5F",
"u c #626262",
"i c gray39",
"p c gray40",
"a c #676767",
"s c DimGray",
"d c #6F6F6F",
"f c gray44",
"g c #717171",
"h c gray45",
"j c #747474",
"k c #777777",
"l c #7C7C7C",
"z c #818181",
"x c gray51",
"c c gray53",
"v c gray54",
"b c #8B8B8B",
"n c gray56",
"m c gray57",
"M c #989898",
"N c #9B9B9B",
"B c #A0A0A0",
"V c #A9A9A9",
"C c #AAAAAA",
"Z c #AEAEAE",
"A c #B6B6B6",
"S c #B7B7B7",
"D c gray72",
"F c #B9B9B9",
"G c #BBBBBB",
"H c gray",
"J c #C0C0C0",
"K c #C1C1C1",
"L c gray80",
"P c #CDCDCD",
"I c #CECECE",
"U c gray83",
"Y c gray84",
"T c #D7D7D7",
"R c gray86",
"E c #DDDDDD",
"W c #DFDFDF",
"Q c gray90",
"! c gray92",
"~ c #EEEEEE",
"^ c #EFEFEF",
"/ c #F3F3F3",
"( c #FDFDFD",
") c #FEFEFE",
"_ c white",
"` c None",
/* pixels */
"`````````````___",
"````___``````_W_",
"````_P__````__a_",
"````_aZ_____~i;_",
"````_i 5hkde@ &_",
"_____q1n6 dlX >_",
"_NeA_;VhL6PAr 1_",
"_# Xm yQx&WQ3 6_",
"_w  #     43  k_",
"_!s,  ;   9RXXU_",
"`___N#&vFKKB#c__",
"```__Wy@#0F9K__`",
"````___/FVUP3h~_",
"```````_____x r_",
"```````````__Uv_",
"````````````____"
};
