/* XPM */
static char *goldendict[] = {
/* columns rows colors chars-per-pixel */
"24 24 237 2 ",
"   c #261900",
".  c #3A2600",
"X  c #402A00",
"o  c #422B00",
"O  c #432B00",
"+  c #422C00",
"@  c #442D00",
"#  c #452D00",
"$  c #442D01",
"%  c #452F03",
"&  c #4B3100",
"*  c #4E3C1B",
"=  c #603F00",
"-  c #693E00",
";  c #624104",
":  c #624407",
">  c #6F4B06",
",  c #69490C",
"<  c #68490E",
"1  c #714900",
"2  c #754900",
"3  c #7E4800",
"4  c #7C4B00",
"5  c #7A4C00",
"6  c #784F00",
"7  c #7F4F00",
"8  c #705010",
"9  c #7D5617",
"0  c #554220",
"q  c #5D4B27",
"w  c #6D5024",
"e  c #6D532C",
"r  c #68542C",
"t  c #715424",
"y  c #745725",
"u  c #745726",
"i  c #755825",
"p  c #745827",
"a  c #755827",
"s  c #755927",
"d  c #765927",
"f  c #715A2A",
"g  c #7C5C2B",
"h  c #715A33",
"j  c #776035",
"k  c #786032",
"l  c #796235",
"z  c #7A6234",
"x  c #7B6436",
"c  c #7D6538",
"v  c #7E6738",
"b  c #515150",
"n  c #675C46",
"m  c #7E6941",
"M  c #545A63",
"N  c #5C626C",
"B  c #6D6D6E",
"V  c gray46",
"C  c #767676",
"Z  c gray48",
"A  c #7E7E7E",
"S  c #804800",
"D  c #804F00",
"F  c #805000",
"G  c #815000",
"H  c #815100",
"J  c #825000",
"K  c #835100",
"L  c #835200",
"P  c #845200",
"I  c #865700",
"U  c #8A5B00",
"Y  c #915900",
"T  c #925900",
"R  c #925C00",
"E  c #8F660E",
"W  c #956100",
"Q  c #956800",
"!  c #906805",
"~  c #AA6600",
"^  c #A26B01",
"/  c #A36C0D",
"(  c #BA7F0D",
")  c #A06E10",
"_  c #A57310",
"`  c #AA7E1D",
"'  c #815F20",
"]  c #825F22",
"[  c #8A6626",
"{  c #806028",
"}  c #926D20",
"|  c #936B27",
" . c #9D762B",
".. c #826433",
"X. c #A07A2D",
"o. c #947844",
"O. c #8B7751",
"+. c #B38000",
"@. c #BC8700",
"#. c #B88A15",
"$. c #B99111",
"%. c #AD8223",
"&. c #B58A25",
"*. c #BC8B26",
"=. c #BD952A",
"-. c #BF9135",
";. c #C9930E",
":. c #CB8F1B",
">. c #CA9C16",
",. c #D0AA00",
"<. c #DAB708",
"1. c #CBA117",
"2. c #CBA51F",
"3. c #CFA91F",
"4. c #DEB812",
"5. c #D19B27",
"6. c #D8B821",
"7. c #D4BD2A",
"8. c #D2A433",
"9. c #DECC37",
"0. c #E6C33B",
"q. c #A88A54",
"w. c #BE9D5D",
"e. c #CBB844",
"r. c #DABE46",
"t. c #C3AF56",
"y. c #D5AF5A",
"u. c #C4B67D",
"i. c #E6CA63",
"p. c #E8CE7F",
"a. c #F5E97C",
"s. c #797F8A",
"d. c #7C7F88",
"f. c #7F848E",
"g. c #808080",
"h. c #808181",
"j. c #828283",
"k. c gray52",
"l. c gray61",
"z. c #979EA8",
"x. c #9FA3AA",
"c. c #ADAEAE",
"v. c #BEBBA8",
"b. c #A8AFBB",
"n. c #B7B8B4",
"m. c #B1B5BD",
"M. c #D0BD9B",
"N. c #F3E996",
"B. c #F5E996",
"V. c #C9C1A3",
"C. c #DAC9A7",
"Z. c #D3CCBF",
"A. c #D3D2BF",
"S. c #E8D7B2",
"D. c #E0D2B8",
"F. c #E0D3BA",
"G. c #E1D5BC",
"H. c #F4E4B8",
"J. c #B0B7C2",
"K. c #B8BBC6",
"L. c #BDBFC4",
"P. c #BCC3D0",
"I. c #C0C0C0",
"U. c #C1C0C0",
"Y. c #C1C1C1",
"T. c #C3C3C3",
"R. c #C4C4C6",
"E. c #C9CACA",
"W. c #D8D5C9",
"Q. c #C2C9D7",
"!. c #C8CBD7",
"~. c #C7CEDA",
"^. c #C4C8DC",
"/. c gray82",
"(. c #D7D7D7",
"). c #D8D7D7",
"_. c #D8D8D6",
"`. c #D5D7DA",
"'. c #D8D8D8",
"]. c gray86",
"[. c #DCDBDB",
"{. c gainsboro",
"}. c #DDDDDD",
"|. c gray87",
" X c #E7DBC3",
".X c #E6DBC6",
"XX c #E6DCC7",
"oX c #F4E6CC",
"OX c #F6F0CA",
"+X c #E5E0D2",
"@X c #CDD2E0",
"#X c #D1D5E7",
"$X c #D7DBE3",
"%X c #D4DBE8",
"&X c #D9DFEE",
"*X c #DAE0EE",
"=X c #DDEBFF",
"-X c #E0E1E1",
";X c #E2E2E1",
":X c #E1E3E3",
">X c gray89",
",X c #E3E4E2",
"<X c #E3E4E3",
"1X c #E3E3E4",
"2X c #E9E8E8",
"3X c #E8E8E9",
"4X c #E8E9E9",
"5X c #E9E9E9",
"6X c #E8E9EA",
"7X c #EAEAEB",
"8X c #EDECEE",
"9X c #E5EAF2",
"0X c #E9EBF6",
"qX c #EBEEF5",
"wX c #E0EDFE",
"eX c #EEF2FB",
"rX c gray94",
"tX c #F0F0F1",
"yX c #F1F1F1",
"uX c #F0F0F2",
"iX c #F1F1F3",
"pX c #F4F3F5",
"aX c #F8F6F0",
"sX c #F6F6F9",
"dX c #F5F6FB",
"fX c #F2F6FF",
"gX c #F3F6FF",
"hX c #F7F8FA",
"jX c #F7F8FE",
"kX c #F7FAFF",
"lX c #FBFBFB",
"zX c #F9FAFF",
"xX c #F8FDFF",
"cX c #FCFFFF",
"vX c #FDFFFF",
"bX c white",
"nX c None",
/* pixels */
"nXnXnXnXnXnXnXnXnXnXnXnXnXnXnXnXnXnXnXnXnXnXnXnX",
"nXnXnXnXnXnXnXnXnXnXnXnXnXnXnXnXnXnXnXnXnXnXnXnX",
"nXnXnXnXnXnXnXnXnXnXnXnXnXnXnXnX5 nXnXnXnXnXnXnX",
"nXnXnXnXnXnXnXnXnXnXnXnXnXnXX.oXbX .nXnXnXnXnXnX",
"nXnXnXnXnXnXnXnXnXnXnXnXw. XbXbXbX} nXnXnXnXnXnX",
"nXnXnX) C.XXG.A.D.S.M..XbXbXbXbXbXZ.o.nXnXnXnXnX",
"nXnX=.N.bXbXfXeX9X$Xx.qXbXbXbXbXbX&XW.r.nXnXnXnX",
"nXnX6.a.xXiX6X:X'.R.h.|.bXbXbXbXbX9Xv.9.! nXnXnX",
"nXnX,.B.zXiX2X:X).T.Z ].bXbXbXbXbXbXn.7.Q nXnXnX",
"nX` <.OXkXiX2X1X(.T.C ].bXbXbXbXbXbXK.e.$.nXnXnX",
"nX&.4.aXkXrX2X,X(.m.V ].bXbXbXbXbXbX^.t.2.# nXnX",
"nX#.0.bXsXrX2X:X(.Z.V ].bXbXbXbXbXbX#Xu.3.= nXnX",
"nX+.i.bXsXiX2X:X'.R.C |.bXbXbXbXbX2X~.V.1.1 nXnX",
"nX@.p.bXsXiX2X,X'.n.V '.bXbXbX/.l.k.m.W.>.E nXnX",
"nX;.H.bXbXlXpX8X:XE.A 3XbX(.h.B h.c.`.fX8.%.: nX",
"_ 5.+X=X&X%X@X~.P.b.s.L.f.M N f.z.J.Q.=Xy.*.> nX",
"^ :.q.m v v x x k f n b * 0 q r h j l O.5.( I nX",
"W H D H H D K K T ~ / [ T 4 2 5 D H D 7 > T U nX",
"nX..t i d d i d { 9 S S - u d i d d d d g | : nX",
"nXnX# + X O X X & ' w e ' < . X X O X # %   nXnX",
"nXnXnXnXnXnXnXnXnXnX, 8 % nXnXnXnXnXnXnXnXnXnXnX",
"nXnXnXnXnXnXnXnXnXnXnXnXnXnXnXnXnXnXnXnXnXnXnXnX",
"nXnXnXnXnXnXnXnXnXnXnXnXnXnXnXnXnXnXnXnXnXnXnXnX",
"nXnXnXnXnXnXnXnXnXnXnXnXnXnXnXnXnXnXnXnXnXnXnXnX"
};
