/* XPM */
static char *graveman48[] = {
/* columns rows colors chars-per-pixel */
"48 48 167 2 ",
"   c #020203",
".  c #080500",
"X  c #010C07",
"o  c #0A0900",
"O  c #01000B",
"+  c #0C0C0C",
"@  c #160009",
"#  c #001403",
"$  c #001C02",
"%  c #121105",
"&  c #1C1400",
"*  c #020013",
"=  c #0C0015",
"-  c #03001C",
";  c #141414",
":  c #161916",
">  c #1E1B17",
",  c #1C1C1C",
"<  c #270002",
"1  c #290003",
"2  c #3E0000",
"3  c #3D0D0D",
"4  c #221702",
"5  c #251900",
"6  c #2A1D00",
"7  c #221C1C",
"8  c #3D1717",
"9  c #3A1A1A",
"0  c #002402",
"q  c #002C03",
"w  c #003602",
"e  c #003A02",
"r  c #0E360F",
"t  c #2A220A",
"y  c #362D03",
"u  c #23211A",
"i  c #030024",
"p  c #080027",
"a  c #04002B",
"s  c #08002A",
"d  c #050033",
"f  c #06003D",
"g  c #242424",
"h  c #2F2A25",
"j  c #2C2C2C",
"k  c #253A25",
"l  c #2C332C",
"z  c #30302F",
"x  c #3A342A",
"c  c #3C382F",
"v  c #333333",
"b  c #3D3731",
"n  c #353835",
"m  c #3C3C3C",
"M  c #420000",
"N  c #592F04",
"B  c #473C13",
"V  c #453A2A",
"C  c #413B34",
"Z  c #004203",
"A  c #004C03",
"S  c #5B4805",
"D  c #524113",
"F  c #564A1B",
"G  c #5F5311",
"H  c #5B501F",
"J  c #654B00",
"K  c #615312",
"L  c #605D19",
"P  c #775D18",
"I  c #706502",
"U  c #726C00",
"Y  c #7E6D1F",
"T  c #494421",
"R  c #46452A",
"E  c #55522F",
"W  c #434039",
"Q  c #4D4A3D",
"!  c #55533C",
"~  c #6C5F22",
"^  c #6B5828",
"/  c #6D672F",
"(  c #786A20",
")  c #66613D",
"_  c #070045",
"`  c #444444",
"'  c #494942",
"]  c #4C4C4C",
"[  c #565041",
"{  c #50504F",
"}  c #545454",
"|  c #5C5C5C",
" . c #655B4F",
".. c #615E59",
"X. c #6D614E",
"o. c #72684E",
"O. c #6E675D",
"+. c #736656",
"@. c #756A5D",
"#. c #7C6F5E",
"$. c #7F715F",
"%. c #646464",
"&. c #696561",
"*. c #6C6C6C",
"=. c #746D62",
"-. c #7A7165",
";. c #747474",
":. c #7C7C7C",
">. c #9D7915",
",. c #806E22",
"<. c #8F7124",
"1. c #8B7C69",
"2. c #817C75",
"3. c #928C03",
"4. c #9D8F05",
"5. c #93870B",
"6. c #A58300",
"7. c #B58E00",
"8. c #A39B00",
"9. c #BCA403",
"0. c #A1942A",
"q. c #B49536",
"w. c #B5A52C",
"e. c #BFA238",
"r. c #D99D00",
"t. c #DEA000",
"y. c #E7A800",
"u. c #F6BC00",
"i. c #FCBA00",
"p. c #C49529",
"a. c #C3982D",
"s. c #C1A923",
"d. c #C3AA2E",
"f. c #C4AD36",
"g. c #C2A539",
"h. c #C4A938",
"j. c #C7B135",
"k. c #C9B731",
"l. c #EFC400",
"z. c #F1C300",
"x. c #91826E",
"c. c #968671",
"v. c #988772",
"b. c #9A8B75",
"n. c #9E8E78",
"m. c #A8967F",
"M. c #838383",
"N. c #8B8B8B",
"B. c #939393",
"V. c #9C9C9C",
"C. c #A09E8E",
"Z. c #A89F92",
"A. c #A9A297",
"S. c #A3A29F",
"D. c #A4A4A3",
"F. c #ACACAC",
"G. c #B4B4B4",
"H. c #BDBDBD",
"J. c #C5C5C5",
"K. c #CECBC2",
"L. c #CBCBCB",
"P. c #D4D4D4",
"I. c #DBDBDB",
"U. c #E3E3E3",
"Y. c #EAEAEA",
"T. c #F8F8F8",
"R. c None",
/* pixels */
"R.R.R.R.R.R.R.R.R.R.R.R.R.R.R.R.R.R.R.R.R.R.R.R.R.] | R.R.R.R.R.R.R.R.R.R.R.R.R.R.R.R.R.R.R.R.R.",
"R.R.R.R.R.R.R.R.R.R.R.R.R.R.R.R.R.R.R.R.R.R.R.` N.N.%.m R.R.R.R.R.R.R.R.R.R.R.R.R.R.R.R.R.R.R.R.",
"R.R.R.R.R.R.R.R.R.R.R.R.R.R.R.R.R.R.R.R.R.R.R.F.*.W C %.R.R.R.R.R.R.R.R.R.R.R.R.R.R.R.R.R.R.R.R.",
"R.R.R.R.R.R.R.R.R.R.R.R.R.R.R.R.R.R.R.R.R.R.M.V.M.t c R.R.R.R.R.R.R.R.R.R.R.R.R.R.R.R.R.R.R.R.R.",
"R.R.R.R.R.R.R.R.R.R.R.R.R.R.R.R.R.R.R.R.R.R.R.` } & 5 R.R.R.R.R.` j R.R.R.R.R.R.R.R.R.R.R.R.R.R.",
"R.R.R.R.R.R.R.R.R.R.R.R.R.R.R.R.R.R.R.R.R.R.R.R.R.R.6 R.R.R.j m z n j g R.R.R.R.R.R.R.R.R.R.R.R.",
"R.R.R.R.R.R.R.R.R.R.R.R.R.R.R.R.R.R.R.R.R.R.R.R.R.R.& 4 R.R.` ` U.:.v j , R.R.R.R.R.R.R.R.R.R.R.",
"R.R.R.R.R.R.R.R.R.R.R.R.R.R.R.R.R.R.R.R.R.R.R.R.R.R.u 5 ; m Y.J.T.H.j j g , R.R.R.R.R.R.R.R.R.R.",
"R.R.R.R.R.R.R.R.R.R.R.R.R.R.R.R.R.R.R.R.R.R.R.R.R.R.j . + v *.M.B.*.j j g , R.R.R.R.R.R.R.R.R.R.",
"R.R.R.R.R.R.R.R.R.R.R.R.R.R.R.R.R.R.R.R.R.R.R.R.R.R.R.g   B P ^ v z j g g , , R.R.R.R.R.R.R.R.R.",
"R.R.R.R.R.R.R.R.g m ] m n j R.R.R.R.R.R.R.R.R.R.R.R.R.>.r.i.i.z.,.z j g g , , R.R.R.R.R.R.R.R.R.",
"R.R.R.R.R.R.g | L.I.I.I.L.*.] n R.R.R.R.R.R.R.R.R.R.y.i.i.z.9.4.5.j j g g , ; , R.R.R.R.R.R.R.R.",
"R.R.R.R.R.j G.I.I.I.I.I.I.I.I.B.] v R.R.R.R.R.R.R.t.u.6.I U 8.3.L j g g , , ; , R.R.R.R.R.R.R.R.",
"R.R.R.R.g D.:.H.I.I.I.I.I.I.I.I.P.*.m R.R.R.R.R.J 7.R.R.R.R o g z , g g , , ; ; R.R.R.R.R.R.R.R.",
"R.R.R.R.] J.n ;.B.J.I.I.I.I.I.I.I.I.B.] R.R.R.R.R.R.R.R.R.R., g v g g , , ; ; + R.R.R.R.R.R.R.R.",
"R.R.R.R.G.P.%.B.| } I.P.I.P.I.I.I.I.I.D.} R.R.R.R.R.R.R.R.R.R.m ] n , , , ; ; + , R.R.R.R.R.R.R.",
"R.R.R.m I.I.| | *.n J.j G.P.I.I.I.I.I.I.B.] R.R.R.R.R.R.R.R.R.*.*.} , g g ; + + 7 R.R.R.R.R.R.R.",
"R.R.R.{ I.I.H.n ;.{ J.z M.B.B.G.I.I.I.I.I.:.n [ [ R.R.R.R.R.} ;.*.| } | | %.v O : R.R.R.R.R.R.R.",
"R.R.R.%.U.I.U.I.G.D.;.m *.;.| m | G.I.P.I.I.| n o.R.R.R.] ] ] ` ] ` ` ] { ] { j ; R.R.R.R.R.R.R.",
"R.R.R.%.U.U.U.I.I.I.D.:.| *.| } D.` G.V.I.I.P.} c j m j z v v n v v m m m m m ] ; R.R.R.R.R.R.R.",
"R.R.R.%.I.U.U.U.U.U.I.I.D.:.:.| B.%.| m H.F.I.H.] , , , , g g g g g g j g j j j v R.R.R.R.R.R.R.",
"R.R.R.*.U.I.U.U.U.U.U.I.I.I.L.M.} *.` } N.] F.H.M.v + + + ; ; + ; ; : : , : , , ` R.R.R.R.R.R.R.",
"R.R.R.} I.U.U.U.U.U.U.U.I.I.H.J.H.N.D.%.*.| B.*.:.{ *.B.N.:.;.*.%.*.] m m m n m n R.R.R.R.R.R.R.",
"R.R.R.` U.U.U.U.U.U.U.U.P.V.| ] *.G.I.N.} j M.` %.:.} H.I.I.I.I.I.I.| ; + +     ; R.R.R.R.R.R.R.",
"R.R.R.j P.I.U.U.U.U.Y.Y.G.S.W O.B.| I.I.L.L.*.} ] I.} B.I.I.I.I.I.I.] ; +       ; R.R.R.R.R.R.R.",
"R.R.R.R.N.U.U.U.U.U.U.Y.G.@.m.x.b *.M.I.I.I.L.F.m I.M.Q I.I.J.Y C.I.v + +       , R.R.R.R.R.R.R.",
"R.R.R.R.| U.I.U.U.U.U.Y.F. .b.1.x.b ;.L.U.U.U.U.L.I.I.} T I.P e.F H.g +       . 3 2   R.R.R.R.R.",
"R.R.R.R.] I.U.U.U.Y.U.U.H.C 1.V v.+.l G.Y.U.Y.U.U.U.U.*.E t ( e.H B.+ + .     8 M =   R.R.R.R.R.",
"R.R.R.R.g P.I.U.U.U.U.U.L.] #.X.1.m.h V.Y.U.U.U.U.U.I.D.! w.e.f.B K %       9 < s _   R.R.R.R.R.",
"R.R.R.R.R.%.L.J.U.U.U.U.:.N.S.1.m.m.> ;.U.U.Y.U.U.U.U.U.' k.f.h.q.p.y + . 9 @ f f i   R.R.R.R.R.",
"R.R.R.R.R.j P.` N.I.I.P.:.H.L.L.=.-.g | U.Y.Y.U.U.U.U.I.%.0.j.h.g.a.S 7 8 = _ d O f   R.R.R.R.R.",
"R.R.R.R.R.R.%.V.| *.G.N.P.Y.V.Y.Y.Y.| | P.U.Y.Y.U.U.U.U.;./ j.h.g.<.N < p _ d i a _ O R.R.R.R.R.",
"R.R.R.R.R.R.j P.L.V.*.;.Y.Y.V.Y.Y.I.| *.:.Y.Y.U.U.U.U.U.M.X.j.j.q.K 0 p _ - d a _ f O R.R.R.R.R.",
"R.R.R.R.R.R.R.%.J.] *.I.Y.Y.V.A.A.F.;.B.} U.U.Y.U.Y.U.U.J.C w.s.G A 0 p *   f a _ d O R.R.R.R.R.",
"R.R.R.R.R.R.R.v L.:.*.Y.U.L.I.1.v...L.P.} F.U.U.U.U.U.I.U.m A # # A $ a - * - O _ a R.R.R.R.R.R.",
"R.R.R.R.R.R.R.R.m ;.I.Y.V.%.M.2.n.O.U.U.*.%.I.U.U.U.U.U.U.n A q $ A # f - *     d i R.R.R.R.R.R.",
"R.R.R.R.R.R.R.R.R.%.Y.Y.:.:.*.:.:.V.I.I.D.` P.I.U.U.U.U.I.n A A q A X f * O a   O - R.R.R.R.R.R.",
"R.R.R.R.R.R.R.R.v P.Y.G.N.I.D.:.F.D.N.D.I.] } L.I.U.U.I.L.n A A A A X _ O a _   d * R.R.R.R.R.R.",
"R.R.R.R.R.R.R.R.*.Y.U.N.J.I.I.I.I.;.| | I.*.] } V.L.I.U.N.k A A A A X _   a a _ f * R.R.R.R.R.R.",
"R.R.R.R.R.R.R.m G.U.H.} L.I.I.I.I.P.G.%.F.G.` D.V.:.N.U.*.r A A A A O f   - _ d O R.R.R.R.R.R.R.",
"R.R.R.R.R.R.R.R.m F.;.R.n H.I.I.I.I.P.I.;.P.} ;.I.J.B.I.m A A A A A O i a _ i R.R.R.R.R.R.R.R.R.",
"R.R.R.R.R.R.R.R.R.v R.R.R.j V.I.I.I.I.I.M.L.:.` G.I.I.:.: q A A A Z - d f * R.R.R.R.R.R.R.R.R.R.",
"R.R.R.R.R.R.R.R.R.R.R.R.R.R.R.| I.I.I.I.H.N.J.] V.L.G.l e e A A A w i p * R.R.R.R.R.R.R.R.R.R.R.",
"R.R.R.R.R.R.R.R.R.R.R.R.R.R.R.R.v :.I.I.I.*.L.} | D.v $ $ $ $ 0 q q * R.R.R.R.R.R.R.R.R.R.R.R.R.",
"R.R.R.R.R.R.R.R.R.R.R.R.R.R.R.R.R.R.v } ;.%.H.B.m g R.R.R.R.R.R.R.R.R.R.R.R.R.R.R.R.R.R.R.R.R.R.",
"R.R.R.R.R.R.R.R.R.R.R.R.R.R.R.R.R.R.R.R.R.R.%.L.` R.R.R.R.R.R.R.R.R.R.R.R.R.R.R.R.R.R.R.R.R.R.R.",
"R.R.R.R.R.R.R.R.R.R.R.R.R.R.R.R.R.R.R.R.R.R.n L.%.j R.R.R.R.R.R.R.R.R.R.R.R.R.R.R.R.R.R.R.R.R.R.",
"R.R.R.R.R.R.R.R.R.R.R.R.R.R.R.R.R.R.R.R.R.R.R.] ] , R.R.R.R.R.R.R.R.R.R.R.R.R.R.R.R.R.R.R.R.R.R."
};
