/* XPM */
static char *gthumb[] = {
/* columns rows colors chars-per-pixel */
"16 16 171 2 ",
"   c #AF4514",
".  c #B94A17",
"X  c #BD4D18",
"o  c #C6531A",
"O  c #D95F20",
"+  c #CF6829",
"@  c #CE6B2F",
"#  c #DA6324",
"$  c #DD6626",
"%  c #D36329",
"&  c #D7662C",
"*  c #D86729",
"=  c #D9652A",
"-  c #D8652B",
";  c #D86730",
":  c #D76C36",
">  c #D86E35",
",  c #D66C39",
"<  c #D66F3E",
"1  c #CC703C",
"2  c #E36524",
"3  c #E26627",
"4  c #B47F4F",
"5  c #D67241",
"6  c #D37447",
"7  c #D57448",
"8  c #D47549",
"9  c #C47C54",
"0  c #818F40",
"q  c #8D8A40",
"w  c #978846",
"e  c #9F8555",
"r  c #938E54",
"t  c #83965A",
"y  c #86955A",
"u  c #B4845A",
"i  c #839860",
"p  c #859E75",
"a  c #889C75",
"s  c #B18761",
"d  c #B38C71",
"f  c #A0957E",
"g  c #85A07B",
"h  c #C5805F",
"j  c #E68447",
"k  c #E28148",
"l  c #D49D6F",
"z  c #D3A070",
"x  c #898A84",
"c  c #8A8B85",
"v  c #8D8E88",
"b  c #8E8F89",
"n  c #8F908A",
"m  c #90918B",
"M  c #90918C",
"N  c #91928C",
"B  c #93958F",
"V  c #94958F",
"C  c #959691",
"Z  c #979893",
"A  c #999A95",
"S  c #9A9C96",
"D  c #9A9C97",
"F  c #9D9E99",
"G  c #9E9F9A",
"H  c #87A795",
"J  c #9EA09B",
"K  c #9FA09B",
"L  c #A0A09B",
"P  c #A0A19C",
"I  c #A1A29D",
"U  c #A1A29E",
"Y  c #A1A39E",
"T  c #A2A39E",
"R  c #A3A49F",
"E  c #97ABB4",
"W  c #9BA9B9",
"Q  c #A5A6A2",
"!  c #A8AAA5",
"~  c #A9ABA6",
"^  c #A1A5A8",
"/  c #ABADA9",
"(  c #ACADA9",
")  c #ADAFAA",
"_  c #AFB1AC",
"`  c #AFB1AD",
"'  c #B0B2AE",
"]  c #B1B3AF",
"[  c #B2B4B0",
"{  c #B3B5B0",
"}  c #B3B5B1",
"|  c #B4B6B2",
" . c #B5B7B3",
".. c #C89480",
"X. c #EDB98D",
"o. c #EABA93",
"O. c #F4C79B",
"+. c #CCCFA9",
"@. c #CDCFAB",
"#. c #CCD0AA",
"$. c #CED1B0",
"%. c #CED2B1",
"&. c #CFD2B4",
"*. c #D0D6B9",
"=. c #8DB3C3",
"-. c #89B4C4",
";. c #91B6D4",
":. c #B3BAC1",
">. c #B3BBC2",
",. c #B3BBC3",
"<. c #B3BCC3",
"1. c #B3BCC4",
"2. c #B6BECB",
"3. c #B0BDCD",
"4. c #A1B5D3",
"5. c #8BBDE4",
"6. c #B5C1D6",
"7. c #AFD1E8",
"8. c #AED1EB",
"9. c #AFD2EE",
"0. c #A3C5FD",
"q. c #A2C6FF",
"w. c #A5C8FF",
"e. c #ADD4F9",
"r. c #AED5FC",
"t. c #ADD5FF",
"y. c #C2C4C1",
"u. c #CED0CB",
"i. c #CFD1CC",
"p. c #D0D2CD",
"a. c #D0D2CE",
"s. c #D1D3CE",
"d. c #D2D4D0",
"f. c #EBE5D9",
"g. c #F0E1D9",
"h. c #F4E6DF",
"j. c #E1E2E1",
"k. c #E5E5E4",
"l. c #E5E6E4",
"z. c #E8E9E6",
"x. c #E8E9E7",
"c. c #E9EAE7",
"v. c #E9EAE8",
"b. c #EAEBE9",
"n. c #F3F0EA",
"m. c #F0F0EF",
"M. c #F3F2EF",
"N. c #F1F1F0",
"B. c #F3F3F0",
"V. c #F3F3F3",
"C. c #F3F4F2",
"Z. c #F3F4F5",
"A. c #F4F5F4",
"S. c #F5F6F4",
"D. c #F6F6F5",
"F. c #F5F8F7",
"G. c #F3F6FA",
"H. c #F3F8FF",
"J. c #F4F8FF",
"K. c #F8F8F8",
"L. c #F8F9F8",
"P. c #F9F9F8",
"I. c #F8F9F9",
"U. c #F9F9F9",
"Y. c #FAFAF9",
"T. c #FDFCFB",
"R. c #FAFCFF",
"E. c gray99",
"W. c #FCFDFC",
"Q. c #FDFDFC",
"!. c None",
/* pixels */
" .[ [ [ [ [ ] ] _ ] _ _ ' !.!.!.",
"] Q.Q.Q.W.W.W.E.E.E.E.E.) !.!.!.",
") H.w.w.w.w.w.w.w.w.w.E.~ !.!.!.",
"~ H.q.3.1.1.>.>.>.>.>.y.[  . .[ ",
"Q H.q.] j.k.k.k.k.k.k.k.l.l.j./ ",
"U G.4._ P.7.9.9.2...6.r.r.r.P.~ ",
"F Z.^ / D.-.=.E 6 O.8 W ;.5.P.Q ",
"A M.f ~ g.9 , < X.k ; o.8 9 h.Q ",
"Z n.e Q M.u > $ 1   X k 5 d P.F ",
"m T.f.Y M.p u % o . O > s H P.D ",
"n K K K C.t r - 3 - 3 ; p p P.Z ",
"!.!.!.D M.0 q # + w @ - y i K.C ",
"!.!.!.Z D.+.+.z @.$.$.l &.*.K.M ",
"!.!.!.V M.a.a.a.a.i.i.i.i.i.N.v ",
"!.!.!.N C.x.x.x.x.x.b.b.b.b.D.x ",
"!.!.!.n U R U L U U P P G G F x "
};
