/* XPM */
static char *gwenview[] = {
/* columns rows colors chars-per-pixel */
"16 16 118 2 ",
"   c gray10",
".  c #3D002E",
"X  c #222222",
"o  c #232323",
"O  c #272727",
"+  c #202F20",
"@  c #2B2C2B",
"#  c gray18",
"$  c #2D5C17",
"%  c #3A6C14",
"&  c #3F463F",
"*  c #385538",
"=  c #4D5829",
"-  c #2C3248",
";  c #67034F",
":  c #79035F",
">  c #462F40",
",  c #652D57",
"<  c #6E1E71",
"1  c #6F1479",
"2  c #563671",
"3  c #425842",
"4  c gray33",
"5  c #5A5A5A",
"6  c #6A6A6A",
"7  c #810261",
"8  c #840063",
"9  c #8D006A",
"0  c #820A6D",
"q  c #91006E",
"w  c #9B0978",
"e  c #99107D",
"r  c #A1007A",
"t  c #A3007B",
"y  c #A6007D",
"u  c #448131",
"i  c #7F1882",
"p  c #731D8C",
"a  c #793981",
"s  c #3F588D",
"d  c #2D4993",
"f  c #7E5F97",
"g  c #696282",
"h  c #69648E",
"j  c #9C098A",
"k  c #AB0A82",
"l  c #A00D8B",
"z  c #B00085",
"x  c #B30088",
"c  c #BA068F",
"v  c #BC0592",
"b  c #BF1194",
"n  c #9C249B",
"m  c #993295",
"M  c #AB228F",
"N  c #AA2A90",
"B  c #9938A9",
"V  c #C40696",
"C  c #C20893",
"Z  c #C10896",
"A  c #C5119B",
"S  c #C4199A",
"D  c #C1369E",
"F  c #D808A4",
"G  c #D211A2",
"H  c #D214A3",
"J  c #D917A9",
"K  c #DC14A9",
"L  c #D71BA9",
"P  c #DC1EAC",
"I  c #E50DAE",
"U  c #EA02B0",
"Y  c #EC12B5",
"T  c #CC2EA5",
"R  c #C920A8",
"E  c #D121A5",
"W  c #E126B3",
"Q  c #E825B6",
"!  c #E734BB",
"~  c #E63ABB",
"^  c #854B8F",
"/  c #AE669C",
"(  c #897CB0",
")  c #A36DB4",
"_  c #C043B3",
"`  c #F927C5",
"'  c #EE30C0",
"]  c #FE31CA",
"[  c #FD3DCC",
"{  c #F865D4",
"}  c #6DA7FF",
"|  c #848484",
" . c #86898F",
".. c #898A8B",
"X. c #939393",
"o. c #948AAD",
"O. c #8D94B0",
"+. c #B393BF",
"@. c gray65",
"#. c #AA87DE",
"$. c #B4A3CC",
"%. c #8596F4",
"&. c #C7ACCF",
"*. c #FBA6E6",
"=. c #F2BFE5",
"-. c #BFCCF8",
";. c #B1D0FF",
":. c #C5C1C4",
">. c #C2CBC2",
",. c #CFD2D6",
"<. c #DBC9F4",
"1. c #D7E7FF",
"2. c gray92",
"3. c #E6F0FF",
"4. c #F8FAFF",
"5. c #FEFEFE",
"6. c white",
"7. c None",
/* pixels */
"7.7.7.7.7.7.7.7.7.7.7.7.7.7.7.7.",
"7.7.7.7.7.7.7.7.7.7.7.7.7.7.7.7.",
"7.7.7.7.7.W { ` U G A Z v 7.7.7.",
"7.7.7.7.T F N a f $.&.+.^ < 1 7.",
"7.7.7.y M 2 g  ...X.2.5.3.) i 7.",
"7.7.t m O.o.( h 6 # 5 5.4._ 0 7.",
"7.7.n -.@.- d s >.* @ 5.*.R 7.7.",
"7.l %.1.|   X 3 u % & =.! ; 7.7.",
"7.p } ;.,.O o + $ = / ~ w 7.7.7.",
"7.j B #.<.:.4 > , D K 7 7.7.7.7.",
"7.7.8 : e S P Y I Z . 7.7.7.7.7.",
"7.7.z k 7.7.7.7.7.7.7.7.7.7.7.7.",
"7.7.7.x b E Q 7.] [ ' J q 7.7.7.",
"7.7.7.7.7.9 c L H V t 7.7.7.7.7.",
"7.7.7.7.7.7.7.7.7.7.7.7.7.7.7.7.",
"7.7.7.7.7.7.7.7.7.7.7.7.7.7.7.7."
};
