/* XPM */
static char *htop[] = {
/* columns rows colors chars-per-pixel */
"32 32 3 1 ",
"  c #585858",
". c #00C000",
"X c white",
/* pixels */
"                                ",
"                                ",
" XX .  .  .           .  .  . XX",
" X  .  .  .           .  .  .  X",
" X  .  .  .           .  .  .  X",
" X  .  .  .           .  .  .  X",
" X  .  .  .           .  .  .  X",
" X  .  .  .           .  .  .  X",
" X  .  .  .           .  .  .  X",
" X  .  .  .           .  .  .  X",
" XX .  .  .           .  .  . XX",
"                                ",
" XX .  .  .  .  .  .  .  .  . XX",
" X  .  .  .  .  .  .  .  .  .  X",
" X  .  .  .  .  .  .  .  .  .  X",
" X  .  .  .  .  .  .  .  .  .  X",
" X  .  .  .  .  .  .  .  .  .  X",
" X  .  .  .  .  .  .  .  .  .  X",
" X  .  .  .  .  .  .  .  .  .  X",
" X  .  .  .  .  .  .  .  .  .  X",
" XX .  .  .  .  .  .  .  .  . XX",
"                                ",
" XX .  .  .           .  .  . XX",
" X  .  .  .           .  .  .  X",
" X  .  .  .           .  .  .  X",
" X  .  .  .           .  .  .  X",
" X  .  .  .           .  .  .  X",
" X  .  .  .           .  .  .  X",
" X  .  .  .           .  .  .  X",
" X  .  .  .           .  .  .  X",
" XX .  .  .           .  .  . XX",
"                                "
};
