/* XPM */
static char *java_icon48[] = {
/* columns rows colors chars-per-pixel */
"48 48 256 2 ",
"   c #040505",
".  c #0A0303",
"X  c #0D0D0C",
"o  c #120202",
"O  c #1B0606",
"+  c #100B0B",
"@  c #080E10",
"#  c #0C1315",
"$  c #131313",
"%  c #151A1C",
"&  c #1B1C1C",
"*  c #191815",
"=  c #230505",
"-  c #2E0D0D",
";  c #280202",
":  c #3B0000",
">  c #3F0F0F",
",  c #201F1F",
"<  c #331C1C",
"1  c #3B1818",
"2  c #24201A",
"3  c #171F22",
"4  c #201F20",
"5  c #1B2324",
"6  c #242424",
"7  c #272728",
"8  c #242A2A",
"9  c #2B2B2B",
"0  c #372222",
"q  c #302F2F",
"w  c #3E2525",
"e  c #36342E",
"r  c #2F2F31",
"t  c #2D3333",
"y  c #343434",
"u  c #363639",
"i  c #353A3B",
"p  c #3B3B3B",
"a  c #3D3836",
"s  c #460C0C",
"d  c #4D1414",
"f  c #421111",
"g  c #551616",
"h  c #6E0606",
"j  c #651A1A",
"k  c #6B1A1A",
"l  c #6B1717",
"z  c #7B1E1E",
"x  c #761E1E",
"c  c #433B2D",
"v  c #433C3A",
"b  c #473232",
"n  c #5C3030",
"m  c #7C2222",
"M  c #752F2F",
"N  c #6B3B3B",
"B  c #4B4335",
"V  c #45433F",
"C  c #5B4C3B",
"Z  c #3E3E41",
"A  c #3C4143",
"S  c #37576D",
"D  c #3A596F",
"F  c #3E5D73",
"G  c #434344",
"H  c #454649",
"J  c #424B4B",
"K  c #4B4B4C",
"L  c #4A4847",
"P  c #544E42",
"I  c #584B43",
"U  c #5E5344",
"Y  c #4D4E51",
"T  c #4F5052",
"R  c #535354",
"E  c #575759",
"W  c #575858",
"Q  c #5B5B5D",
"!  c #5B5555",
"~  c #7D4343",
"^  c #6D5E48",
"/  c #75644B",
"(  c #6C6459",
")  c #5D5E62",
"_  c #5F6161",
"`  c #426176",
"'  c #46657A",
"]  c #4B697E",
"[  c #576977",
"{  c #646465",
"}  c #65666A",
"|  c #6A6A6B",
" . c #67686C",
".. c #736E69",
"X. c #6C6D71",
"o. c #60707F",
"O. c #6D7373",
"+. c #747475",
"@. c #787777",
"#. c #74757B",
"$. c #7C7C7C",
"%. c #A01919",
"&. c #8C2323",
"*. c #892A2A",
"=. c #862222",
"-. c #9C2929",
";. c #982626",
":. c #8C3A3A",
">. c #A32929",
",. c #A92929",
"<. c #B32E2E",
"1. c #BE2F2F",
"2. c #A03232",
"3. c #BC3131",
"4. c #C23030",
"5. c #CA3232",
"6. c #CC3939",
"7. c #D33333",
"8. c #DB3737",
"9. c #E33737",
"0. c #E43838",
"q. c #EC3B3B",
"w. c #F43D3D",
"e. c #FA3E3E",
"r. c #8C4040",
"t. c #984040",
"y. c #895858",
"u. c #84735C",
"i. c #867C6E",
"p. c #C54343",
"a. c #E74242",
"s. c #FD4343",
"d. c #FE4C4C",
"f. c #FF5454",
"g. c #FF5A5A",
"h. c #8E8474",
"j. c #958A7D",
"k. c #4E6C81",
"l. c #516E83",
"z. c #557186",
"x. c #5A768B",
"c. c #5D798E",
"v. c #6A7E8B",
"b. c #7C7D83",
"n. c #627D92",
"m. c #7F8088",
"M. c #658095",
"N. c #688397",
"B. c #6B859A",
"V. c #66849B",
"C. c #718A9F",
"Z. c #7A8898",
"A. c #748EA2",
"S. c #7891A6",
"D. c #7C95A9",
"F. c #7593B5",
"G. c #838384",
"H. c #8B8584",
"J. c #85858B",
"K. c #87888F",
"L. c #8A8A8B",
"P. c #8D848B",
"I. c #958986",
"U. c #9C948A",
"Y. c #91908D",
"T. c #8D8E94",
"R. c #8E9096",
"E. c #81909F",
"W. c #8F9099",
"Q. c #939394",
"!. c #93949A",
"~. c #97989F",
"^. c #9B9B9C",
"/. c #8A99A4",
"(. c #819AAE",
"). c #9798A0",
"_. c #9B9CA3",
"`. c #9099A8",
"'. c #9E9FA9",
"]. c #869EB2",
"[. c #9FA1A8",
"{. c #97A0AA",
"}. c #8BA2B6",
"|. c #8EA5B9",
" X c #91A7BB",
".X c #94AABE",
"XX c #A2A2A3",
"oX c #A2A3AA",
"OX c #A8A7AA",
"+X c #ABABAB",
"@X c #ABACB4",
"#X c #ADAFB9",
"$X c #A4ACB6",
"%X c #AFB0B6",
"&X c #AEB3BD",
"*X c #B4B4B4",
"=X c #BAB8B7",
"-X c #B3B4BD",
";X c #BABBBB",
":X c #CAC1BA",
">X c #97ADC0",
",X c #99AFC2",
"<X c #9CB1C5",
"1X c #9FB5C8",
"2X c #8AB0D2",
"3X c #A2B7CA",
"4X c #B5B7C1",
"5X c #B7B9C2",
"6X c #BABCC4",
"7X c #BDBFC9",
"8X c #B3C1CF",
"9X c #BEC0CA",
"0X c #A1C2D9",
"qX c #ABD1DE",
"wX c #99C5EA",
"eX c #94C5F2",
"rX c #94CAFF",
"tX c #9ACCFF",
"yX c #91C5FF",
"uX c #9BD5FF",
"iX c #A6D2E7",
"pX c #A3D2FA",
"aX c #A6E1FF",
"sX c #C3C3C3",
"dX c #C3C4CD",
"fX c #C7CBCF",
"gX c #CBCBCB",
"hX c #CEC6C6",
"jX c #C4C6D1",
"kX c #C6C9D3",
"lX c #CACBD5",
"zX c #CDCED9",
"xX c #CED1DB",
"cX c #D3D3D3",
"vX c #D3D4DD",
"bX c #D7D9DD",
"nX c #DBDBDB",
"mX c #E2D8D5",
"MX c #D5D6E0",
"NX c #DBDCE3",
"BX c #D7D8E2",
"VX c #DFE0E9",
"CX c #DCE0E4",
"ZX c #E3E3E4",
"AX c #E4E4ED",
"SX c #E8E7ED",
"DX c #EAEAED",
"FX c #F1EDED",
"GX c #FDF5EF",
"HX c #E7E7F0",
"JX c #ECECF4",
"KX c #F0EFF7",
"LX c #F2F2F4",
"PX c #F3F3F9",
"IX c #FEFEFE",
"UX c None",
/* pixels */
"UXUXUX3X3X3X3X3X0X1X1X1X3X3X1X1X1X1X3X3X3X3X3X3X3X3X3X3X3X3X3X3X3X3X3X3X3X3X3X3X3X3X3X3X1XUXUXUX",
"UXUX1XxXLXPXPXPXPXPXIXLXLXIXIXPXPXIXPXPXPXPXPXIXPXPXPXIXPXGXPXIXPXPXIXPXPXPXPXIXPXPXPXPXxX8X3XUX",
"UX1XCXPXPXPXPXPXPXPXPXPXPXPXIXPXPXPXPXIXPXXXE ;XPXPXPXPXPXIXPXPXPXPXPXPXIXPXPXPXPXPXPXPXIXIX8XUX",
"UXkXPXPXPXPXPXIXPXPXPXPXPXPXPXPXPXPXPXPXPXJ.p K OXKXPXPXPXPXPXPXPXPXPXPXPXPXPXPXPXPXPXIXPXPXbX<X",
"<XHXPXPXPXPXPXPXPXPXPXPXPXPXPXPXPXPXPXPXVX{ 9 L L !.HXPXPXPXPXPXPXPXPXPXPXPXPXPXPXPXPXPXPXPXKX<X",
",XKXPXPXPXPXPXPXPXPXPXPXPXPXPXPXPXPXPXPXvXJ 6 p K G G.ZXPXPXPXPXPXPXPXPXPXPXPXPXPXPXPXPXPXPXLX,X",
",XLXPXPXPXPXPXPXKXPXPXPXPXPXPXPXPXPXPXPX;Xy 6 y L Y G +.MXPXPXPXPXPXPXPXKXPXPXPXPXPXPXPXPXPXKX,X",
".XKXKXKXKXPXPXPXPXKXKXPXKXKXKXPXPXPXPXPX!.9 6 9 p K K Z | zXKXPXKXKXPXKXPXKXKXPXPXPXPXKXKXPXKX.X",
">XLXKXPXKXKXKXPXKXKXPXKXKXKXKXKXPXKXLXDX| 6 6 9 p H R L A { cXPXKXPXKXKXKXPXPXKXKXPXKXKXKXKXLX.X",
".XJXKXKXKXKXKXKXKXKXKXKXKXKXKXKXKXKXKXlXK 6 7 9 y v K T G p | NXPXJXKXKXKXKXKXJXKXKXKXLXKXKXKX X",
" XJXKXKXKXKXJXKXKXKXKXKXKXKXKXKXJXKXKXoX9 6 7 9 t i J T K p p J.JXLXJXLXKXKXJXPXKXKXLXJXKXKXJX X",
"|.DXKXJXJXJXKXKXJXJXKXJXKXJXKXJXKXJXAX} 6 6 6 8 8 i A A J V p p @XJXKXJXJXKXJXKXKXJXKXJXKXJXJX X",
"}.JXJXJXJXJXJXJXJXJXJXJXJXJXJXJXJXJX6Xy 6 6 5 7 n :.r.~ I A i i E vXJXJXJXJXJXJXJXJXJXJXJXJXJX|.",
"}.DXJXJXJXJXJXJXJXJXJXJXJXJXJXJXJXSX@.7 6 5 w 2.a.d.d.d.p.N i y y T.JXJXJXJXJXJXJXJXKXJXJXJXJX].",
"}.DXJXJXJXJXJXJXJXJXJXJXJXJXJXJXJX6XG 6 5 0 <.s.d.f.f.f.f.a.N t u K lXJXJXJXJXJXHXJXJXJXJXHXSX].",
"D.JXJXJXJXHXHXJXJXJXHXJXHXJXHXJXAX$.6 5 6 m 9.s.s.f.g.g.f.d.6.b t y T.HXJXHXJXHXJXJXJXHXJXJXHX].",
"].HXHXHXJXHXHXHXJXHXSXJXSXJXAXJXdXG 6 5 < &.5.q.e.d.f.g.d.d.e.M t i K bXJXHXHXHXJXHXHXJXHXJXSX].",
"D.AXHXHXHXHXHXHXAXHXHXSXHXHXHXAXG.& 3 & 1 x ,.5.9.w.s.d.s.w.w.*., & , oXHXHXHXHXHXHXHXHXHXHXAX(.",
"D.AXHXHXHXHXHXHXHXAXvX6X@X_.L.+.y $ $ $ - j &.,.4.7.9.0.0.8.7.*.! O.$.L.AXHXHXHXHXbX-XxXHXAXSXD.",
"D.AXHXVXHXHXHXHX*X#.Q K G p 9 i } L.J._ < s k =.>.<.1.4.4.1.%.:.hXLXPXgX*XAXAXHXAX_.Q G.NXZXAXD.",
"S.AXAXAXAXAXjXi.a 6 * 6 * X @ G +XnXZX*Xv O d j =.&.-.>.-.-.h y.FXIXIXLX} J.NXAXVXb.u R 6XAXAXS.",
"A.ZXAXAXBXR.L A [ V.A.E.R.Y.R _ =XgXgX+XL o = f g k z z x l : I.PXIXIXLXG.9 @XAXAXQ.X i 4XNXZXS.",
"A.ZXvX'.{ y [ 2XwXyXrXpX0X&X*XL.;XsX;X^.Y X . = - > d d d ; < gXIXIXIXIX+X7 } AXVX'.. p kXVXZXC.",
"B.ZXkXp 6 [ wXtXyXyXtXuXaXwXZ.H.=X;X*XY.! 6 . . o O O = o . @.LXIXIXIXIXnXp p dXVX_.6 R kXVXVXC.",
"B.VX@X7 a v.pXtXeXiXqX2XF.Z.$.Q.*X;X+XY.Q q 2 * . . . . . A =XIXIXIXIXIXDXW 6 _.NXX.y R oXNXVXB.",
"N.nXX.6 9 p [ C.{.fXbX*XP.H.Y.^.%X*X+XQ.| p 7 8 6 & * & p L.nXIXIXIXIXIXLX@.$ { G.q p K +.-XNXB.",
"n.zXG 6 q q 6 a ..mXGX:XU.i.h.XX*X*X+XQ.$.R e t 9 6 y K $.sXLXIXIXIXIXIXPXXX6 9 9 $ 7 y K R.NXn.",
"n.6X9 6 v B , X * p ..h.^ ^ j.oX+X*X+X^.Y.@.Q K L R } L.=XZXIXIXIXIXIXIXIX;X{ X $ + & 6 L J.NXn.",
"n.;X9 6 B C C c $     c / ..U.+X*X*X*X+XXXY.G.$.$.H.^.=XbXLXIXIXIXIXIXIXIXhXR.G   % q a Y T.NXn.",
"c.lXZ & p U / U X     * B ( Y.+X*X*X*X*X+X+XXXXXXX+X;XcXDXIXIXIXIXIXIXIXIXsXT.7XH   $ % T oXbXc.",
"c.vX} $ 8 P C y # # % % 2 R Q.+X*X*X=X=X=X=X=X=X;XsXcXZXPXIXIXIXIXIXIXIXPX;Xb.BXoX$ $ * #.jXbXx.",
"x.vX'.$ % q & 3 A _ m.oX^.O.^.+X*X*X=X;X;X;X9XsXgXcXnXDXIXIXIXIXIXIXIXIXPX=X+.kXlX) $ H -XvXbXx.",
"z.bXlX| + 3 ) jXzXvXMXMX@X+.^.OX*X*X=X;X;X:X9XgXcXnXZXFXIXIXIXIXIXIXIXIXIX;X| %XbXxX8XlXMXMXMXz.",
"z.vXbX6XG Q kXvXMXMXMXbX'.| Q.XX+X+X*X*X;XsX:XgXcXnXZXLXLXIXIXIXIXIXIXIXGX9X| [.vXbXMXMXMXvXbXz.",
"l.vXvXvXlXzXvXvXvXzXvXvX!...Q.^.+X+X+X*X*X;XsX9XfXcXnXZXFXLXLXIXIXIXIXIXIXgX+.~.vXvXvXvXvXvXvXl.",
"] vXxXvXvXvXlXlXlXkXzXzXT.{ Y.Q.Q.XXXX+X+X+X*X;XsX:XcXnXnXZXDXLXPXIXIXIXIXnXL.R.vXvXvXvXvXvXvXk.",
"] vXMXzXkXdX7X6X4X4X4X6Xm.) G.P.Y.R.Q.Q.^.^.oX+X*X*X;X:XgXcXCXZXFXLXGXIXPXnX^.W.zXMXvXvXvXvXvXk.",
"] vXzXlX7X4X#X$XoX_._._.+.Q $.$.$.$.$.G.H.L.L.Q.^.^.XX+X*X;X:XgXnXZXFXLXFXnX^.).xXxXzXxXzXxXvX' ",
"' cXdX4X@X'._.W.K.b.b.b.{ W $.@...| { { } } | @.O.$.G.Y.Q.^.+X*XsXcXnXDXDXnXQ.[.xXzXzXxXzXxXvX' ",
"' jX*XoX).T.J.b.X.} ) Q H K @.+.{ W K L L L L K R W Q _ O.@.G.^.+XsXcXZXZXnXQ.+XzXxXzXvXzXzXzX' ",
"` 4X'.W.P.b.z.) Y H Z Z 7 u  .#.{ R G a r r r y y y u G G T { @.Q.+XsXnXnXgXJ.$XzXzXzXzXzXzXxX` ",
"` #XW.P.b.#.| ) Y Y H Z r 7 R X.} ! G y 9 9 9 7 7 6 9 9 y a H Q $.^.=XgXgX-X+.4XjXjXlXzXzXzXxX` ",
"` 4X'._.W.W.W.K.K.m.b. .Y 9 6 L R K Z y 9 6 9 t u u r 7 6 7 y H _ h.XX*X=XQ.O.6X4X5XdXkXzXlXxX` ",
"` dX9X7X7X7X7X7X7X6X4X'.J.Q 6 % 7 r 9 7 9 p Y )  .} E A 6 * & 9 A ) $.R.H.) T.4X4X4X6X7XkXkXkX` ",
"UX/.lXlXlXlXlXlXzXkXkX9X5X$XW.b.o. .X.X.b.b.T._.oX'.W.#.T r $ @ 5 y p H p X.#X4X5X7X7XdXjXlX/.UX",
"UX` jXlXlXlXlXlXlXkXkXkXjXkXkXkXkX9X7X7X7X7X9XjXjXjX7X#X'.K.X.R Z u p H #.4X9XjXjXjXkXlXkXdXF UX",
"UXUXF $XlXzXlXlXlXlXzXkXkXkXkXkXlXlXlXlXkXlXlXzXlXlXlXlXlXlXjX7X&X@X@X6XzXkXkXzXzXlXlXlX`.F UXUX",
"UXUXUXS S S S S S S S S D S S S S S S S S S S S S S S D S S S S S S S S S S S S S S S S D UXUXUX"
};
