/* XPM */
static char *kpat[] = {
/* columns rows colors chars-per-pixel */
"16 16 99 2 ",
"   c #1A1A21",
".  c #1B1B22",
"X  c #031D35",
"o  c #061F36",
"O  c #062037",
"+  c #062038",
"@  c #072239",
"#  c #0B253C",
"$  c #0B253D",
"%  c #10283F",
"&  c #222228",
"*  c #25252C",
"=  c #28282F",
"-  c #292930",
";  c #39393F",
":  c #0E2840",
">  c #122B42",
",  c #132C42",
"<  c #122C43",
"1  c #142C42",
"2  c #142D43",
"3  c #3E3E43",
"4  c #29517D",
"5  c #4A4E4C",
"6  c #4D514F",
"7  c #4E514F",
"8  c #4F4F55",
"9  c #4F5351",
"0  c #505351",
"q  c #505352",
"w  c #505452",
"e  c #515452",
"r  c #515453",
"t  c #515553",
"y  c #515156",
"u  c #515454",
"i  c #535654",
"p  c #595D5B",
"a  c #5E5E63",
"s  c #66666B",
"d  c #77777B",
"f  c #305781",
"g  c #345B84",
"h  c #355B85",
"j  c #385E86",
"k  c #395E87",
"l  c #3E628A",
"z  c #42668C",
"x  c #476A90",
"c  c #4C6E92",
"v  c #4D6E93",
"b  c #4E6F93",
"n  c #4F7094",
"m  c #517295",
"M  c #527396",
"N  c #537397",
"B  c #547497",
"V  c #6582A2",
"C  c #6683A2",
"Z  c #6885A4",
"A  c #6985A4",
"S  c #6B87A5",
"D  c #6C88A6",
"F  c #6D89A6",
"G  c #6F8AA7",
"H  c #708BA8",
"J  c #7F97B2",
"K  c #8A8C8C",
"L  c #9C9C9F",
"P  c #8199B3",
"I  c #829AB3",
"U  c #A9A9AB",
"Y  c #B1B1B3",
"T  c #B7B7B9",
"R  c gray87",
"E  c #DFDFDF",
"W  c #DCE0E4",
"Q  c gray88",
"!  c #E2E2E2",
"~  c gray89",
"^  c gray90",
"/  c #E7E7E7",
"(  c #E4E9EE",
")  c gray91",
"_  c #E9E9EA",
"`  c gray92",
"'  c #EEEEEE",
"]  c #F3F3F3",
"[  c #F6F6F6",
"{  c gray97",
"}  c #F8F8F8",
"|  c #F9F9F9",
" . c #F9FAFB",
".. c #F9FAFC",
"X. c #FAFBFC",
"o. c #FBFCFD",
"O. c #FCFCFD",
"+. c white",
"@. c None",
/* pixels */
"@.@.@.@.@.t 6 6 6 6 6 7 7 7 6 @.",
"X X X X X 9 { | | | | | | | ' 0 ",
"O W +.+.+.p { R R R R R R E | 0 ",
"# ..k z j p { R R E ) Q R Q | 0 ",
"# ..A x C p { R R ^ a ~ R E | 0 ",
"$ ..A I D p { R / d   s / E | 0 ",
"$ o.S v S p { ! U       L ! | 0 ",
"$ ..A l F p { ` *       & ` | u ",
"# ..C H S p { ^ 3 = 3 * 3 / | 9 ",
"# | h 4 f p { R / Y   T / Q | u ",
"# ..m n m p { R R 8   y R Q | 9 ",
"# o.v G v p { R R R R R R Q | 0 ",
"# ..J C J p { R R R R R R Q | 9 ",
": ..N h m t { } | { | { { { ] 9 ",
"@ ( o.o.+.K t u u i u t t 0 5 u ",
"X @ < < , : 1 % 1 1 o @.@.@.@.@."
};
