/* XPM */
static char *kscd[] = {
/* columns rows colors chars-per-pixel */
"16 16 218 2 ",
"   c #05133C",
".  c #132D71",
"X  c #152F72",
"o  c #182F70",
"O  c #183072",
"+  c #193172",
"@  c #1A3172",
"#  c #1D3374",
"$  c #1F3677",
"%  c #2D3A63",
"&  c #2E3C62",
"*  c #2F3C62",
"=  c #2F3C63",
"-  c #2F3C64",
";  c #303D64",
":  c #213572",
">  c #2E4EAC",
",  c #6C7F9A",
"<  c #546BAB",
"1  c #3B70DA",
"2  c #436BD1",
"3  c #4F74D3",
"4  c #5176D3",
"5  c #597DD5",
"6  c #5A7DD4",
"7  c #5B7DD5",
"8  c #4B7DE1",
"9  c #5C8DDB",
"0  c #6980C2",
"q  c #6586D8",
"w  c #628BDD",
"e  c #6A8AD9",
"r  c #728FDB",
"t  c #7D97DF",
"y  c #7E99DD",
"u  c #5885E2",
"i  c #6284E4",
"p  c #6B97E6",
"a  c #6999E2",
"s  c #6E9CE7",
"d  c #6092EE",
"f  c #6B9BEA",
"g  c #7895E4",
"h  c #749CE3",
"j  c #729CE7",
"k  c #759FE6",
"l  c #769EE7",
"z  c #7A9DE1",
"x  c #7C9FE1",
"c  c #7B9CE6",
"v  c #769EE8",
"b  c #7B9FE8",
"n  c #7D9EE8",
"m  c #60A4EF",
"M  c #75A0E1",
"N  c #79A1E1",
"B  c #7BA2E7",
"V  c #76A2EB",
"C  c #75A5EA",
"Z  c #76A6EE",
"A  c #7FA0E8",
"S  c #7FA6E9",
"D  c #79A2EF",
"F  c #70ACEE",
"G  c #7EA9ED",
"H  c #7DAAEE",
"J  c #78B4ED",
"K  c #6FB3F1",
"L  c #77B4F1",
"P  c #7EB9F3",
"I  c #7EBAF3",
"U  c #889FDF",
"Y  c #8DA4C7",
"T  c #8AA4DD",
"R  c #ACBEDA",
"E  c #80A3E4",
"W  c #81A0E7",
"Q  c #82A1E6",
"!  c #81A6E5",
"~  c #89A8E7",
"^  c #89ABE7",
"/  c #8BABE6",
"(  c #8DA9E5",
")  c #8CA9E6",
"_  c #82A2E8",
"`  c #85A4EA",
"'  c #87A7EB",
"]  c #87A6EC",
"[  c #88A7EC",
"{  c #82A9EA",
"}  c #80AAEB",
"|  c #84AAEA",
" . c #83AFEB",
".. c #87AFEC",
"X. c #8DADEA",
"o. c #89A8EC",
"O. c #89A8ED",
"+. c #90AFE7",
"@. c #90AFE9",
"#. c #90AFEE",
"$. c #95ADED",
"%. c #8FB6ED",
"&. c #9FB4E7",
"*. c #90B1EB",
"=. c #96B0E9",
"-. c #91B4E9",
";. c #90B1ED",
":. c #92B1ED",
">. c #90B2ED",
",. c #92B1EE",
"<. c #90B6ED",
"1. c #99B4EB",
"2. c #9FB7E9",
"3. c #94B9ED",
"4. c #95B8EE",
"5. c #9FB8E8",
"6. c #9FBAEA",
"7. c #9DBCEA",
"8. c #9FBBEE",
"9. c #9DBDEE",
"0. c #82B1F1",
"q. c #84B0F0",
"w. c #86B1F1",
"e. c #80B5F2",
"r. c #8BB4F0",
"t. c #8FB6F0",
"y. c #82BAF3",
"u. c #8CBBF3",
"i. c #88BAF4",
"p. c #93B9F3",
"a. c #92BAF2",
"s. c #94B9F0",
"d. c #97B9F0",
"f. c #96BCF2",
"g. c #96BEF3",
"h. c #96BDF5",
"j. c #98BCF3",
"k. c #98BDF3",
"l. c #A2BFEC",
"z. c #A4BCED",
"x. c #A1BFF0",
"c. c #B3C4DA",
"v. c #8FC0F4",
"b. c #93C1F4",
"n. c #9FC0F1",
"m. c #9EC0F4",
"M. c #AFC3E7",
"N. c #ABC0EB",
"B. c #ACC2EB",
"V. c #A9C0ED",
"C. c #ACC1EE",
"Z. c #AEC3EE",
"A. c #B4C9EF",
"S. c #BBCEE9",
"D. c #BACDEF",
"F. c #A2C1F2",
"G. c #A3C2F3",
"H. c #A4C2F0",
"J. c #A8C2F0",
"K. c #ABC2F2",
"L. c #ABC5F3",
"P. c #ADC5F0",
"I. c #ACC7F3",
"U. c #AEC6F2",
"Y. c #AFC9F4",
"T. c #A2C0F9",
"R. c #B0CAF0",
"E. c #B1CBF2",
"W. c #B1CCF4",
"Q. c #B2CCF6",
"!. c #B4CEF5",
"~. c #B4CCF6",
"^. c #BACDF0",
"/. c #BACDF1",
"(. c #BBCFF0",
"). c #B9CFF2",
"_. c #BAD0F3",
"`. c #BDD3F3",
"'. c #BFD4F1",
"]. c #BDD2F4",
"[. c #BCD2F5",
"{. c #C3D2E8",
"}. c #C6D5EA",
"|. c #CFDBEA",
" X c #CFDAEB",
".X c #CFDBEE",
"XX c #D0D9E7",
"oX c #D1DDEF",
"OX c #C4D4F3",
"+X c #C5D7F3",
"@X c #C6D7F3",
"#X c #C0D3F4",
"$X c #C7D7F4",
"%X c #CAD7F4",
"&X c #C7D8F4",
"*X c #CADAF1",
"=X c #CADBF3",
"-X c #C9D8F6",
";X c #C9DAF6",
":X c #CBDCF5",
">X c #CBDDF7",
",X c #CFDEF6",
"<X c #D2DDF0",
"1X c #D0DEF6",
"2X c #D0DFF6",
"3X c #D1DFF6",
"4X c #CEE0F7",
"5X c #D2E0F6",
"6X c #D4E0F6",
"7X c #D3E1FB",
"8X c #DEE9F9",
"9X c #DCE9FA",
"0X c #DCE8FB",
"qX c #DCEAFB",
"wX c #E1ECFC",
"eX c #E3EEFC",
"rX c #E4EFFD",
"tX c None",
/* pixels */
"tXtXtXtXtXtXS.{.}.c.tXtXtXtXtXtX",
"tX0 < tXY XX|.|..XoX<XR tXtXtXtX",
"t %X-X7Xz.T M.*X*X:X:X4X#XtXtXtX",
"U /.#X@XOXOX5.( $.1.;.;.T., tXtX",
"y U./.`.].[./.B.C.V.C.P.z._ $ tX",
"r 8.E.E.!.!.l.G.H.x.K.Y.I.V.$.tX",
"q ;.7.9.n.m.3.h.f.j.H.!.Q.L.( : ",
"5 S -.3.f.f.t.r.w.F J u.h.3.w $ ",
"4 v ..<.a.h.a.D d m K L e.a 1 X ",
"3 j H %.{ { C q.0.P P y.i.9 8 X ",
"2 p C s D.5X/.h 5. .v.b.M f u X ",
"5 l G V 5XrX1X! 0X6X5.N { V B @ ",
"e ( 0X/ ,XeX1Xx 0XwXA.B -XV.;.@ ",
"5 ~ *.E &X0X&Xz D.+.;.f.*.X.Q o ",
"> g ` ` c _ c W n o.o.[ [ Q i   ",
"tXtX; ; ; - ; ; ; ; = ; % % tXtX"
};
