/* XPM */
static char *links[] = {
/* columns rows colors chars-per-pixel */
"34 35 57 1 ",
"  c #00003C",
". c #770000",
"X c #7C7C7C",
"o c #A30000",
"O c #AD0000",
"+ c #D70000",
"@ c #D90000",
"# c #DB0000",
"$ c #DD0000",
"% c #DE0000",
"& c #EF0000",
"* c #F10000",
"= c #F20000",
"- c #F60000",
"; c #F70000",
": c #F80000",
"> c #F90000",
", c #FC0000",
"< c #FD0000",
"1 c red",
"2 c #00DF00",
"3 c #00E300",
"4 c #00E800",
"5 c #00EB00",
"6 c #00EC00",
"7 c #00EF00",
"8 c #00F500",
"9 c #00F600",
"0 c #00F700",
"q c #00FB00",
"w c #00FE00",
"e c #0000A0",
"r c #0000B5",
"t c #0000C8",
"y c #0000CC",
"u c #0000CF",
"i c #0000E4",
"p c #0000E8",
"a c #0000EF",
"s c #0000F3",
"d c #0000F7",
"f c blue",
"g c #868686",
"h c #A9A9A9",
"j c gray71",
"k c gray82",
"l c gray90",
"z c #F1F1F1",
"x c gray95",
"c c #F4F4F4",
"v c gray98",
"b c #FBFBFB",
"n c gray99",
"m c #FDFDFD",
"M c #FEFEFE",
"N c white",
"B c None",
/* pixels */
"1111111111111111BB4646666666666666",
"1111111111111111BB0wwwwwwwwwwwwwww",
"1111111111111111BB0wwwwwwwwwwwwwww",
"1111111111111111BB0wwwwwwwwwwwwwww",
"111;>>>>>>>>>>>;BB8qwwwwwwwwwwwwww",
"11;BBBBBBBBBBBBBBB4wwwwwwwwwwwwwww",
"1111111$BBBBo111BB0wwwwwwwwwwwwwww",
"11111111BBBB&111BB0wwwwwwwwwwwwwww",
"11111111BBBB=111BB0wwwwwwwwwwwwwww",
"1111111>BBBB=111BB0wwwwwwwwwwwwwww",
"11111111BBBB&111BB0wwwwwwwwwwwwwww",
"11111111BBBB=111BB0wwwwwwwwwwwwwww",
"1111111>BBBB=111BB0wwwwwwwwwwwwwww",
"11111111BBBB=111BB0wwwwwwwwwwwwwww",
"11111111BBBB=111BB0wwwwwwwwwwwwwww",
"1111111>BBBB=111BB0qqqqqqqqqqqqwqq",
"$$$$$$@OBBBB.+$@BB2333333333333333",
"BBBBBBBBBBBBBBBBBBBBBBBBBBBBBBBBBB",
"BBBBBBBBBBBBBBBBBBBBBBBBBBBBBBBBBB",
"fffffffdBBBBtfffBBNNNNNNNNNNNNNNNN",
"fffffffdBBBByfffBBNNNNNNNNNNNNNNNN",
"fffffffdBBBByfffBBNNNNNNNNNNNNNNNN",
"fffffffdBBBByfffBBNNNNNNNNNNNNNlNN",
"fffffffdBBBByfffBBNNNNNNNNNNNNhjNN",
"fffffffdBBBByfffBBNNNNNNNNNNNNBlNN",
"fffffffdBBBByfffBBNNNNNNNNNNNcBNNN",
"fffffffdBBBByfffBBNNNNNNNNNNNXBNNN",
"fffffffdBBBByfffBBNNNNNNNNNNzBBNNN",
"fffffffdBBBByfffBBNNNNNNNNNNBBBNNN",
"fffffffdBBBBrfffBBNNNNNNNNzBBBBNNN",
"fffffdB BBBBBepfBBNNNNNvkBBBBBgNNN",
"ffiBBBBBBBBBBBBBBBBBBBBBBBBBBBhNNN",
"fffssssssssssssaBBvNNvNNvNvNNvNNNN",
"ffffffffffffffffBBNNNNNNNNNNNNNNNN",
"ffffffffffffffffBBNNNNNNNNNNNNNNNN"
};
