/* XPM */
static char *mp3splt_gtk_ico[] = {
/* columns rows colors chars-per-pixel */
"60 60 252 2 ",
"   c #008300D700B1",
".  c #04B90893069F",
"X  c #0B0B0A8B0202",
"o  c #066F0B740944",
"O  c #09450D900BBF",
"+  c #09D511A00DDF",
"@  c #126810100000",
"#  c #0E0E0F0F100F",
"$  c #0BEC1590111D",
"%  c #0E6F1A371486",
"&  c #12DA14781486",
"*  c #10451C9516B5",
"=  c #141417171818",
"-  c #12AD1D0918C8",
";  c #1A631BAE1BD2",
":  c #130C219E1AC1",
">  c #2C2C26260000",
",  c #33332C2C0000",
"<  c #3C3C35350707",
"1  c #1E1D1F1F2020",
"2  c #1DBD22622242",
"3  c #1C1C29A925A5",
"4  c #246425252545",
"5  c #21A1272628A8",
"6  c #24142B852AC0",
"7  c #2BC12C012C17",
"8  c #2524302F2D2D",
"9  c #2A2A2F2E3030",
"0  c #26A634B430B0",
"q  c #2C8C32D23333",
"w  c #272638373333",
"e  c #2BAC38B83636",
"r  c #2D603D093939",
"t  c #3278346234C0",
"y  c #333238373737",
"u  c #35223B843C3C",
"i  c #3BF33C853CAA",
"p  c #373740403D3C",
"a  c #56D74ACB0081",
"s  c #626255550067",
"d  c #65E658D90182",
"f  c #7F7F6D6D0000",
"g  c #6B6B62622C2C",
"h  c #3535429741EC",
"j  c #3C0343B544EF",
"k  c #39E4489D4949",
"l  c #41A143434383",
"z  c #44444B8B4C8C",
"x  c #4BA84C064C35",
"c  c #43C450D14F4F",
"v  c #46454F4F5150",
"b  c #49C94F4F5050",
"n  c #46F052FD54FF",
"m  c #4ACA52275312",
"M  c #45445C5B5857",
"N  c #548755555588",
"B  c #53135E9E5DDD",
"V  c #5E1E5E1E5E1E",
"C  c #484861615F5E",
"Z  c #777770704747",
"A  c #55555E5E60E1",
"S  c #4F4F67676665",
"D  c #53B363836464",
"F  c #565666E666E7",
"G  c #5B4162E2644A",
"H  c #5C5C66E768E8",
"J  c #5D386AB36CFF",
"K  c #5F5F70706F6F",
"L  c #5DDD6E6E7272",
"P  c #649D64BA64BA",
"I  c #651B6B466C90",
"U  c #6A6A6A6A6A6A",
"Y  c #797976766565",
"T  c #66106EC3711B",
"R  c #6262727273A6",
"E  c #6B0472A5738C",
"W  c #6463751F78CD",
"Q  c #6C6C777779F9",
"!  c #64B979CE7B25",
"~  c #6D6D79CE7ACF",
"^  c #7449754A7575",
"/  c #717177777979",
"(  c #73337C3C7DBD",
")  c #7A1A7A1A7A1A",
"_  c #FFFF26260000",
"`  c #FFFF2AD502AD",
"'  c #FFFF345F0000",
"]  c #FFFF3C3C0000",
"[  c #FFFF31310E8E",
"{  c #FF7F3A3A1C1C",
"}  c #8D8D7A7A0B8C",
"|  c #FFFF42E30000",
" . c #FFFF4BE50000",
".. c #FFFF517C0000",
"X. c #FFFF5BA10000",
"o. c #FFFF64F00000",
"O. c #FFFF6DAD0000",
"+. c #FFFF72F20000",
"@. c #FFFF7CFD0000",
"#. c #9A9A82820000",
"$. c #939383831E1E",
"%. c #A3CE8AB50081",
"&. c #A9A98F8F0101",
"*. c #FFFF84D10000",
"=. c #FFFF8E5B0000",
"-. c #FFFF92920000",
";. c #FFFF9C690000",
":. c #C545A5250000",
">. c #C949A8280081",
",. c #D2D2AFAF0000",
"<. c #DBDBB6B60000",
"1. c #FFFFA5250000",
"2. c #FFFFAB440000",
"3. c #E4E4BB100000",
"4. c #FFFFB3C10000",
"5. c #FFFFBCBC0000",
"6. c #EE43C26C0202",
"7. c #F171C3C30000",
"8. c #FFFFC3960000",
"9. c #FFFFC97C0000",
"0. c #F635CA8A0848",
"q. c #AFAFA1A14C4C",
"w. c #C0C0AFAF4949",
"e. c #CCCCBABA4F4F",
"r. c #E2E2D1D16B6B",
"t. c #67677B7A8080",
"y. c #6D6D7D7D8100",
"u. c #7E7E7F7F807F",
"i. c #6DED81018202",
"p. c #6AEB87878908",
"a. c #6E6E8B8B8D8C",
"s. c #767682018505",
"d. c #7C4382F4842E",
"f. c #73C885DB8A34",
"g. c #7B7B86868887",
"h. c #7D588A1C8CFA",
"j. c #77778E8E923C",
"k. c #7C7C93939797",
"l. c #830383038282",
"z. c #852F8ADF8C8C",
"x. c #8A8A8B578B57",
"c. c #87078F0E9111",
"v. c #848492129555",
"b. c #8D8D96969717",
"n. c #8C36969698EE",
"m. c #87879CF29F49",
"M. c #956A956A956A",
"N. c #909097979999",
"B. c #93E99C9C9D9D",
"V. c #9E1E9E1E9E1E",
"C. c #84849B9BA1A1",
"Z. c #8E0E9E9EA323",
"A. c #98179E9EA0A0",
"S. c #8E8EA222A525",
"D. c #8606A323A828",
"F. c #8B4BA4E4AA2A",
"G. c #942DA2A2A5D8",
"H. c #9BF0A24CA3A3",
"J. c #9090A7A7ADAC",
"K. c #9292A929AD2D",
"L. c #9BF1AAAAAD02",
"P. c #8D8DACACB3B3",
"I. c #96D6AD6DB232",
"U. c #9E1EB2B2B6B6",
"Y. c #9797B761BE12",
"T. c #A403A484A4C4",
"R. c #A2A2A976AB44",
"E. c gray67",
"W. c #A4A4B683BAED",
"Q. c #A9A9B535B878",
"!. c #AB2BBA3ABD7D",
"~. c #B39CB39CB39C",
"^. c #B509BABABC66",
"/. c #BADFBB03BB03",
"(. c #E9E9DBDB8383",
"). c #F4F4E6E68F8F",
"_. c #DDDDD5D5A6A6",
"`. c #EFEFE7E7B7B7",
"'. c #9E48BBBBC36D",
"]. c #A34DBB65C16B",
"[. c #AA2ABE3EC1C1",
"{. c #BCBCBFBEC0C0",
"}. c #A989C524CB0A",
"|. c #B308C2C2C670",
" X c #BBEEC390C5C5",
".X c #B636C747CC0B",
"XX c #BD56C793C9FC",
"oX c #B4B4C99ECE4E",
"OX c #BDBDCACACDCD",
"+X c #AD02CB20D2D2",
"@X c #B2B2CDCDD4D4",
"#X c #BB10CCCCD1D1",
"$X c #B7B7D2D1D7D7",
"%X c #BEBED204D63C",
"&X c #B2B2D3D3DB85",
"*X c #BEBED62BDC31",
"=X c #B0B0D6D6E0E0",
"-X c #BC3CDD9DE5A5",
";X c #BBBBE5E5EFEF",
":X c #C45DC4F7C45D",
">X c #C419CC76CE78",
",X c #CD77CD77CD77",
"<X c #C343D252D555",
"1X c #C9F4D47ED655",
"2X c #C484D6D6DBDB",
"3X c #CD4DD7D7DA5A",
"4X c #C217D92EDF34",
"5X c #CBCBDA84DDDD",
"6X c #D441D4D4D4F9",
"7X c #D27CD781D92D",
"8X c #D204DCA9DEDE",
"9X c #DC5CDDDDDE5D",
"0X c #FFFFDDDDDB5B",
"qX c #C4C4DCDCE2E2",
"wX c #CA30DE77E349",
"eX c #D8D8DEDEE0E0",
"rX c #CC8CE161E6A6",
"tX c #C71CE439EB40",
"yX c #CC76E439EA3F",
"uX c #D680E38DE5E5",
"iX c #DA0CE315E57E",
"pX c #D1D1E5A5EA6A",
"aX c #DB1AE7A7EAEA",
"sX c #D57FE993EEEE",
"dX c #DD0FE94FECB9",
"fX c #C59AED17F6CB",
"gX c #CECEEAEAF1F1",
"hX c #C646EF6FF979",
"jX c #D48BED11F3A9",
"kX c #DDDDED97F1F1",
"lX c #C7C5F4F2FFFC",
"zX c #CC09F580FFEA",
"xX c #D6D6F0F0F7F7",
"cX c #DBDBF0F0F4F4",
"vX c #D296F6D4FFD0",
"bX c #DCA7F714FE5F",
"nX c #DB93F8F7FFFF",
"mX c #E38DE3AAE3AA",
"MX c #E27BEC1EEEBA",
"NX c #EBCEEBEBEBEB",
"BX c #FFFFF0F0EFEF",
"VX c #E161EE6EF1F1",
"CX c #EDEDEFEEF0F0",
"ZX c #E6E6F39DF6A0",
"AX c #E93EF348F5F5",
"SX c #E363F676FB7B",
"DX c #EA6AF777FAFA",
"FX c #E4B2FA70FFD3",
"GX c #EE6DFC4AFFD4",
"HX c #F397F3AAF3BC",
"JX c #F1A2FCADFF9C",
"KX c #FFE3FFE4FFE5",
/* pixels */
"KXKXKXKXKXKXKXKXKXKXKXKXKXKXKXKXKXKXKXKXKXKXKXKXKXKXKXKXKXKXKXKXKXKXKXKXKXKXKXKXKXKXKXKXKXKXKXKXKXKXKXKXKXKXKXKXKXKXKXKX",
"KXFXnXnXnXnXnXnXnXbXnXnXnXnXnXnXnXnXnXnXnXbXnXbXbXnXnXnXnXFXnXnXFXnXnXbXbXnXnXnXnXnXnXnXnXnXnXnXnXnXnXnXnXnXnXnXnXnXFXKX",
"KXnXlXlXlXlXlXlXlXlXlXlXlXlXlXlXlXlXlXlXzXzXzXzXzXzXvXzXvXzXvXzXzXzXvXzXzXzXzXlXlXlXlXlXlXlXlXlXlXlXlXlXlXlXlXlXlXlXnXKX",
"KXnXlXlXlXlXlXlXlXlXlXlXlXlXlXlXlXlXzXlXzXzXvXzXvXvXvXvXvXvXzXnXvXvXvXzXvXzXvXzXzXzXlXlXlXlXlXlXlXlXlXlXlXlXlXlXlXlXnXKX",
"KXnXlXlXlXlXlXlXlXlXlXlXlXhXzXzXzXzXzXzXvXvXvXvXvXzXxX+XK.f.L A n n D J i.C.].fXvXzXzXlXlXlXlXlXlXlXlXlXlXlXlXlXlXlXnXKX",
"KXnXlXlXlXlXlXlXlXlXlXlXlXhXzXzXzXvXvXzXzXnXvX].W u .                           5 L ].lXzXzXlXlXlXlXlXlXlXlXlXlXlXlXnXKX",
"KXnXlXlXlXlXlXlXlXlXlXlXlXzXzXvXvXvXnXvX}.H =                                         = t.-XzXzXlXlXlXlXlXlXlXlXlXlXnXKX",
"KXnXlXlXlXlXlXlXlXlXlXzXzXzXzXvXnXzXF.u                                                     D =XlXlXlXlXlXlXlXlXlXlXnXKX",
"KXnXlXlXlXlXlXlXlXlXzXzXzXvXvXvXJ.6                                                             R hXlXlXlXlXlXlXlXlXnXKX",
"KXnXlXlXlXlXlXlXzXzXzXvXvXxX@Xu                                                                   5 }.lXlXlXlXlXlXlXnXKX",
"KXnXlXlXlXlXlXlXzXzXzXvXxX].t .                     = m ( G.W..X.X.XW.n.E h O                       o D.lXlXlXlXlXlXnXKX",
"KXnXlXlXlXlXlXzXzXzXzXnXMXE.U 7               u g.%XFXFXFXFXFXFXFXFXFXFXFXFXbXW.G O                     j.lXlXlXlXlXnXKX",
"KXnXlXlXlXlXlXzXvXvXgX7XCXmXT.U 7       . H <XFXSX|.c.G i 2 2 1 2 t z I G.wXFXFXFXjXh.=                   k.lXlXlXlXnXKX",
"KXnXlXlXlXlXzXzXzX*XA.{.6XCXmXT.U 7   G wXSX5Xu.#                           q h.rXFXFXjXH                 . Y.lXlXlXnXKX",
"KXnXlXlXlXlXzXvX+XP q.G.{.,XCXmXT.d.#XSXdXKX~.P =                               . H wXnXbXW.&               $ =XlXlXnXKX",
"KXnXlXlXlXlXzX+Xy x D y.M.{.6XBXMXFXXXT.:XNXmXM.i                                   O z.FXnX*X2               k lXlXnXKX",
"KXbXlXlXlXlX-X1 & 7 x P q.V./.cXrXU U x.~.6XKX/.U ;     o ; t 9 ; &                     j pXnX*X;               P.lXnXKX",
"KXbXlXzXzXzXr   . # 7 x S x.pX!.1 t N ) V.:XmXmXV.x.R.aXJXJXJXJXJXJX3Xb.b .               4 qXFX}..             5 lXnXKX",
"KXnXlXzXzXW         # 7 n =XG..   1 l U x.~.9XJXJXJXJXiX^.R.R.{.MXJXJXJXJXuX/ #             ; rXbXg.              P.nXKX",
"KXnXlXzX+Xo .   .   . & ].I..     O 7 N u.7XJXaX7XmXHXV.x         ; I XXJXJXJXuXl             q cXnX9             h nXKX",
"KXnXlXzXh .           T .XO         ; E dX8Xx.x.~.6XHX/.U ;             y :XJXGXGXd.            Q bXU.              gXKX",
"KXnXlXI.. . . . .   6 wX4 .   .     x DXB.t N ) V.:X`.(.w.$.s ,             A AXGXGX(             *XbX5             S.KX",
"KXbXzXe o . . .     [.W . . .     l DXE   4 l Y e.0.9.9.8.8.8.9.3.f @         u aXJXGXB           m nXy.            J KX",
"KXnX'.O o o . . . z *X# . . . . ; dXz.    = g 0.8.5.4.2.1.2.2.2.4.8.7.s         6 VXGXVX=           rXoX            u KX",
"KXbXS O o o o o . |.D O o . . . Q.<Xo     < 0.8.4.1.;.-.=.=.-.-.1.2.4.9.%.        N JXGXg.          v.xXo           & KX",
"KXxX* O O o o . 8 gX$ O o . . j GXx .     <.8.2.;.-.*.@.+.+.@.@.*.-.1.4.9.%.        Q.GXaX.         m bX9             KX",
"KX[.+ + O O o o g.S.O O o o . L.5X. .   a 9.5.1.-.@.+.o.X.X.X.o.+.@.-.1.4.9.s       t GXGXu         2 bXj             CX",
"KXi.+ + + O + o .XF + O O o * DXH.. .   %.8.2.-.*.+.X...| ] |  .X.O.@.-.2.5.6.X       3XGXI         . bXv             KX",
"KXM $ + + + O $ nXe + + + o c GXE . .   >.5.1.-.@.o...| ' ` ` '  .X.+.*.;.2.9.s       b.GXd.          xXj           . KX",
"KX0 $ $ + + + r nX* + + + o Q GXI . . . >.5.2.-.@.o. .' { BX0X[ ] ..o.@.-.2.8.%.      E GXg.          xXq           = KX",
"KX% $ $ $ + + n xX$ + + O o s.GXI . .   %.8.2.-.@.o. .] [ 0XBX{ '  .o.@.-.2.5.:.      I FXU         & bXO           j KX",
"HX$ $ $ $ $ + D xX+ + + + + ( GXb.. . . s 9.4.;.*.+.X. .' _ _ ' | ..o.@.-.2.5.:.      E GXi         q 2X            T KX",
"NX% % % $ $ $ S nX: $ + + + B GX1Xo . . X 3.5.1.-.@.o.X. .| | | ..o.O.*.-.2.9.#.      R.aX.         T v.            I.KX",
"HX* % % % $ $ k nXp $ + + + 6 GXJXy . .   d 9.4.1.=.@.+.o.X.X.X.o.O.@.-.1.4.9.a     . iXz.          W.j             jXKX",
"KX: % % $ $ $ 8 FXK $ $ + + + OXGX!.. . . . &.9.4.1.-.*.@.+.+.+.@.*.-.;.4.8.,.      V DX4         = 4X            h bXKX",
"KXp * % % % % $ yXU.$ $ + + + F GXGXN . .   . %.9.4.2.1.-.-.=.=.-.;.1.4.5.6.>     . 1Xy.          s.I             F.nXKX",
"KXF * * % % % $ K.xX3 $ $ + + $ OXGXDXu .     . d 7.8.4.4.2.1.2.2.4.4.9.3.,       H.XX          = #Xo           = hXbXKX",
"KXk.* * * * % % C bXg.$ $ + + + 0 aXGXaXu . .     @ } 7.9.8.5.5.8.9.0.} @       E 1X=           Z.b             j.zXnXKX",
"KX$X* * * * * % : 5XjX8 $ $ + + O p ZXGXDXV         O t Z q.e.r.)._.l.t     . N.3X=           m G.            = fXzXbXKX",
"KXnXr : * * * % % R nXW.$ $ $ $ + + p 8XGXJX Xy       4 b E M.{.mXCXV.b   z 1XB.O           6 oXO             F.zXzXnXKX",
"KXnXa.: : * * * % : oXbX~ $ $ $ + + + * B.GXJXJX XI ; ; i P x.~.6XHX:XE.>XiXb             1 #X6             z zXlXlXnXKX",
"KXnX;X3 : : : * % % r sXbXB $ $ + + O O O 6 b.ZXJXJXJXVX>X X,X8XCXJXGXJX6X) 4           6 #Xq             = -XzXlXlXnXKX",
"KXnXlXa.: : * * : * % S bXSXK $ + + + o O o . + l g.!.:X3X8X,X>XXX^.:XmXNXT.x         x wXP               Y.vXzXlXlXnXKX",
"KXnX;X;Xp : : : % * * % K bXFXm.* + + + O o o . . .   .     ; i V x.E.,XCX,X) 7   O c.FX{.) i           k.vXzXzXlXlXnXKX",
"KXnXlXlXY.: : : : % % : * C sXSX2Xc + + + o o o . . .       o 7 x ^ M.{.mXHXT.N A 5XiXmXHX~.) i       y.vXvXzXlXlXlXnXKX",
"KXnXlXlXlXp.: : : : : % : % w |.nXFX!.c + O o o . .   .       = i V l.E.,XHXeXjX2XT.~.,XNXHX~.) i   W vXzXzXzXlXlXlXnXKX",
"KXnXlXlXlXlXC : : : : % % : % % J rXFXFXwXh.h O o o . .         7 x l.^.aXDX|.E V ) M.~.,XNXHX~./ Z.vXvXzXzXlXlXlXlXnXKX",
"KXnXlXlXlXlXhXM : : * : : % % : % * F [.FXFXFXkX|.G.g.Q ~ ~ g.B.[.aXFXpXv.7 o 4 l V ) M.~.,XNXCXrXnXzXvXzXzXlXlXlXlXnXKX",
"KXnXlXlXlXlXlXfXS : : : : : * * * % $ $ 3 J m.oXsXFXFXFXFXGXbX<XL.Q j .       O 4 l V ) M.~.7XxXnXzXvXzXlXlXlXlXlXlXnXKX",
"KXnXlXlXlXlXlXlXlXa.: : : : * * * % % % $ $ $ $ + : 8 8 8 - o o . .   .         O 4 l V u.>XvXvXvXzXzXzXlXlXlXlXlXlXnXKX",
"KXvXlXlXlXlXlXlXlXlX}.k : : : * * * % % % $ $ $ + + + + + o o o o . .   .         O 7 y.tXnXzXvXzXzXzXlXlXlXlXlXlXlXnXKX",
"KXnXlXlXlXlXlXlXlXlXlXzXm.w : : * * * % % % $ $ $ + + + + o o O o . . .   . .     n @XnXvXvXvXzXzXzXlXlXlXlXlXlXlXlXnXKX",
"KXnXlXlXlXlXlXlXlXlXlXlXzXlXk.h * * * * % % % $ $ $ + + + o + O o o . . . . = W -XvXvXvXvXvXzXzXzXzXlXlXlXlXlXlXlXlXnXKX",
"KXnXlXlXlXlXlXlXlXlXlXlXlXzXvXzX'.! w * % % % % $ + $ + + + O o O O . 6 J ].vXnXnXvXvXvXzXzXzXlXlXlXlXlXlXlXlXlXlXlXnXKX",
"KXnXlXlXlXlXlXlXlXlXlXlXlXlXlXlXzXvXvX&XF.! M p 8 3 $ $ : 3 h A p.J.qXnXvXnXvXvXvXvXzXvXzXzXlXlXlXlXlXlXlXlXlXlXlXlXnXKX",
"KXnXlXlXlXlXlXlXlXlXlXlXlXlXlXlXzXzXlXvXvXvXvXvXvXvXvXvXnXvXvXnXvXvXvXvXvXvXzXvXzXvXzXzXlXlXlXlXlXlXlXlXlXlXlXlXlXlXnXKX",
"KXnXlXlXlXlXlXlXlXlXlXlXlXlXlXlXlXlXzXzXzXvXzXvXvXvXvXzXnXzXvXvXvXvXvXvXvXzXvXzXzXzXlXlXlXlXlXlXlXlXlXlXlXlXlXlXlXlXnXKX",
"KXnXlXlXlXlXlXlXlXlXlXlXlXlXlXlXlXlXlXzXlXlXzXzXzXvXvXzXzXvXzXvXzXzXzXzXzXzXlXzXzXlXlXlXlXlXlXlXlXlXlXlXlXlXlXlXlXlXnXKX",
"KXFXnXnXnXnXnXnXnXnXnXnXnXnXnXnXnXnXnXnXnXnXnXnXbXnXnXnXnXnXFXnXnXnXnXnXbXnXnXnXnXnXnXnXnXnXnXnXnXnXbXnXnXnXnXnXnXnXFXKX",
"KXKXKXKXKXKXKXKXKXKXKXKXKXKXKXKXKXKXKXKXKXKXKXKXKXKXKXKXKXKXKXKXKXKXKXKXKXKXKXKXKXKXKXKXKXKXKXKXKXKXKXKXKXKXKXKXKXKXKXKX"
};
