/* XPM */
static char *nepomuk[] = {
/* columns rows colors chars-per-pixel */
"16 16 110 2 ",
"   c gray49",
".  c #DEBE23",
"X  c #85B25D",
"o  c #8EB667",
"O  c #8CA771",
"+  c #CFB446",
"@  c #CFB95C",
"#  c #C8B97E",
"$  c #92E04A",
"%  c #91C762",
"&  c #9FE362",
"*  c #A8F563",
"=  c #3F66A4",
"-  c #3F6AAA",
";  c #3073BB",
":  c #4D6BA1",
">  c #577CAD",
",  c #457DB8",
"<  c #AF68AF",
"1  c #AF76AE",
"2  c #B56FB4",
"3  c #BE5CC0",
"4  c #C749C9",
"5  c #D463D8",
"6  c #E864ED",
"7  c #E569E8",
"8  c #ED7BF1",
"9  c #EF78F2",
"0  c #F27DF7",
"q  c #6E88AC",
"w  c #7182A5",
"e  c #7C91A8",
"r  c #5193C4",
"t  c #4096D7",
"y  c #649DD1",
"u  c #47A5D8",
"i  c #64A4D7",
"p  c #4DACE4",
"a  c #4ABEEC",
"s  c #4BC3EE",
"d  c #4FCCF1",
"f  c #50D2F4",
"g  c #51D2F4",
"h  c #56D8F6",
"j  c #59DAF7",
"k  c #53D9F8",
"l  c #54DDF9",
"z  c #55DFFA",
"x  c #65CDF1",
"c  c #64D1F3",
"v  c #818181",
"b  c gray52",
"n  c #909090",
"m  c #929292",
"M  c gray59",
"N  c #97999F",
"B  c #9A9A9B",
"V  c #9B9B9B",
"C  c gray61",
"Z  c #9F9F9E",
"A  c #A49F97",
"S  c #A29F9B",
"D  c #97AC84",
"F  c #A3A79F",
"G  c #A4AD9B",
"H  c #8190A4",
"J  c #8A94A6",
"K  c #979EB3",
"L  c #BB96BB",
"P  c #B999B8",
"I  c #9EA3B2",
"U  c #A2A2A2",
"Y  c gray64",
"T  c #A1A2A6",
"R  c #A7A7A7",
"E  c #A9A9A9",
"W  c #ADABA9",
"Q  c #AEAEAE",
"!  c #A2A7B7",
"~  c #BBA1BC",
"^  c #BDACBD",
"/  c gray69",
"(  c #B1B1B1",
")  c gray70",
"_  c #B4B4B4",
"`  c gray71",
"'  c gray72",
"]  c gray73",
"[  c #BBBBBB",
"{  c #B9B9BC",
"}  c #B9BABE",
"|  c gray",
" . c gray75",
".. c #C191C2",
"X. c #C699C8",
"o. c #C0B8C0",
"O. c #C5BEC4",
"+. c #F590F9",
"@. c #F7A0FB",
"#. c #C0C0C0",
"$. c gray76",
"%. c gray79",
"&. c #CFC9CE",
"*. c gray80",
"=. c LightGray",
"-. c gray85",
";. c #DDDDDD",
":. c #E2E2E2",
">. c #E4E4E4",
",. c None",
/* pixels */
",.,.,.,.,.;.>.:.,.,.,.,.,.,.,.,.",
",.,.,.,.-.L 2 1 &.,.,.,.,.,.,.,.",
",.,.,.,.^ 4 8 7 < =.,.,.,.,.,.,.",
",.,.,.,.L 6 +.0 3 *.,.,.,.,.,.,.",
",.,.,.,.O.5 @.8 ..] ,.,.,.A S ,.",
",.,.,.,.,.o.X.~ #.,.,.,.W . + ,.",
",.,.,.,.,.,.U ] ] ,.,.,.] @ # ,.",
",.,.,.,.,.,.,.Q ] | ,.( ] Q ,.,.",
",.,.,.,.,.,.,.#.} K ! %.] ,.,.,.",
",.,.,.,.,.,.' I - i y : } ,.,.,.",
",.,.,.,.,.,.[ = p c x t w _ ,.,.",
",.,.#.,.,.U _ ; d j h a > ( ,.,.",
",.G o O ( R E , f l l s q U ,.,.",
",.X * $ Y V C J u k f r T ,.,.,.",
",.D & % F ,.,.m N e H V b ,.,.,.",
",.,.M m ,.,.,.,.,.v   ,.,.,.,.,."
};
