/* XPM */
static char *preferences_desktop_default_applications[] = {
/* columns rows colors chars-per-pixel */
"16 16 127 2 ",
"   c #D0860B",
".  c #CD9607",
"X  c #E39E02",
"o  c #CEA700",
"O  c #DCA300",
"+  c #E8AB02",
"@  c #E2B003",
"#  c #E8BF02",
"$  c #F7BD00",
"%  c #ECB51C",
"&  c #E8AC37",
"*  c #DFC200",
"=  c #FAD300",
"-  c #FAD400",
";  c #F8CC38",
":  c #E6B349",
">  c #E6B64B",
",  c #EDB94B",
"<  c #F0BB4F",
"1  c #E3B552",
"2  c #E6B956",
"3  c #CDAB67",
"4  c #D2B67C",
"5  c #F2C04D",
"6  c #F8D24A",
"7  c #F8CE55",
"8  c #F2CB65",
"9  c #F6CA6E",
"0  c #F7D26E",
"q  c #F7D36E",
"w  c #F7D76E",
"e  c #F8D76E",
"r  c #F4D370",
"t  c #F6D676",
"y  c #F7DC7B",
"u  c #3B7AC2",
"i  c #5187CA",
"p  c #538ACA",
"a  c #5B8FD3",
"s  c #5990D2",
"d  c #6795C8",
"f  c #6793CD",
"g  c #6595CE",
"h  c #6899D4",
"j  c #6E9BD9",
"k  c #719ED9",
"l  c #7CA2CE",
"z  c #77A2D6",
"x  c #7DA4D1",
"c  c #7FA7DB",
"v  c #8D8F8B",
"b  c #ADB0AA",
"n  c #D2C49F",
"m  c #F8EB83",
"M  c #8BAAC7",
"N  c #8CACCD",
"B  c #84A8D5",
"V  c #89ACD2",
"C  c #8BAED6",
"Z  c #87ACD8",
"A  c #84ACDD",
"S  c #8DB2DD",
"D  c #93B3DA",
"F  c #96B6D9",
"G  c #A2B6C5",
"H  c #A5B8C8",
"J  c #9EBDE0",
"K  c #B8C7CF",
"L  c #A6C0DE",
"P  c #BCCBD3",
"I  c #B5CBE1",
"U  c #B3CAE6",
"Y  c #C2C4C2",
"T  c #C7CAC5",
"R  c #C9CDC6",
"E  c #CECFCD",
"W  c #CED0CB",
"Q  c #CFD1CC",
"!  c #D0D1CE",
"~  c #D1D3CE",
"^  c #D0D5CE",
"/  c #D3D5D1",
"(  c #D4D5D3",
")  c #D4D6D2",
"_  c #D5D6D2",
"`  c #D6D7D3",
"'  c #D7D8D4",
"]  c #D7DAD4",
"[  c #D7DDDE",
"{  c #DBDFD8",
"}  c #DDE0DA",
"|  c #DFE2DC",
" . c #E7E5D9",
".. c #E0E2DD",
"X. c #E0E3DD",
"o. c #E1E3DE",
"O. c #E1E4DF",
"+. c #E2E4DF",
"@. c #E2E5DF",
"#. c #CBD9E3",
"$. c #C7D8EF",
"%. c #C9D9EC",
"&. c #E3E6E1",
"*. c #E4E4E3",
"=. c #E5E7E2",
"-. c #E5E8E3",
";. c #E7E9E4",
":. c #E9EBE7",
">. c #E9EBE8",
",. c #EAEAE9",
"<. c #EAECE8",
"1. c #ECEEEA",
"2. c #EDEFEB",
"3. c #EFF0EE",
"4. c #F0F1EF",
"5. c #F3F4F2",
"6. c #F4F5F3",
"7. c #F6F7F6",
"8. c #F8F8F7",
"9. c #F8F9F8",
"0. c #FAFAF9",
"q. c #FAFBFA",
"w. c #FBFBFB",
"e. c #FCFDFC",
"r. c #FEFEFE",
"t. c white",
"y. c None",
/* pixels */
"y.y.y.y.y.y.y.y.y.y.6.~ y.y.y.y.",
"y.y.y.t.t.t.8.w.8.,.Y ` y.y.y.y.",
"y.y.y.t.t.w.w.7.6.4.,.` y.y.y.y.",
"y.y.y.w.$.c B B D 3.2.( y.y.y.y.",
"y.y.y.5.A z I L f 2.<.( y.y.y.y.",
"y.y.y.*.x F %.S j <.;.( y.y.y.y.",
"y.y.y.( V C U J k -.&./ y.y.y.y.",
"y.y.y.E #.i h a l +.+.^ y.y.y.y.",
"y.y.y.n 8  .=.[ X.| +.Q y.y.y.y.",
"y.y.y.> m : +.+.| { ` W y.y.y.y.",
"y.& , t y 0 1 3 G P Q M y.y.y.y.",
"y.< 9 0 e e q 2 g s p u y.y.y.y.",
"y.  5 7 6 ; % 4 K N d H y.y.y.y.",
"y.y.X $ = - @ y.b R R v y.y.y.y.",
"y.y.+ O o * * y.y.y.y.y.y.y.y.y.",
"y.y.. y.y.y.y.y.y.y.y.y.y.y.y.y."
};
