/* XPM */
static char *pybookreader[] = {
/* columns rows colors chars-per-pixel */
"48 48 235 2 ",
"   c #2C1F59",
".  c #2F2263",
"X  c #36256B",
"o  c #3B276F",
"O  c #3C3368",
"+  c #3F2872",
"@  c #392875",
"#  c #3D2874",
"$  c #3B2979",
"%  c #3F2979",
"&  c #3F2A7C",
"*  c #3E2F7D",
"=  c #3F327E",
"-  c #412874",
";  c #412A79",
":  c #472B79",
">  c #412B7D",
",  c #412C7F",
"<  c #462C7F",
"1  c #492C7C",
"2  c #413B70",
"3  c #433A7D",
"4  c #4C4371",
"5  c #4B437E",
"6  c #524A74",
"7  c #5C5679",
"8  c #6B677C",
"9  c #432C80",
"0  c #462D81",
"q  c #472E84",
"w  c #492D81",
"e  c #4D2E80",
"r  c #4A2E84",
"t  c #4C2F86",
"y  c #443283",
"u  c #493386",
"i  c #463C81",
"p  c #493A83",
"a  c #4F3088",
"s  c #4B3688",
"d  c #4C3688",
"f  c #4D3B8A",
"g  c #5A3D84",
"h  c #51318A",
"j  c #54328B",
"k  c #56338D",
"l  c #57348E",
"z  c #58348E",
"x  c #543D8D",
"c  c #5D3E8A",
"v  c #5D3B92",
"b  c #613F93",
"n  c #4C4383",
"m  c #4C428A",
"M  c #524785",
"N  c #534D81",
"B  c #52438D",
"V  c #514C8A",
"C  c #5A4E8A",
"Z  c #565284",
"A  c #5F5882",
"S  c #5F5986",
"D  c #56518D",
"F  c #57548D",
"G  c #5A598F",
"H  c #524B90",
"J  c #534C92",
"K  c #564E92",
"L  c #564F95",
"P  c #594891",
"I  c #5C4993",
"U  c #575195",
"Y  c #585191",
"T  c #585591",
"R  c #595097",
"E  c #5C5097",
"W  c #5D5C92",
"Q  c #5C559A",
"!  c #60558E",
"~  c #624296",
"^  c #614C96",
"/  c #674B9A",
"(  c #6E4E9D",
")  c #605396",
"_  c #645F96",
"`  c #655299",
"'  c #655E9F",
"]  c #6A5C9A",
"[  c #6B6682",
"{  c #6C6A88",
"}  c #72638A",
"|  c #7C7A86",
" . c #636597",
".. c #6C6893",
"X. c #66659D",
"o. c #6C679D",
"O. c #736492",
"+. c #756C96",
"@. c #746A9D",
"#. c #786F99",
"$. c #7C769A",
"%. c #6D55A0",
"&. c #735BA2",
"*. c #7A5DA5",
"=. c #6767A2",
"-. c #6D62A6",
";. c #6C69A7",
":. c #6F64A9",
">. c #7562A4",
",. c #7068A5",
"<. c #7E62A8",
"1. c #746EAE",
"2. c #7B69A9",
"3. c #7175A7",
"4. c #7073A9",
"5. c #7372AE",
"6. c #7472AD",
"7. c #7674AF",
"8. c #7A72AC",
"9. c #776EB0",
"0. c #7D72B0",
"q. c #7779B2",
"w. c #7E7BB1",
"e. c #797FB1",
"r. c #7A7AB5",
"t. c #797DB4",
"y. c #7D7FB6",
"u. c #7F7CB8",
"i. c #806B9F",
"p. c #837F96",
"a. c #8369A9",
"s. c #8679A2",
"d. c #896FB0",
"f. c #8D74B2",
"g. c #917AB3",
"h. c #7C81B7",
"j. c #86858D",
"k. c #8B8A90",
"l. c #8F8F93",
"z. c #8D8B98",
"x. c #908D9F",
"c. c #949496",
"v. c #92909B",
"b. c #979698",
"n. c gray60",
"m. c #99989D",
"M. c #8A85A5",
"N. c #928EA6",
"B. c #9281AC",
"V. c #918DAB",
"C. c #9693A0",
"Z. c #9592A4",
"A. c #9D9BA2",
"S. c #9590AC",
"D. c #9893AD",
"F. c #9D9AAB",
"G. c #8481B5",
"H. c #8783B7",
"J. c #8084BA",
"K. c #8B85B9",
"L. c #8288BC",
"P. c #8C8BBC",
"I. c #9581B3",
"U. c #9B85BB",
"Y. c #9292B4",
"T. c #9892B0",
"R. c #9C99B7",
"E. c #9291BB",
"W. c #9B9ABD",
"Q. c #A19FAE",
"!. c #A399B4",
"~. c #A696BF",
"^. c #A59AB8",
"/. c #A6A1BA",
"(. c #8689C0",
"). c #868EC1",
"_. c #8A90C2",
"`. c #8991C4",
"'. c #8B94C6",
"]. c #8C94C6",
"[. c #9292C1",
"{. c #9599C7",
"}. c #9998C3",
"|. c #979ECB",
" X c #A38FC1",
".X c #AA97C6",
"XX c #A09CC4",
"oX c #AA9BC1",
"OX c #AE9DC8",
"+X c #B09FCA",
"@X c #9DA0C1",
"#X c #A6A5C3",
"$X c #ADADC3",
"%X c #A4A2C9",
"&X c #A8A3C8",
"*X c #A7A8CE",
"=X c #ABA9CC",
"-X c #B1A1CA",
";X c #B1AECE",
":X c #BBB8CC",
">X c #A1A8D0",
",X c #B9A9D0",
"<X c #AAB1D5",
"1X c #B3B1D2",
"2X c #BAB7D4",
"3X c #BDBBD7",
"4X c #B3B9DA",
"5X c #C3B6D7",
"6X c #C3BFD8",
"7X c #C4C4D7",
"8X c #CEC8D7",
"9X c #CDC3DD",
"0X c #CDCADA",
"qX c #D0C8DD",
"wX c #D6D5DF",
"eX c #C6C9E2",
"rX c #D0D2E7",
"tX c #DAD6E3",
"yX c #DBD5E7",
"uX c #DEDAE6",
"iX c #DEDCEB",
"pX c #E3DEED",
"aX c #DFE1F0",
"sX c #E1E0E8",
"dX c #E5E4EB",
"fX c #E5E1EE",
"gX c #E2E4F1",
"hX c #E8E7F1",
"jX c #EBEAF3",
"kX c #F0EEF6",
"lX c #F1F0F6",
"zX c #F2F3F8",
"xX c #F6F6FA",
"cX c #F8F8FB",
"vX c None",
/* pixels */
"vXvXvXvXvXvXvXvXvXvXvXvXvXvXvXvXvXvXvXvXvXvXvXvXvXvXvXvXvXvXvXvXvXvXvXvXvXvXvXvXvXvXvXvXvXvXvXvX",
"vXvXvXvXvXvXvXvXvXvXvXvXvXvXvXvXvXvXvXvXvXvXvXvXvXvXvXvXvXvXvXvXvXvXvXvXvXvXvXvXvXvXvXvXvXvXvXvX",
"vXvXvXvXvXvXvXvXvXvXvXvXvXvXvXvXvXvXvXvXvXvXvXvXvXvXvXvXvXvXvXvXvXvXvXvXvXvXvXvXvXvXvXvXvXvXvXvX",
"vXvXvXvXvXvXvXvXvXvXvXvXvXvXvXvXvXvXvXvXvXvXvXvXvXvXvXvXvXvXvXvXvXvXvXvXvXvXvXvXvXvXvXvXvXvXvXvX",
"vXvXvXvXvXvXvXvXvXvXvXvXvXvXvXvXvXvXvXvXvXvXvXvXvXvXvXvXvXvXvXvXvXvXvXvXvXvXvXvXvXvXvXvXvXvXvXvX",
"vXvXvXvXvXvXvXvXvXvXvXvXvXvXvXvXvXvXvXvXvXvXvXvXvXvXvXvXvXvXvXvXvXvXvXvXvXvXvXvXvXvXvXvXvXvXvXvX",
"vXvXvXvXvXvXvXvXvXvXvXvXvXvXvXvXvXvXvXvXvXvXvXvXvXvXvXvXvXvXvXvXvXvXvXvXvXvXvXvXvXvXvXvXvXvXvXvX",
"vXvXvXvXvXvXvXvXn.A.A.Q.F.D.S.V.V.S.N.x.v.vXvXvXvXvXn.A.F.!.D.S.S.T.S.S.Z.b.b.m.vXvXvXvXvXvXvXvX",
"vXvXvXvXvXvXn.A.F.M._ 4 4 2 6 6 6 6 6 g +.z.vXvXvXvXA.M.C 6 S A S N 5 i n Q w.V.v.b.vXvXvXvXvXvX",
"vXvXvXvXvXvXQ.!.5 7 { F.@X$XeXsXdXsXwX7X$.M p.vXvXD.! A /.wXsXdXdXsXwX0X$XM.o.8.,.p.vXvXvXvXvXvX",
"vXvXvXvXvXn.R.* Q.lXcXcXcXcXcXcXcXcXcXcXlXQ...C.Z.M W.lXcXcXcXcXcXcXcXcXcXcXzXP.) C b.vXvXvXvXvX",
"vXn.n.A.n.Q.@.O $XcXcXcXcXcXcXcXcXcXcXcXcXcX/.@.5 Y.cXcXcXcXcXcXcXcXcXcXcXcXcX&Xm 3 $.b.m.n.n.vX",
"vXA.T.S.S.] ..5 Y.cXcXcXcXcXcXcXcXcXcXcXcXcX7Xp 2 iXcXcXcXcXcXcXcXcXcXcXcXcXcX=XL J p O.M.8.| vX",
"vXp.q j & o h.V E.cXyX-XOX.X.X.X.X.X.X Xg.cXeXL N kXkX+XOX.X.X.X.X.X Xf.9XcXcX;XK h.3 : h 9 ! vX",
"vXO.< k + X.).m Y.cXyX~.^.^.^.^.^.^.^.!.-XcX4X;.F xXlXoX^.^.^.^.^.^.^.!.tXcXcX=XH ).=.# k 0 8 vX",
"vX+.0 k = h.`.J E.cXcXcXcXcXcXcXcXcXcXcXcXcX>X6.T cXcXcXcXcXcXcXcXcXcXcXcXcXcX6XH ).1., k q [ vX",
"vX+.w k , t.`.R Y.cXcXcXcXcXcXcXcXcXcXcXcXxX'.6.T cXcXcXcXcXcXcXcXcXcXcXcXcXcX6XH ).6.u k q [ vX",
"vX+.0 k , 5.`.Q E.cXcXcXcXcXcXcXcXcXcXcXcXgX].6.T cXcXcXcXcXcXcXcXcXcXcXcXcXcX6XH ).6.s k q [ vX",
"vX+.0 k , ;.`.R E.cXjXd.a.*.*.*.*.*.*.b I.iX'.6.T cXcXjXf.a.*.*.*.*.( c hXcXcX6XH ).6.s k q [ vX",
"vX+.0 k , ;.`.R W.cXxXqX8X8X8X8X8X8X8X8XuXaX'.6._ cXcXxXqXqX8X8X8X8X8X8XxXcXcX6XH (.1.s k q [ vX",
"vX+.0 k , ;.`.R #XcXcXcXcXcXcXcXcXcXcXcXcXcX'.6._ cXcXcXcXcXcXcXcXcXcXcXcXcXcX2XH ).6.s k q [ vX",
"vX+.0 k , q.`.R #XcXcXcXcXcXcXcXcXcXcXcXcXcX|.6._ cXcXcXcXcXcXcXcXcXcXcXcXcXcX<XH ).1.s k q [ vX",
"vX+.0 k , t.`.R ;XcXcXfXfXpXfXpXfXpXfXyXpXcX<X6._ cXcXcXcXcXcXcXcXcXcXcXcXcXcX&XH (.:.s k q [ vX",
"vX+.0 k , t.`.R :XcXcX*.c b c c c c c g B.cXeX6.T cXcXlX,X.XU.d. X.X Xf.9XcXcX%XH ).-.s k q [ vX",
"vX+.0 k , t.`.R :XcXcXcXcXcXcXcXcXcXcXcXcXcXeX6.T cXcXlX~.&.} } !.!.^.!.tXcXcX%XH ).-.s k q [ vX",
"vX+.0 k 9 t.`.R :XcXcXcXcXcXcXcXcXcXcXcXcXcXeX6.T cXcXcXcXcXcXcXcXcXcXcXcXcXcX%XH ).-.s k q [ vX",
"vX+.0 k y t.`.R :XcXcXcXcXcXcXcXcXcXcXcXcXcXeX6.T cXcXcXcXcXcXcXcXcXcXcXcXcXcX%XH ).-.s k q [ vX",
"vX+.0 k y t.`.R :XcXcX-Xd.<.*.*.*.*.&.b I.cXeX6.T cXcXcXyXqX9X9X9X9X9X5X,XcXcX%XH (.1.s k q [ vX",
"vX+.0 k s t.`.R #XcXcXuXqX8X8X8X8X8X8X8XuXcXeX6.T cXcXcX-Xi.i.i.i.i.i.#.s.cXcX%XH ).6.d k q [ vX",
"vX+.0 k s t.`.Q #XcXcXcXcXcXcXcXcXcXcXcXcXcXeX6.T cXcXcXcXcXcXcXcXcXcXcXcXcXcX;XH ).1.s k q [ vX",
"vX+.0 l u t.`.-.[.cXcXzXgXgXjXcXcXcXcXcXcXcXrX6.T cXcXcXcXcXcXxXzXcXcXcXcXcXcX3XH ).r.s k q [ vX",
"vX+.0 z y h.`.G.r.|.{.].P.P.G.G.G.E.}.3XkXcXaXG.Q xXxXeX*X=X&XXXE.G.(.[.1XrXhX*XL ).J.s k q [ vX",
"vX+.0 k u h.].o.3 n H M V Z W W W G D U ,.=XlX[.7.eXXX' V V G W W G D M m m Q ) m u.(.d k q [ vX",
"vX+.0 k ^ w.y.5  .3.e.L.)._.'.'.'.'.).L.4.Q  X[.' Y F 3.L._.`.'.'.'.`.).J.e.4.X.3 =.(.x k q [ vX",
"vX+.w l >.6.m _ ].].].].].].].].].].].].].).Q i . Z '.].].].].].].].].].].].].].=.E J.f k q [ vX",
"vX@.0 z 2.;.5 J.].].].].].].].].].].].].].].).= 2 ).'.].(.0.9.9.u.].].].].].].].`.7.,.p k r [ vX",
"vXO.0 z ] = < k v / %.&.&.>.2.0.G.K.P.K.K.P._.-.B :.>.i.@.>.>.&.&.&.>.>.0.6.%.~ v &.P X j q [ vX",
"vX#.< z @   X 0 ^ ` ^ I x d , 0 9 9 0 e < , , $ X # & 0 < < > 9 9 9 y f B P ^ ` ^ d .   k q [ vX",
"vX$.w k w - : w t a a a k j k k k h j h j k w - + 1 k k h h j k k k j h h a a r r w - : k l [ vX",
"vX#.s z l k h h a a t r 0 0 9 > % % ; & & q a j k h t & # ; % ; , 0 0 0 r t t h a j k l z B [ vX",
"vXS X o % # % # + + + + - + : 1 1 1 e e 1 + o o # o o : e r e 1 1 - - + - + - # + # % % & . 8 vX",
"vXk.| j.k.k.l.l.l.c.c.b.vXvXvXvXvXvXvXvXvXn.l.k.k.l.c.vXvXvXvXvXvXvXvXn.b.b.c.c.l.l.k.k.j.| k.vX",
"vXvXvXvXvXvXvXvXvXvXvXvXvXvXvXvXvXvXvXvXvXvXvXvXvXvXvXvXvXvXvXvXvXvXvXvXvXvXvXvXvXvXvXvXvXvXvXvX",
"vXvXvXvXvXvXvXvXvXvXvXvXvXvXvXvXvXvXvXvXvXvXvXvXvXvXvXvXvXvXvXvXvXvXvXvXvXvXvXvXvXvXvXvXvXvXvXvX",
"vXvXvXvXvXvXvXvXvXvXvXvXvXvXvXvXvXvXvXvXvXvXvXvXvXvXvXvXvXvXvXvXvXvXvXvXvXvXvXvXvXvXvXvXvXvXvXvX",
"vXvXvXvXvXvXvXvXvXvXvXvXvXvXvXvXvXvXvXvXvXvXvXvXvXvXvXvXvXvXvXvXvXvXvXvXvXvXvXvXvXvXvXvXvXvXvXvX",
"vXvXvXvXvXvXvXvXvXvXvXvXvXvXvXvXvXvXvXvXvXvXvXvXvXvXvXvXvXvXvXvXvXvXvXvXvXvXvXvXvXvXvXvXvXvXvXvX",
"vXvXvXvXvXvXvXvXvXvXvXvXvXvXvXvXvXvXvXvXvXvXvXvXvXvXvXvXvXvXvXvXvXvXvXvXvXvXvXvXvXvXvXvXvXvXvXvX"
};
