/* XPM */
static char *remmina[] = {
/* columns rows colors chars-per-pixel */
"16 16 129 2 ",
"   c #555753",
".  c #575955",
"X  c #585A56",
"o  c #595B57",
"O  c #5A5C58",
"+  c #5B5C58",
"@  c #5A5C59",
"#  c #5B5D59",
"$  c #5C5E5A",
"%  c #5E5F5C",
"&  c #5E605C",
"*  c #5F615D",
"=  c #60635E",
"-  c #626460",
";  c #636460",
":  c #646461",
">  c #656662",
",  c #656763",
"<  c #676764",
"1  c #666863",
"2  c #666864",
"3  c #696B67",
"4  c #6A6B67",
"5  c #6A6C67",
"6  c #6B6C68",
"7  c #6C6D68",
"8  c #6C6D69",
"9  c #6C6E69",
"0  c #6D6E69",
"q  c #6D6E6A",
"w  c #6E6F6A",
"e  c #6E6F6B",
"r  c #6E706B",
"t  c #6F706C",
"y  c #70726E",
"u  c #71736E",
"i  c #737571",
"p  c #767774",
"a  c #767873",
"s  c #787975",
"d  c #7B7E79",
"f  c #7D7F7A",
"g  c #81847E",
"h  c #204A87",
"j  c #2B5590",
"k  c #2E5791",
"l  c #416CA4",
"z  c #5480B2",
"x  c #5580B3",
"c  c #5F89BC",
"v  c #5F8ABC",
"b  c #6483AF",
"n  c #6988B2",
"m  c #698CB9",
"M  c #6A8DB9",
"N  c #6F92BD",
"B  c #7294BF",
"V  c #6691C3",
"C  c #6692C3",
"Z  c #828580",
"A  c #848581",
"S  c #878984",
"D  c #888A85",
"F  c #8D8F8A",
"G  c #8D8E8B",
"H  c #8D908A",
"J  c #91938F",
"K  c #92958F",
"L  c #939690",
"P  c #999C96",
"I  c #9B9C98",
"U  c #9FA29C",
"Y  c #A0A19E",
"T  c #AAADA7",
"R  c #AFAFAB",
"E  c #B6B7B3",
"W  c #B7BAB3",
"Q  c #B5B9B4",
"!  c #B8BCB7",
"~  c #BBBDB7",
"^  c #BBBFBB",
"/  c #C0C1BD",
"(  c #C0C2BC",
")  c #C3C5BF",
"_  c #8CA4C4",
"`  c #8DA4C4",
"'  c #C6C9C3",
"]  c #C7C9C4",
"[  c #C9CAC7",
"{  c #CACCC6",
"}  c #CBCDC7",
"|  c #CBCDC8",
" . c #CBCDCB",
".. c #CCCCC9",
"X. c #CCCFC9",
"o. c #CCCDCA",
"O. c #CDCECB",
"+. c #CCCECD",
"@. c #CDCFCD",
"#. c #CED0CB",
"$. c #CFD0CD",
"%. c #D1D2CE",
"&. c #D2D2CE",
"*. c #CFD1D0",
"=. c #D3D4D0",
"-. c #D4D6D1",
";. c #D6D8D3",
":. c #D7D8D5",
">. c #D8DAD5",
",. c #DBDCD8",
"<. c #DBDCD9",
"1. c #DDDDDA",
"2. c #DFE0DC",
"3. c #E0E1DD",
"4. c #E2E2E0",
"5. c #E3E3E0",
"6. c #E3E4E1",
"7. c #E5E5E2",
"8. c #E6E7E4",
"9. c #E7E7E4",
"0. c #E7E7E5",
"q. c #E9E9E7",
"w. c #EAEAE8",
"e. c #EBEBE9",
"r. c #EBECE9",
"t. c #ECECEA",
"y. c #EDEDEB",
"u. c #EEEEEC",
"i. c None",
/* pixels */
"i.i.i.i.i.i.i.i.i.i.i.i.i.i.i.i.",
"i.i.i.i.4 4 4 4 i.i.i.i.i.i.i.i.",
"i.i.i.4 I 9.t.R 6 i.i.i.i.i.i.i.",
"i.i.4 O.y.-. .w.p i.i.i.i.i.i.i.",
"i.2 O.w.%.' ' w.s i.i.i.i.i.i.i.",
"- y u.>.O.} I %     # = 2 9 i i.",
"* [ q.;.r = $ E 1.:.$.] ( W T f ",
"$ q.6.,.J ,   =.h h h h h h Q Z ",
"X 9.9.3.3.%.  +.j b ` n ` k W D ",
". G y.y.O.4 # +.l M C N M l W J ",
"i.X $ = # + $ O.x c V C m x ^ K ",
"i.i.r O.A i.4 ( 2.7.5.,.$.{ ~ I ",
"i.< - , , = 4 y p f g D H K P U ",
"i.i.i.i.i.i.i.i.5 9 9 9 r r i.i.",
"i.i.i.i.i.i.i.i.i.i.i.i.i.i.i.i.",
"i.i.i.i.i.i.i.i.i.i.i.i.i.i.i.i."
};
