/* XPM */
static char *skype[] = {
/* columns rows colors chars-per-pixel */
"16 16 48 1 ",
"  c #019ED8",
". c #019FD9",
"X c #01A0DB",
"o c #01A2DD",
"O c #01A3DE",
"+ c #01A4E0",
"@ c #01A5E1",
"# c #00A6E3",
"$ c #00A7E5",
"% c #00A8E6",
"& c #00A9E8",
"* c #00ABEA",
"= c #00ACEB",
"- c #00ADED",
"; c #00AEEE",
": c #11ABE3",
"> c #10ADE7",
", c #10AEE9",
"< c #10B0EB",
"1 c #00AFF0",
"2 c #31B6E7",
"3 c #30B7E8",
"4 c #30B9EC",
"5 c #40B9E5",
"6 c #41BBE8",
"7 c #40BCEA",
"8 c #50C3ED",
"9 c #50C3EE",
"0 c #40C1F0",
"q c #61C6EC",
"w c #71CCEE",
"e c #60CBF3",
"r c #70CEF1",
"t c #70CFF2",
"y c #7FD2F1",
"u c #80D2F0",
"i c #80D4F4",
"p c #80D6F5",
"a c #8FD7F1",
"s c #90D8F2",
"d c #9FDFF6",
"f c #B0E5F8",
"g c #CFEEFA",
"h c #D0EEF9",
"j c #D0EFFA",
"k c #E0F5FC",
"l c white",
"z c None",
/* pixels */
"z111;;zzzzzzzzzz",
";;;;;;;;;;;zzzzz",
";;;;;;;;;;;;;zzz",
"*=****eii0*=*=zz",
"****,kllllf***zz",
"*%%*tli*,dl4*%*z",
"z%%%tlj9%%%%%%$z",
"z$$$>glllj9$$$$z",
"z$@$@+3ygll6@@$z",
"z@@+3i:+@sli@@@z",
"z@++wlj65jlq+@@O",
"zzOOOallllaOOOOO",
"zzOOOOO56+.OOOOO",
"zzz..O..........",
"zzzzz...........",
"zzzzzzzzzz.....z"
};
