/* XPM */
static char *vim[] = {
/* columns rows colors chars-per-pixel */
"16 16 44 1 ",
"  c black",
". c #010101",
"X c gray1",
"o c gray3",
"O c #090909",
"+ c gray4",
"@ c gray5",
"# c #101010",
"$ c gray11",
"% c gray17",
"& c gray18",
"* c gray22",
"= c gray30",
"- c #555555",
"; c #626262",
": c gray39",
"> c gray40",
", c #777777",
"< c #888888",
"1 c gray54",
"2 c gray55",
"3 c gray61",
"4 c #9D9D9D",
"5 c #9F9F9F",
"6 c gray68",
"7 c #B9B9B9",
"8 c #BBBBBB",
"9 c gray75",
"0 c #CDCDCD",
"q c gainsboro",
"w c #DFDFDF",
"e c #E1E1E1",
"r c #E7E7E7",
"t c gray93",
"y c #EEEEEE",
"u c gray94",
"i c gray96",
"p c #F6F6F6",
"a c gray97",
"s c #F9F9F9",
"d c gray98",
"f c #FDFDFD",
"g c white",
"h c None",
/* pixels */
"hhhhhhhhhhhhhhhh",
"hhgggggghggggggh",
"hgy8888pgy8888pg",
"hg9    wg9    wg",
"hge-  >uge1% @yg",
"hgg5  9ggg6  8gh",
"hhg5  9ggq# 1ggh",
"hhg5  9gp% :gghh",
"hhg5  9g: *pghhh",
"hhg5  93 $rghhhh",
"hhg5  1++0gghhhh",
"hhg5  + 5gghhhhh",
"hhg5   ,gghhhhhh",
"hhg5  =gghhhhhhh",
"hhgdyydghhhhhhhh",
"hhhhhhhhhhhhhhhh"
};
