/* XPM */
static char *web_browser[] = {
/* columns rows colors chars-per-pixel */
"16 16 182 2 ",
"   c #1F3F6A",
".  c #193B6E",
"X  c #193A6F",
"o  c #193B6F",
"O  c #1A3B6E",
"+  c #1C3C6F",
"@  c #1A3D70",
"#  c #1B3D70",
"$  c #1B3D71",
"%  c #1C3D70",
"&  c #1D3E70",
"*  c #1C3E71",
"=  c #1D3F71",
"-  c #1F4072",
";  c #264269",
":  c #3F4F60",
">  c #254576",
",  c #274677",
"<  c #2C4A77",
"1  c #2D4C77",
"2  c #2F4E7A",
"3  c #2A4B7C",
"4  c #2A4C7D",
"5  c #555753",
"6  c #5A5C59",
"7  c #5B5D59",
"8  c #5D5F5B",
"9  c #5A5F5E",
"0  c #5C5F5C",
"q  c #5F615D",
"w  c #5F615E",
"e  c #5F625E",
"r  c #61635F",
"t  c #485A73",
"y  c #556679",
"u  c #606360",
"i  c #626462",
"p  c #626563",
"a  c #666966",
"s  c #676967",
"d  c #676A66",
"f  c #676B67",
"g  c #676A68",
"h  c #6F716D",
"j  c #6F726E",
"k  c #6E757C",
"l  c #727370",
"z  c #787977",
"x  c #73787B",
"c  c #7A7D7A",
"v  c #7E807D",
"b  c #7F827F",
"n  c #80817F",
"m  c #455F85",
"M  c #426290",
"N  c #4D6791",
"B  c #4B6996",
"V  c #556F93",
"C  c #556E94",
"Z  c #516E9A",
"A  c #697787",
"S  c #64778D",
"D  c #707A82",
"F  c #757F85",
"G  c #5B78A6",
"H  c #5B79A7",
"J  c #5B79A8",
"K  c #5C7AA8",
"L  c #5C7BA8",
"P  c #5E7BA8",
"I  c #7C8184",
"U  c #7C8387",
"Y  c #6C819E",
"T  c #6D83A7",
"R  c #7186A7",
"E  c #7D96B6",
"W  c #818280",
"Q  c #818482",
"!  c #858786",
"~  c #90918F",
"^  c #879098",
"/  c #879399",
"(  c #939492",
")  c #8F99A4",
"_  c #8D9DAF",
"`  c #919DA8",
"'  c #8597B5",
"]  c #8697B4",
"[  c #8A9DB3",
"{  c #8D9CB3",
"}  c #92A0B1",
"|  c #98A4B7",
" . c #9AA8BA",
".. c #9FABBB",
"X. c #9AA8BE",
"o. c #9DACBF",
"O. c #A1A7AB",
"+. c #A7ACAD",
"@. c #AFB1AD",
"#. c #B5B5AB",
"$. c #A0AAB2",
"%. c #A5ADB4",
"&. c #A6AFB8",
"*. c #ADB6BA",
"=. c #ACB3BE",
"-. c #BCBCB2",
";. c #BCBCB3",
":. c #9EB2CA",
">. c #ACB8CC",
",. c #ADB8CC",
"<. c #ACBACF",
"1. c #B0B9C6",
"2. c #B4BCC7",
"3. c #B4BDC8",
"4. c #ACBED2",
"5. c #B5C1CE",
"6. c #BAC0C8",
"7. c #B8C6D6",
"8. c #BEC9D5",
"9. c #BDCBDA",
"0. c gray78",
"q. c #CCCCC5",
"w. c #C1C8CD",
"e. c #CBCCCB",
"r. c #CCCCCB",
"t. c #CDD0CD",
"y. c #D1D1CA",
"u. c #C0C8D1",
"i. c #CACFD7",
"p. c #C3CBD8",
"a. c #CCD2D4",
"s. c #CAD0DB",
"d. c #CFD6DC",
"f. c #D2D7D9",
"g. c #D1D7DC",
"h. c #D4D8DB",
"j. c #D3D8DC",
"k. c #D6DCDF",
"l. c #D9DADA",
"z. c #D9DBDA",
"x. c gainsboro",
"c. c gray87",
"v. c #E3E3DF",
"b. c #CFD8E4",
"n. c #D3DBE3",
"m. c #D8DEE7",
"M. c #DEE0E0",
"N. c #DEE3E7",
"B. c #E1E4E5",
"V. c #E5E7E7",
"C. c #E6E6E6",
"Z. c #E6E7E6",
"A. c #E7E7E7",
"S. c #E0E6EC",
"D. c #E0E7ED",
"F. c #E5EAEF",
"G. c gray91",
"H. c #EDEDEA",
"J. c #EEEEEB",
"K. c #ECECEC",
"L. c #EFEFEC",
"P. c #EFEFED",
"I. c #EDEEEE",
"U. c #EDEEEF",
"Y. c #EFEFEF",
"T. c #F0F0EE",
"R. c #F1F1EE",
"E. c #E7EDF1",
"W. c #EBEFF2",
"Q. c #ECEFF1",
"!. c gray94",
"~. c #F3F3F3",
"^. c #F3F4F3",
"/. c gray96",
"(. c gray97",
"). c #F9F9F9",
"_. c gray98",
"`. c gray99",
"'. c #FDFDFD",
"]. c #FEFEFE",
"[. c white",
"{. c None",
/* pixels */
"{.{.{.{.{.G K K K H J {.{.{.{.{.",
"{.{.{.M Z <.m.Q.b.>.E B {.{.{.{.",
"{.{.4  .D.F.N.g.) F 9.n.R 3 {.{.",
"{.# | W.Q.E.D.%.a p 5.N.^.Y {.{.",
"{.m T.L.V.8.*.z ~.i L.L.T.L.2 {.",
"+ 3.T.M.u.$.c ).`.u [ _ j.T.} o ",
"- h.g.2.+.b )./.`.i V.f.a.z.6.# ",
"1 k.4.^ b ).L.V.].8 L.L.w.t.1.# ",
"; 7.U n ).G.x.x.].8 J.J.v.O.X.# ",
"# D Q ).]./.).x.].6 %.B.y.) ] % ",
"; 5 c ~ ( L.]./.].8 S q.-.{ T o ",
"{.3 :.^ j ].0.h.].r y #.@.<.> {.",
"{.o C I e.`.g 9 V.r t ;.i.N {.{.",
"{.{.  f `.e.k A a 6 <.s.C + {.{.",
"{.{.{.! /.j &.p.=.x ] , {.{.{.{.",
"{.{.{.l g : # - + + o {.{.{.{.{."
};
