/* XPM */
static char *xmind[] = {
/* columns rows colors chars-per-pixel */
"16 16 81 1 ",
"  c #B00000",
". c #B20000",
"X c #B30002",
"o c #B40306",
"O c #B40307",
"+ c #B40407",
"@ c #B40509",
"# c #B50609",
"$ c #B5080B",
"% c #B60A0D",
"& c #B60A0E",
"* c #B60B0E",
"= c #B60C0F",
"- c #B70D10",
"; c #B70E11",
": c #B70E12",
"> c #B70F12",
", c #B70F13",
"< c #B71013",
"1 c #B81013",
"2 c #B81114",
"3 c #B81215",
"4 c #B81216",
"5 c #B81316",
"6 c #B91316",
"7 c #B91317",
"8 c #B91417",
"9 c #B91418",
"0 c #B91518",
"q c #B91618",
"w c #B91619",
"e c #BB1B1E",
"r c #BB1C1E",
"t c #BC1F22",
"y c #BC2023",
"u c #BE2528",
"i c #C02B2D",
"p c #C02C2E",
"a c #C12F32",
"s c #C23235",
"d c #C33537",
"f c #C33538",
"g c #C4393C",
"h c #CA4D4F",
"j c #CC5658",
"k c #CE5B5D",
"l c #CF5E60",
"z c #D36B6D",
"x c #D87D7F",
"c c #D98081",
"v c #DA8485",
"b c #DC8B8C",
"n c #DF9395",
"m c #E09899",
"M c #E29D9E",
"N c #E3A2A3",
"B c #E4A4A5",
"V c #E4A6A7",
"C c #E7AEAF",
"Z c #E7AFB0",
"A c #EAB8B9",
"S c #EBBDBD",
"D c #F1D0D1",
"F c #F2D2D3",
"G c #F2D4D4",
"H c #F3D6D7",
"J c #F4D9DA",
"K c #F5DCDC",
"L c #F7E3E3",
"P c #F7E5E5",
"I c #F8E7E8",
"U c #FAEDED",
"Y c #FAEEEE",
"T c #FBF0F0",
"R c #FBF1F1",
"E c #FBF2F2",
"W c #FBF3F3",
"Q c #FCF3F3",
"! c #FDF9F9",
"~ c white",
"^ c None",
/* pixels */
"^^^^^^^^^^^^^^^0",
"^^^0080000000000",
"^00777000000000^",
"^00ere000000000^",
"^*hRUUvo00#++=0^",
"^7yR~~Go<=nZCk*^",
"^0*gK~~mtuR~~x+^",
"^00..b~~!!QBc08^",
"^7,lNGLP~~Rz.,0^",
"^,S~~V$7kR~~A58^",
"^iJDDa,8.j~~~M@^",
"^8=**70007P~~U0^",
"^000000087pfds0^",
"^0000000801,,,0^",
"0000000000000^^^",
"0^^^^^^^^^^^^^^^"
};
