/* XPM */
static char *zeroinstall_zero2desktop[] = {
/* columns rows colors chars-per-pixel */
"48 48 159 2 ",
"   c #040404",
".  c #0A0503",
"X  c #0A0903",
"o  c #0B0B0B",
"O  c #130404",
"+  c #1C0101",
"@  c #130B02",
"#  c #1C0B01",
"$  c #171000",
"%  c #1E1400",
"&  c #240101",
"*  c #2B0400",
"=  c #230800",
"-  c #280C00",
";  c #330400",
":  c #3B0100",
">  c #221202",
",  c #2B1401",
"<  c #251D00",
"1  c #2B1A00",
"2  c #371B00",
"3  c #3C1C00",
"4  c #242000",
"5  c #2B2100",
"6  c #2F2A00",
"7  c #352600",
"8  c #3F2100",
"9  c #392B00",
"0  c #420000",
"q  c #4C0200",
"w  c #5B0000",
"e  c #540800",
"r  c #5B0D00",
"t  c #630000",
"y  c #760000",
"u  c #641500",
"i  c #6B1C00",
"p  c #4D2600",
"a  c #4C2F00",
"s  c #532200",
"d  c #512900",
"f  c #423100",
"g  c #4A3700",
"h  c #4B3A00",
"j  c #6D2B00",
"k  c #722400",
"l  c #792C00",
"z  c #603000",
"x  c #6B3600",
"c  c #663800",
"v  c #6B3900",
"b  c #7E3200",
"n  c #753F00",
"m  c #7C3D00",
"M  c #564100",
"N  c #5D4400",
"B  c #5A4D00",
"V  c #654300",
"C  c #6C4200",
"Z  c #704000",
"A  c #774C00",
"S  c #6C5100",
"D  c #665800",
"F  c #755700",
"G  c #7E5F00",
"H  c #7E6800",
"J  c #850000",
"K  c #890000",
"L  c #910000",
"P  c #A20000",
"I  c #AA0000",
"U  c #B10000",
"Y  c #BE0000",
"T  c #873600",
"R  c #843B00",
"E  c #C20000",
"W  c #CD0000",
"Q  c #D40000",
"!  c #DB0000",
"~  c #E40000",
"^  c #EB0000",
"/  c #F40000",
"(  c #FF0000",
")  c #FF0C00",
"_  c #FF1400",
"`  c #FF1C00",
"'  c #FF2300",
"]  c #FF2C00",
"[  c #FF3500",
"{  c #FF3C00",
"}  c #854400",
"|  c #8C4600",
" . c #924A00",
".. c #945400",
"X. c #9A5D00",
"o. c #A35200",
"O. c #AF5500",
"+. c #A75C00",
"@. c #B25800",
"#. c #BB5D00",
"$. c #836200",
"%. c #9E6500",
"&. c #8D7F00",
"*. c #967000",
"=. c #9E7300",
"-. c #A36C00",
";. c #BC6C00",
":. c #A37A00",
">. c #A97F00",
",. c #FF4300",
"<. c #FF4C00",
"1. c #FF5300",
"2. c #FF5A00",
"3. c #C06000",
"4. c #CF6400",
"5. c #D16700",
"6. c #DF6700",
"7. c #D96C00",
"8. c #ED6A00",
"9. c #FF6300",
"0. c #F66B00",
"q. c #FE6B00",
"w. c #E37100",
"e. c #EB7600",
"r. c #FE7400",
"t. c #F47A00",
"y. c #FF7F00",
"u. c #958000",
"i. c #A48700",
"p. c #AB8000",
"a. c #AD9B00",
"s. c #C88700",
"d. c #DB8100",
"f. c #C09000",
"g. c #C99600",
"h. c #CD9A00",
"j. c #FE8400",
"k. c #F68C00",
"l. c #FE8C00",
"z. c #E49C00",
"x. c #F19100",
"c. c #FF9500",
"v. c #FE9C00",
"b. c #D5A000",
"n. c #D3BE00",
"m. c #EAAF00",
"M. c #FFA300",
"N. c #FFA900",
"B. c #EDB200",
"V. c #F2B500",
"C. c #FFB100",
"Z. c #FFBE00",
"A. c #FFC300",
"S. c #FFCC00",
"D. c #EED300",
"F. c #FFD300",
"G. c #FFDA00",
"H. c #FEE200",
"J. c None",
/* pixels */
"J.J.J.J.J.J.J.J.J.J.J.J.J.J.J.J.J.J.J.J.J.J.J.J.J.J.J.J.J.J.J.J.J.J.J.J.J.J.J.J.J.J.J.J.J.J.J.J.",
"J.J.J.J.J.J.J.J.J.J.J.J.J.J.J.J.J.J.J.J.J.J.J.J.J.J.J.J.J.J.J.J.J.J.J.J.J.J.J.J.J.J.J.J.J.J.J.J.",
"J.J.J.J.J.J.J.J.J.J.J.J.J.J.J.J.J.J.J.J.J.J.J.J.J.J.J.J.J.J.J.J.J.J.J.J.J.J.J.J.J.J.J.J.J.J.J.J.",
"J.J.J.J.J.J.J.J.J.J.J.J.J.J.J.J.J.J.J.J.J.J.J.J.J.J.J.J.J.J.J.J.J.J.J.J.J.J.J.J.J.J.J.J.J.J.J.J.",
"J.J.J.J.J.J.J.J.J.J.J.J.J.J.J.J.J.J.J.J.J.J.J.J.J.J.J.J.J.J.J.J.J.J.J.J.J.J.J.J.J.J.J.J.J.J.J.J.",
"J.J.J.J.J.J.J.J.J.J.J.J.J.J.J.J.J.J.J.J.J.J.J.J.J.J.J.J.J.J.J.J.J.J.J.J.J.J.J.J.J.J.J.J.J.J.J.J.",
"J.J.J.J.J.J.J.J.J.J.J.J.J.J.J.J.J.J.J.J.J.J.J.J.J.J.J.J.J.J.J.J.J.J.J.J.J.J.J.J.J.J.J.J.J.J.J.J.",
"J.J.J.J.J.J.J.J.J.J.J.J.J.J.J.J.J.J.J.J.J.J.J.J.J.J.J.J.J.J.J.J.J.J.J.J.J.J.J.J.J.J.J.J.J.J.J.J.",
"J.J.J.J.J.J.J.J.J.J.J.J.J.J.J.J.J.J.J.J.J.J.J.J.J.J.J.J.J.J.J.J.J.J.J.J.J.J.J.J.J.J.J.J.J.J.J.J.",
"J.J.J.J.J.J.J.J.J.J.J.J.J.J.J.J.J.J.J.J.J.J.J.J.J.J.J.J.J.J.J.J.J.J.J.J.J.J.J.J.J.J.J.J.J.J.J.J.",
"J.J.J.J.J.J.J.J.J.J.J.J.J.J.J.J.J.J.J.J.J.J.J.J.J.J.J.J.J.J.J.J.J.J.J.J.J.J.J.J.J.J.J.J.J.J.J.J.",
"J.J.J.J.J.J.J.J.o   X .         o J.J.J.J.J.J.J.J.J.J.J.J.J.J.J.J.J.J.J.J.J.J.J.J.J.J.J.J.J.J.J.",
"J.J.o o . % g F =.h.V.Z.m.b.f.p.*.H S h f 1 @     J.J.J.J.J.J.J.J.J.J.J.J.J.J.J.J.J.J.J.J.J.J.J.",
"  &   X g H :.g.B.A.A.A.Z.Z.Z.Z.Z.Z.Z.V.>.M $ p v o J.J.J.J.J.J.J.J.J.J.J.J.J.J.J.J.J.J.J.J.J.J.",
"O ( / Q U K t 0 + $ 9 V $.>.h.V.B.=.g # d o.t.y.3.o J.J.J.J.J.J.J.J.J.J.J.J.J.J.J.J.J.J.J.J.J.J.",
"o ( ( ( ( ( ( ( ( / W I J w : O X z @.t.y.y.y.j.3.o J.J.J.J.J.J.J.J.J.J.J.J.J.J.J.J.J.J.J.J.J.J.",
"  ( ( ( ( ( ( ( ( ( ( ( ( ( ( Y d y.y.y.y.y.y.y.#.o J.J.J.X   J.J.J.J.J.J.J.J.J.J.J.J.J.J.J.J.J.",
"  / ( ( ( ( ( ( ( ( ( ( ( ( ( Y d j.y.y.y.y.y.y.3.o X X D B   J.J.J.J.J.J.J.J.J.J.J.o o J.J.J.J.",
"  / ( ( ( ( ( ( ( ( ( ( ( ( ( Y d y.y.y.y.y.y.O.3 4 u.D.G.i.M N N V V C Z Z m m R T ,   J.J.J.J.",
"o / ( ( ( ( ( ( ( ( ( ( ( ( ( Y d y.y.y.y.j.| X a.H.H.G.F.S.A.Z.C.N.M.v.l.j.y.r.q.j   J.J.J.J.J.",
". / ( ( ( ( ( ( ( ( ( ( ( ( ( Y d y.y.y.y.y.t.x 6 n.G.G.H 5 < % % $ @ @ X = r.0.s   J.J.J.J.J.J.",
"  ~ ( ( ( ( ( ( ( ( ( ( ( ( ( Y p y.y.y.y.y.y.y.| X u.F.< J.J.J.J.J.J.J.@ O.8.3 o J.J.J.J.J.J.J.",
"  ~ ( ( ( ( ( ( ( ( ( ( ( ( ( Y d y.y.y.y.y.y.y.#.  o h X J.J.J.J.J.J.> 5.6., J.J.J.J.J.J.J.J.J.",
"o ~ ( ( ( ( ( ( ( ( ( ( ( ( ( Y d y.y.y.y.y.y.y.#.  J.J.o J.J.J.J.  8 e.4.# J.J.J.J.J.J.J.J.J.J.",
"o ! ( ( ( ( ( ( ( ( ( ( ( ( ( Y p y.y.y.y.y.y.y.#.  J.J.J.J.J.J.  c j.#.X J.J.J.J.J.J.J.J.J.J.J.",
"  ! ( ( ( ( ( ( ( ( ( ( ( ( ( E d y.y.j.y.y.y.y.@.  J.J.J.J.J.. ..j.o.. J.J.J.J.J.J.J.J.J.J.J.J.",
"  Q ( ( ( ( ( ( ( ( ( ( ( ( ( Y p y.y.y.y.y.y.y.R   J.J.J.J.@ ;.l.}   J.J.J.J.J.J.J.J.J.J.J.J.J.",
"  J ( ( ( ( ( ( ( ( ( ( ( ( ( E p y.y.y.y.y.y.o.  J.J.J.o 1 d.l.v   J.J.J.J.J.J.J.J.J.J.J.J.J.J.",
"J.. ; E ( ( ( ( ( ( ( ( ( ( ( E p y.y.y.y.y.@.  J.J.J.  g k.k.a   J.J.J.J.J.J.J.J.J.J.J.J.J.J.J.",
"J.J.J.  w ~ ( ( ( ( ( ( ( ( ( E p y.y.y.y.3.X J.J.J.  A v.c.+.  . . . @ # # # = - * ; ; : : * o ",
"J.J.J.J.J.O K / ( ( ( ( ( ( ( E p y.y.y.5.@ J.J.J.X -.v.c.l.j.y.r.q.9.2.<.<.{ [ ] ' ` _ ) ( U   ",
"J.J.J.J.J.J.o & U ( ( ( ( ( ( E p y.y.7.$ J.J.J.% s.M.v.c.l.y.r.q.q.2.1.<.,.{ [ ] ' _ _ ) ( W   ",
"J.J.J.J.J.J.J.J.  q ! ( ( ( ( E p y.w.> J.J.o 7 z.M.v.c.l.j.y.r.q.2.2.<.<.{ [ ] ' ` _ ) ( ( ^   ",
"J.J.J.J.J.J.J.J.J.J.. y / ( ( E p e., J.J.  % :.-.%.%... .| } T b l k k i u u r r e q q 0 0 :   ",
"J.J.J.J.J.J.J.J.J.J.J.o + L ( E 3 2 J.J.J.    o o   o o o J.J.J.J.J.J.J.J.J.J.J.J.J.J.J.J.J.J.J.",
"J.J.J.J.J.J.J.J.J.J.J.J.J.o : L   o J.J.J.J.J.J.J.J.J.J.J.J.J.J.J.J.J.J.J.J.J.J.J.J.J.J.J.J.J.J.",
"J.J.J.J.J.J.J.J.J.J.J.J.J.J.J.. o J.J.J.J.J.J.J.J.J.J.J.J.J.J.J.J.J.J.J.J.J.J.J.J.J.J.J.J.J.J.J.",
"J.J.J.J.J.J.J.J.J.J.J.J.J.J.J.J.J.J.J.J.J.J.J.J.J.J.J.J.J.J.J.J.J.J.J.J.J.J.J.J.J.J.J.J.J.J.J.J.",
"J.J.J.J.J.J.J.J.J.J.J.J.J.J.J.J.J.J.J.J.J.J.J.J.J.J.J.J.J.J.J.J.J.J.J.J.J.J.J.J.J.J.J.J.J.J.J.J.",
"J.J.J.J.J.J.J.J.J.J.J.J.J.J.J.J.J.J.J.J.J.J.J.J.J.J.J.J.J.J.J.J.J.J.J.J.J.J.J.J.J.J.J.J.J.J.J.J.",
"J.J.J.J.J.J.J.J.J.J.J.J.J.J.J.J.J.J.J.J.J.J.J.J.J.J.J.J.J.J.J.J.J.J.J.J.J.J.J.J.J.J.J.J.J.J.J.J.",
"J.J.J.J.J.J.J.J.J.J.J.J.J.J.J.J.J.J.J.J.J.J.J.J.J.J.J.J.J.J.J.J.J.J.J.J.J.J.J.J.J.J.J.J.J.J.J.J.",
"J.J.J.J.J.J.J.J.J.J.J.J.J.J.J.J.J.J.J.J.J.J.J.J.J.J.J.J.J.J.J.J.J.J.J.J.J.J.J.J.J.J.J.J.J.J.J.J.",
"J.J.J.J.J.J.J.J.J.J.J.J.J.J.J.J.J.J.J.J.J.J.J.J.J.J.J.J.J.J.J.J.J.J.J.J.J.J.J.J.J.J.J.J.J.J.J.J.",
"J.J.J.J.J.J.J.J.J.J.J.J.J.J.J.J.J.J.J.J.J.J.J.J.J.J.J.J.J.J.J.J.J.J.J.J.J.J.J.J.J.J.J.J.J.J.J.J.",
"J.J.J.J.J.J.J.J.J.J.J.J.J.J.J.J.J.J.J.J.J.J.J.J.J.J.J.J.J.J.J.J.J.J.J.J.J.J.J.J.J.J.J.J.J.J.J.J.",
"J.J.J.J.J.J.J.J.J.J.J.J.J.J.J.J.J.J.J.J.J.J.J.J.J.J.J.J.J.J.J.J.J.J.J.J.J.J.J.J.J.J.J.J.J.J.J.J.",
"J.J.J.J.J.J.J.J.J.J.J.J.J.J.J.J.J.J.J.J.J.J.J.J.J.J.J.J.J.J.J.J.J.J.J.J.J.J.J.J.J.J.J.J.J.J.J.J."
};
